<mxfile host="app.diagrams.net" modified="2021-12-29T14:08:41.199Z" agent="5.0 (X11; Linux x86_64) AppleWebKit/537.36 (KHTML, like Gecko) Chrome/96.0.4664.45 Safari/537.36" etag="2WzzpPFUxDGXCVcDg1Xo" version="16.1.0" type="github" pages="3">
  <diagram id="dZS81m-TPUKa88rJBLX_" name="product-nutshell">
    <mxGraphModel dx="3062" dy="848" grid="1" gridSize="10" guides="1" tooltips="1" connect="1" arrows="1" fold="1" page="1" pageScale="1" pageWidth="850" pageHeight="1100" math="0" shadow="0">
      <root>
        <mxCell id="0" />
        <mxCell id="1" parent="0" />
        <mxCell id="emPmLsdWe4nNVTF6K-DM-1" value="&lt;div style=&quot;text-align: left&quot;&gt;&lt;b style=&quot;font-size: 18px&quot;&gt;SISGateway16 v6&lt;/b&gt;&lt;/div&gt;&lt;span style=&quot;font-size: 18px&quot;&gt;&lt;b&gt;&lt;br&gt;&lt;div style=&quot;text-align: left&quot;&gt;&lt;span style=&quot;font-weight: normal&quot;&gt;16 channels&amp;nbsp;&lt;/span&gt;&lt;span style=&quot;font-weight: normal ; text-align: left&quot;&gt;Gateway&lt;/span&gt;&lt;/div&gt;&lt;/b&gt;&lt;/span&gt;&lt;font style=&quot;font-size: 18px&quot;&gt;&lt;div style=&quot;text-align: left&quot;&gt;&lt;span&gt;Modbus RS or&amp;nbsp;&lt;/span&gt;&lt;span&gt;IEC101&lt;/span&gt;&lt;/div&gt;&lt;/font&gt;&lt;span style=&quot;text-align: left ; font-size: 18px&quot;&gt;to&amp;nbsp;&lt;/span&gt;&lt;span style=&quot;text-align: left ; font-size: 18px&quot;&gt;IEC104 / Modbus TCP&lt;/span&gt;" style="rounded=1;whiteSpace=wrap;html=1;fillColor=#d5e8d4;strokeColor=#82b366;" parent="1" vertex="1">
          <mxGeometry x="230" y="200" width="300" height="150" as="geometry" />
        </mxCell>
        <mxCell id="emPmLsdWe4nNVTF6K-DM-7" style="edgeStyle=orthogonalEdgeStyle;rounded=0;orthogonalLoop=1;jettySize=auto;html=1;exitX=0.5;exitY=1;exitDx=0;exitDy=0;entryX=0.25;entryY=0;entryDx=0;entryDy=0;fontSize=18;curved=1;" parent="1" source="emPmLsdWe4nNVTF6K-DM-4" edge="1">
          <mxGeometry relative="1" as="geometry">
            <mxPoint x="325" y="140" as="sourcePoint" />
            <mxPoint x="320" y="200" as="targetPoint" />
          </mxGeometry>
        </mxCell>
        <mxCell id="emPmLsdWe4nNVTF6K-DM-4" value="Variants: &lt;br&gt;Power supply in&amp;nbsp;&lt;br&gt;&lt;b&gt;24v or 250v&lt;/b&gt;" style="whiteSpace=wrap;html=1;rounded=0;arcSize=50;align=center;verticalAlign=middle;strokeWidth=1;autosize=1;spacing=4;treeFolding=1;treeMoving=1;newEdgeStyle={&quot;edgeStyle&quot;:&quot;entityRelationEdgeStyle&quot;,&quot;startArrow&quot;:&quot;none&quot;,&quot;endArrow&quot;:&quot;none&quot;,&quot;segment&quot;:10,&quot;curved&quot;:1};fontSize=18;fillColor=#dae8fc;strokeColor=#6c8ebf;sketch=1;" parent="1" vertex="1">
          <mxGeometry x="180" y="50" width="240" height="80" as="geometry" />
        </mxCell>
        <mxCell id="emPmLsdWe4nNVTF6K-DM-23" style="edgeStyle=orthogonalEdgeStyle;curved=1;rounded=0;orthogonalLoop=1;jettySize=auto;html=1;exitX=1;exitY=0.5;exitDx=0;exitDy=0;entryX=0.25;entryY=1;entryDx=0;entryDy=0;fontSize=18;" parent="1" source="emPmLsdWe4nNVTF6K-DM-6" target="emPmLsdWe4nNVTF6K-DM-1" edge="1">
          <mxGeometry relative="1" as="geometry" />
        </mxCell>
        <mxCell id="emPmLsdWe4nNVTF6K-DM-6" value="Mechanical reuse of V5: &lt;br&gt;&lt;b&gt;19&quot; Rack mount&lt;/b&gt;" style="whiteSpace=wrap;html=1;rounded=0;arcSize=50;align=center;verticalAlign=middle;strokeWidth=1;autosize=1;spacing=4;treeFolding=1;treeMoving=1;newEdgeStyle={&quot;edgeStyle&quot;:&quot;entityRelationEdgeStyle&quot;,&quot;startArrow&quot;:&quot;none&quot;,&quot;endArrow&quot;:&quot;none&quot;,&quot;segment&quot;:10,&quot;curved&quot;:1};fontSize=18;fillColor=#fff2cc;strokeColor=#d6b656;sketch=1;" parent="1" vertex="1">
          <mxGeometry x="-30" y="370" width="230" height="60" as="geometry" />
        </mxCell>
        <mxCell id="emPmLsdWe4nNVTF6K-DM-26" style="edgeStyle=orthogonalEdgeStyle;curved=1;rounded=0;orthogonalLoop=1;jettySize=auto;html=1;exitX=0;exitY=0.75;exitDx=0;exitDy=0;entryX=0.75;entryY=0;entryDx=0;entryDy=0;fontSize=18;" parent="1" source="emPmLsdWe4nNVTF6K-DM-12" target="emPmLsdWe4nNVTF6K-DM-1" edge="1">
          <mxGeometry relative="1" as="geometry" />
        </mxCell>
        <mxCell id="emPmLsdWe4nNVTF6K-DM-12" value="Product Constraint (SE):&lt;br&gt;&lt;b&gt;Readiness for&amp;nbsp;IEC 62443 SL1&lt;/b&gt;" style="whiteSpace=wrap;html=1;rounded=0;arcSize=50;align=center;verticalAlign=middle;strokeWidth=1;autosize=1;spacing=4;treeFolding=1;treeMoving=1;newEdgeStyle={&quot;edgeStyle&quot;:&quot;entityRelationEdgeStyle&quot;,&quot;startArrow&quot;:&quot;none&quot;,&quot;endArrow&quot;:&quot;none&quot;,&quot;segment&quot;:10,&quot;curved&quot;:1};fontSize=18;fillColor=#e1d5e7;strokeColor=#9673a6;sketch=1;" parent="1" vertex="1">
          <mxGeometry x="545" y="90" width="290" height="60" as="geometry" />
        </mxCell>
        <mxCell id="emPmLsdWe4nNVTF6K-DM-27" style="edgeStyle=orthogonalEdgeStyle;curved=1;rounded=0;orthogonalLoop=1;jettySize=auto;html=1;exitX=0;exitY=0.5;exitDx=0;exitDy=0;entryX=1;entryY=0.5;entryDx=0;entryDy=0;fontSize=18;" parent="1" source="emPmLsdWe4nNVTF6K-DM-10" target="emPmLsdWe4nNVTF6K-DM-1" edge="1">
          <mxGeometry relative="1" as="geometry" />
        </mxCell>
        <mxCell id="emPmLsdWe4nNVTF6K-DM-10" value="Product Constraint:&lt;br&gt;&lt;b&gt;Standard Exchange for V5&lt;/b&gt;" style="whiteSpace=wrap;html=1;rounded=0;arcSize=50;align=center;verticalAlign=middle;strokeWidth=1;autosize=1;spacing=4;treeFolding=1;treeMoving=1;newEdgeStyle={&quot;edgeStyle&quot;:&quot;entityRelationEdgeStyle&quot;,&quot;startArrow&quot;:&quot;none&quot;,&quot;endArrow&quot;:&quot;none&quot;,&quot;segment&quot;:10,&quot;curved&quot;:1};fontSize=18;fillColor=#e1d5e7;strokeColor=#9673a6;sketch=1;" parent="1" vertex="1">
          <mxGeometry x="575" y="240" width="260" height="60" as="geometry" />
        </mxCell>
        <mxCell id="emPmLsdWe4nNVTF6K-DM-28" style="edgeStyle=orthogonalEdgeStyle;curved=1;rounded=0;orthogonalLoop=1;jettySize=auto;html=1;exitX=0.25;exitY=0;exitDx=0;exitDy=0;entryX=0.687;entryY=1.027;entryDx=0;entryDy=0;entryPerimeter=0;fontSize=18;" parent="1" source="emPmLsdWe4nNVTF6K-DM-16" target="emPmLsdWe4nNVTF6K-DM-1" edge="1">
          <mxGeometry relative="1" as="geometry" />
        </mxCell>
        <mxCell id="emPmLsdWe4nNVTF6K-DM-16" value="Product Constraint:&lt;br&gt;&lt;b&gt;10y availability for HW production and repairs&lt;/b&gt;" style="whiteSpace=wrap;html=1;rounded=0;arcSize=50;align=center;verticalAlign=middle;strokeWidth=1;autosize=1;spacing=4;treeFolding=1;treeMoving=1;newEdgeStyle={&quot;edgeStyle&quot;:&quot;entityRelationEdgeStyle&quot;,&quot;startArrow&quot;:&quot;none&quot;,&quot;endArrow&quot;:&quot;none&quot;,&quot;segment&quot;:10,&quot;curved&quot;:1};fontSize=18;fillColor=#e1d5e7;strokeColor=#9673a6;sketch=1;" parent="1" vertex="1">
          <mxGeometry x="405" y="400" width="430" height="60" as="geometry" />
        </mxCell>
        <mxCell id="emPmLsdWe4nNVTF6K-DM-24" style="edgeStyle=orthogonalEdgeStyle;curved=1;rounded=0;orthogonalLoop=1;jettySize=auto;html=1;exitX=1;exitY=0.5;exitDx=0;exitDy=0;entryX=0;entryY=0.5;entryDx=0;entryDy=0;fontSize=18;" parent="1" source="emPmLsdWe4nNVTF6K-DM-20" target="emPmLsdWe4nNVTF6K-DM-1" edge="1">
          <mxGeometry relative="1" as="geometry" />
        </mxCell>
        <mxCell id="emPmLsdWe4nNVTF6K-DM-20" value="Performances:&lt;br&gt;&lt;b&gt;16 x 8 Modbus slaves at 38400&amp;nbsp;bps&lt;/b&gt;" style="whiteSpace=wrap;html=1;rounded=0;arcSize=50;align=center;verticalAlign=middle;strokeWidth=1;autosize=1;spacing=4;treeFolding=1;treeMoving=1;newEdgeStyle={&quot;edgeStyle&quot;:&quot;entityRelationEdgeStyle&quot;,&quot;startArrow&quot;:&quot;none&quot;,&quot;endArrow&quot;:&quot;none&quot;,&quot;segment&quot;:10,&quot;curved&quot;:1};fontSize=18;fillColor=#f8cecc;strokeColor=#b85450;sketch=1;" parent="1" vertex="1">
          <mxGeometry x="-160" y="260" width="340" height="60" as="geometry" />
        </mxCell>
        <mxCell id="emPmLsdWe4nNVTF6K-DM-31" style="edgeStyle=orthogonalEdgeStyle;curved=1;rounded=0;orthogonalLoop=1;jettySize=auto;html=1;exitX=1;exitY=0.75;exitDx=0;exitDy=0;entryX=0;entryY=0.25;entryDx=0;entryDy=0;fontSize=18;" parent="1" source="emPmLsdWe4nNVTF6K-DM-29" target="emPmLsdWe4nNVTF6K-DM-1" edge="1">
          <mxGeometry relative="1" as="geometry" />
        </mxCell>
        <mxCell id="emPmLsdWe4nNVTF6K-DM-29" value="Variants: &lt;br&gt;&lt;b&gt;1 x Ethernet Port&lt;br&gt;or 2 x Ethernet Ports&lt;/b&gt;" style="whiteSpace=wrap;html=1;rounded=0;arcSize=50;align=center;verticalAlign=middle;strokeWidth=1;autosize=1;spacing=4;treeFolding=1;treeMoving=1;newEdgeStyle={&quot;edgeStyle&quot;:&quot;entityRelationEdgeStyle&quot;,&quot;startArrow&quot;:&quot;none&quot;,&quot;endArrow&quot;:&quot;none&quot;,&quot;segment&quot;:10,&quot;curved&quot;:1};fontSize=18;fillColor=#dae8fc;strokeColor=#6c8ebf;glass=0;sketch=1;" parent="1" vertex="1">
          <mxGeometry x="-105" y="120" width="220" height="80" as="geometry" />
        </mxCell>
        <mxCell id="emPmLsdWe4nNVTF6K-DM-33" style="edgeStyle=orthogonalEdgeStyle;curved=1;rounded=0;orthogonalLoop=1;jettySize=auto;html=1;exitX=0.75;exitY=0;exitDx=0;exitDy=0;entryX=0.5;entryY=1;entryDx=0;entryDy=0;fontSize=18;" parent="1" source="emPmLsdWe4nNVTF6K-DM-32" target="emPmLsdWe4nNVTF6K-DM-1" edge="1">
          <mxGeometry relative="1" as="geometry" />
        </mxCell>
        <mxCell id="emPmLsdWe4nNVTF6K-DM-32" value="Environmental constraints from v5:&lt;br&gt;&lt;b&gt;vibrations, saline mist, temperature range&lt;/b&gt;" style="whiteSpace=wrap;html=1;rounded=0;arcSize=50;align=center;verticalAlign=middle;strokeWidth=1;autosize=1;spacing=4;treeFolding=1;treeMoving=1;newEdgeStyle={&quot;edgeStyle&quot;:&quot;entityRelationEdgeStyle&quot;,&quot;startArrow&quot;:&quot;none&quot;,&quot;endArrow&quot;:&quot;none&quot;,&quot;segment&quot;:10,&quot;curved&quot;:1};fontSize=18;fillColor=#fff2cc;strokeColor=#d6b656;sketch=1;" parent="1" vertex="1">
          <mxGeometry x="-50" y="460" width="400" height="60" as="geometry" />
        </mxCell>
      </root>
    </mxGraphModel>
  </diagram>
  <diagram id="y6_EaLD8uMP1HwzjWR0K" name="hardware-arch">
    <mxGraphModel dx="3062" dy="848" grid="1" gridSize="10" guides="1" tooltips="1" connect="1" arrows="1" fold="1" page="1" pageScale="1" pageWidth="850" pageHeight="1100" math="0" shadow="0">
      <root>
        <mxCell id="MWoTZahm21f5wGESu8r7-0" />
        <mxCell id="MWoTZahm21f5wGESu8r7-1" parent="MWoTZahm21f5wGESu8r7-0" />
        <mxCell id="P5NN8UxaYEoYsG5dYnmy-4" value="" style="rounded=1;whiteSpace=wrap;html=1;dashed=1;fillColor=none;strokeWidth=2;strokeColor=#8A8A8A;" vertex="1" parent="MWoTZahm21f5wGESu8r7-1">
          <mxGeometry x="-200" y="10" width="1130" height="580" as="geometry" />
        </mxCell>
        <mxCell id="WYvArH5Ne-kgaR7D99Rx-76" value="" style="shape=trapezoid;perimeter=trapezoidPerimeter;whiteSpace=wrap;html=1;fixedSize=1;rounded=0;shadow=1;glass=0;sketch=1;fontSize=13;size=52.5;fillColor=#D5E8D4;strokeColor=#D5E8D4;" parent="MWoTZahm21f5wGESu8r7-1" vertex="1">
          <mxGeometry x="17.5" y="20" width="732.5" height="480" as="geometry" />
        </mxCell>
        <mxCell id="WYvArH5Ne-kgaR7D99Rx-38" value="" style="rounded=0;whiteSpace=wrap;html=1;shadow=1;glass=0;sketch=0;fontSize=13;" parent="MWoTZahm21f5wGESu8r7-1" vertex="1">
          <mxGeometry x="215" y="160" width="425" height="220" as="geometry" />
        </mxCell>
        <mxCell id="WYvArH5Ne-kgaR7D99Rx-8" value="Dual Core A53" style="rounded=1;whiteSpace=wrap;html=1;shadow=0;glass=0;sketch=0;fontSize=13;fillColor=#d5e8d4;strokeColor=#82b366;" parent="MWoTZahm21f5wGESu8r7-1" vertex="1">
          <mxGeometry x="360" y="218" width="120" height="110" as="geometry" />
        </mxCell>
        <mxCell id="WYvArH5Ne-kgaR7D99Rx-9" value="" style="group" parent="MWoTZahm21f5wGESu8r7-1" vertex="1" connectable="0">
          <mxGeometry x="520" y="212" width="150" height="140" as="geometry" />
        </mxCell>
        <mxCell id="WYvArH5Ne-kgaR7D99Rx-2" value="&lt;font style=&quot;font-size: 13px&quot;&gt;CPSW3 ETH&lt;br&gt;Switch&lt;/font&gt;" style="whiteSpace=wrap;html=1;aspect=fixed;rounded=1;shadow=0;glass=0;sketch=0;fontSize=18;fillColor=#e1d5e7;strokeColor=#9673a6;" parent="WYvArH5Ne-kgaR7D99Rx-9" vertex="1">
          <mxGeometry x="-9.705882352941176" y="-12" width="115.58823529411764" height="115.58823529411764" as="geometry" />
        </mxCell>
        <mxCell id="WYvArH5Ne-kgaR7D99Rx-3" value="MAC1" style="rounded=1;whiteSpace=wrap;html=1;shadow=0;glass=0;sketch=0;fontSize=13;fillColor=#e1d5e7;strokeColor=#9673a6;" parent="WYvArH5Ne-kgaR7D99Rx-9" vertex="1">
          <mxGeometry x="88.23529411764706" y="-0.0007692307692312994" width="52.94117647058823" height="42" as="geometry" />
        </mxCell>
        <mxCell id="WYvArH5Ne-kgaR7D99Rx-4" value="MAC2" style="rounded=1;whiteSpace=wrap;html=1;shadow=0;glass=0;sketch=0;fontSize=13;fillColor=#e1d5e7;strokeColor=#9673a6;" parent="WYvArH5Ne-kgaR7D99Rx-9" vertex="1">
          <mxGeometry x="88.23529411764706" y="48.45692307692307" width="52.94117647058823" height="43.07692307692307" as="geometry" />
        </mxCell>
        <mxCell id="WYvArH5Ne-kgaR7D99Rx-55" style="edgeStyle=orthogonalEdgeStyle;curved=1;rounded=0;orthogonalLoop=1;jettySize=auto;html=1;exitX=0.5;exitY=1;exitDx=0;exitDy=0;entryX=0.5;entryY=0;entryDx=0;entryDy=0;fontSize=13;shape=link;" parent="MWoTZahm21f5wGESu8r7-1" source="WYvArH5Ne-kgaR7D99Rx-12" target="WYvArH5Ne-kgaR7D99Rx-13" edge="1">
          <mxGeometry relative="1" as="geometry" />
        </mxCell>
        <mxCell id="WYvArH5Ne-kgaR7D99Rx-12" value="4GiB eMMC" style="rounded=0;whiteSpace=wrap;html=1;shadow=1;glass=0;sketch=0;fontSize=13;fillColor=#fff2cc;strokeColor=#d6b656;" parent="MWoTZahm21f5wGESu8r7-1" vertex="1">
          <mxGeometry x="200" y="40" width="120" height="60" as="geometry" />
        </mxCell>
        <mxCell id="WYvArH5Ne-kgaR7D99Rx-13" value="MMC0" style="rounded=1;whiteSpace=wrap;html=1;shadow=0;glass=0;sketch=0;fontSize=13;fillColor=#fff2cc;strokeColor=#d6b656;" parent="MWoTZahm21f5wGESu8r7-1" vertex="1">
          <mxGeometry x="250" y="150" width="120" height="30" as="geometry" />
        </mxCell>
        <mxCell id="WYvArH5Ne-kgaR7D99Rx-56" style="edgeStyle=orthogonalEdgeStyle;shape=link;curved=1;rounded=0;orthogonalLoop=1;jettySize=auto;html=1;exitX=0.5;exitY=1;exitDx=0;exitDy=0;entryX=0.5;entryY=0;entryDx=0;entryDy=0;fontSize=13;" parent="MWoTZahm21f5wGESu8r7-1" source="WYvArH5Ne-kgaR7D99Rx-14" target="WYvArH5Ne-kgaR7D99Rx-38" edge="1">
          <mxGeometry relative="1" as="geometry" />
        </mxCell>
        <mxCell id="WYvArH5Ne-kgaR7D99Rx-14" value="1 GiB DDR4" style="rounded=0;whiteSpace=wrap;html=1;shadow=1;glass=0;sketch=0;fontSize=13;fillColor=#fff2cc;strokeColor=#d6b656;" parent="MWoTZahm21f5wGESu8r7-1" vertex="1">
          <mxGeometry x="367.5" y="40" width="120" height="60" as="geometry" />
        </mxCell>
        <mxCell id="WYvArH5Ne-kgaR7D99Rx-42" style="edgeStyle=elbowEdgeStyle;rounded=0;orthogonalLoop=1;jettySize=auto;html=1;exitX=0.5;exitY=1;exitDx=0;exitDy=0;fontSize=13;shape=link;" parent="MWoTZahm21f5wGESu8r7-1" source="WYvArH5Ne-kgaR7D99Rx-20" target="WYvArH5Ne-kgaR7D99Rx-35" edge="1">
          <mxGeometry relative="1" as="geometry" />
        </mxCell>
        <mxCell id="WYvArH5Ne-kgaR7D99Rx-48" style="edgeStyle=elbowEdgeStyle;rounded=0;orthogonalLoop=1;jettySize=auto;html=1;exitX=0.75;exitY=1;exitDx=0;exitDy=0;entryX=0;entryY=0.5;entryDx=0;entryDy=0;fontSize=13;shape=link;" parent="MWoTZahm21f5wGESu8r7-1" source="WYvArH5Ne-kgaR7D99Rx-20" target="WYvArH5Ne-kgaR7D99Rx-24" edge="1">
          <mxGeometry relative="1" as="geometry" />
        </mxCell>
        <mxCell id="WYvArH5Ne-kgaR7D99Rx-49" style="edgeStyle=elbowEdgeStyle;rounded=0;orthogonalLoop=1;jettySize=auto;html=1;exitX=0.25;exitY=1;exitDx=0;exitDy=0;entryX=1;entryY=0.5;entryDx=0;entryDy=0;fontSize=13;shape=link;" parent="MWoTZahm21f5wGESu8r7-1" source="WYvArH5Ne-kgaR7D99Rx-20" target="WYvArH5Ne-kgaR7D99Rx-21" edge="1">
          <mxGeometry relative="1" as="geometry" />
        </mxCell>
        <mxCell id="WYvArH5Ne-kgaR7D99Rx-20" value="I2C" style="rounded=1;whiteSpace=wrap;html=1;shadow=0;glass=0;sketch=0;fontSize=13;fillColor=#dae8fc;strokeColor=#6c8ebf;" parent="MWoTZahm21f5wGESu8r7-1" vertex="1">
          <mxGeometry x="445" y="360" width="120" height="30" as="geometry" />
        </mxCell>
        <mxCell id="WYvArH5Ne-kgaR7D99Rx-21" value="RTC" style="rounded=0;whiteSpace=wrap;html=1;shadow=1;glass=0;sketch=0;fontSize=13;fillColor=#dae8fc;strokeColor=#6c8ebf;" parent="MWoTZahm21f5wGESu8r7-1" vertex="1">
          <mxGeometry x="310" y="416" width="120" height="60" as="geometry" />
        </mxCell>
        <mxCell id="WYvArH5Ne-kgaR7D99Rx-24" value="2 kiB NVRAM" style="rounded=0;whiteSpace=wrap;html=1;shadow=1;glass=0;sketch=0;fontSize=13;fillColor=#dae8fc;strokeColor=#6c8ebf;" parent="MWoTZahm21f5wGESu8r7-1" vertex="1">
          <mxGeometry x="600" y="416" width="120" height="60" as="geometry" />
        </mxCell>
        <mxCell id="WYvArH5Ne-kgaR7D99Rx-57" style="edgeStyle=orthogonalEdgeStyle;shape=link;curved=1;rounded=0;orthogonalLoop=1;jettySize=auto;html=1;exitX=1;exitY=0.5;exitDx=0;exitDy=0;entryX=0;entryY=0.25;entryDx=0;entryDy=0;fontSize=13;" parent="MWoTZahm21f5wGESu8r7-1" source="WYvArH5Ne-kgaR7D99Rx-26" target="WYvArH5Ne-kgaR7D99Rx-11" edge="1">
          <mxGeometry relative="1" as="geometry" />
        </mxCell>
        <mxCell id="WYvArH5Ne-kgaR7D99Rx-26" value="quadUART1" style="rounded=0;whiteSpace=wrap;html=1;shadow=1;glass=0;sketch=0;fontSize=13;fillColor=#f8cecc;strokeColor=#b85450;" parent="MWoTZahm21f5wGESu8r7-1" vertex="1">
          <mxGeometry x="17.5" y="100" width="120" height="60" as="geometry" />
        </mxCell>
        <mxCell id="WYvArH5Ne-kgaR7D99Rx-58" style="edgeStyle=orthogonalEdgeStyle;shape=link;curved=1;rounded=0;orthogonalLoop=1;jettySize=auto;html=1;exitX=1;exitY=0.5;exitDx=0;exitDy=0;entryX=0;entryY=0.5;entryDx=0;entryDy=0;fontSize=13;" parent="MWoTZahm21f5wGESu8r7-1" source="WYvArH5Ne-kgaR7D99Rx-27" target="WYvArH5Ne-kgaR7D99Rx-16" edge="1">
          <mxGeometry relative="1" as="geometry" />
        </mxCell>
        <mxCell id="WYvArH5Ne-kgaR7D99Rx-27" value="quadUART2" style="rounded=0;whiteSpace=wrap;html=1;shadow=1;glass=0;sketch=0;fontSize=13;fillColor=#f8cecc;strokeColor=#b85450;" parent="MWoTZahm21f5wGESu8r7-1" vertex="1">
          <mxGeometry x="10" y="180" width="120" height="60" as="geometry" />
        </mxCell>
        <mxCell id="WYvArH5Ne-kgaR7D99Rx-59" style="edgeStyle=orthogonalEdgeStyle;shape=link;curved=1;rounded=0;orthogonalLoop=1;jettySize=auto;html=1;exitX=1;exitY=0.5;exitDx=0;exitDy=0;entryX=0;entryY=0.5;entryDx=0;entryDy=0;fontSize=13;" parent="MWoTZahm21f5wGESu8r7-1" source="WYvArH5Ne-kgaR7D99Rx-28" target="WYvArH5Ne-kgaR7D99Rx-17" edge="1">
          <mxGeometry relative="1" as="geometry" />
        </mxCell>
        <mxCell id="WYvArH5Ne-kgaR7D99Rx-28" value="quadUART3" style="rounded=0;whiteSpace=wrap;html=1;shadow=1;glass=0;sketch=0;fontSize=13;fillColor=#f8cecc;strokeColor=#b85450;" parent="MWoTZahm21f5wGESu8r7-1" vertex="1">
          <mxGeometry x="0.5" y="260" width="120" height="60" as="geometry" />
        </mxCell>
        <mxCell id="WYvArH5Ne-kgaR7D99Rx-62" style="edgeStyle=orthogonalEdgeStyle;shape=link;curved=1;rounded=0;orthogonalLoop=1;jettySize=auto;html=1;exitX=1;exitY=0.5;exitDx=0;exitDy=0;entryX=0;entryY=0.25;entryDx=0;entryDy=0;fontSize=13;" parent="MWoTZahm21f5wGESu8r7-1" source="WYvArH5Ne-kgaR7D99Rx-29" target="WYvArH5Ne-kgaR7D99Rx-18" edge="1">
          <mxGeometry relative="1" as="geometry" />
        </mxCell>
        <mxCell id="WYvArH5Ne-kgaR7D99Rx-29" value="quadUART4" style="rounded=0;whiteSpace=wrap;html=1;shadow=1;glass=0;sketch=0;fontSize=13;fillColor=#f8cecc;strokeColor=#b85450;" parent="MWoTZahm21f5wGESu8r7-1" vertex="1">
          <mxGeometry x="-10" y="340" width="120" height="60" as="geometry" />
        </mxCell>
        <mxCell id="WYvArH5Ne-kgaR7D99Rx-31" value="UART2 (ttyS4)" style="rounded=0;whiteSpace=wrap;html=1;shadow=1;glass=0;sketch=0;fontSize=13;" parent="MWoTZahm21f5wGESu8r7-1" vertex="1">
          <mxGeometry x="600" y="142" width="162.5" height="30" as="geometry" />
        </mxCell>
        <mxCell id="WYvArH5Ne-kgaR7D99Rx-53" style="edgeStyle=orthogonalEdgeStyle;rounded=0;orthogonalLoop=1;jettySize=auto;html=1;exitX=1;exitY=0.5;exitDx=0;exitDy=0;entryX=0;entryY=0.75;entryDx=0;entryDy=0;fontSize=13;curved=1;shape=link;" parent="MWoTZahm21f5wGESu8r7-1" source="WYvArH5Ne-kgaR7D99Rx-4" target="WYvArH5Ne-kgaR7D99Rx-51" edge="1">
          <mxGeometry relative="1" as="geometry" />
        </mxCell>
        <mxCell id="WYvArH5Ne-kgaR7D99Rx-54" style="edgeStyle=orthogonalEdgeStyle;rounded=0;orthogonalLoop=1;jettySize=auto;html=1;exitX=1;exitY=0.5;exitDx=0;exitDy=0;entryX=0;entryY=0.25;entryDx=0;entryDy=0;fontSize=13;curved=1;shape=link;" parent="MWoTZahm21f5wGESu8r7-1" source="WYvArH5Ne-kgaR7D99Rx-3" target="WYvArH5Ne-kgaR7D99Rx-51" edge="1">
          <mxGeometry relative="1" as="geometry" />
        </mxCell>
        <mxCell id="WYvArH5Ne-kgaR7D99Rx-11" value="mcSPI1" style="rounded=1;whiteSpace=wrap;html=1;shadow=0;glass=0;sketch=0;fontSize=13;fillColor=#f8cecc;strokeColor=#b85450;" parent="MWoTZahm21f5wGESu8r7-1" vertex="1">
          <mxGeometry x="210" y="219" width="120" height="20" as="geometry" />
        </mxCell>
        <mxCell id="WYvArH5Ne-kgaR7D99Rx-16" value="mcSPI2" style="rounded=1;whiteSpace=wrap;html=1;shadow=0;glass=0;sketch=0;fontSize=13;fillColor=#f8cecc;strokeColor=#b85450;" parent="MWoTZahm21f5wGESu8r7-1" vertex="1">
          <mxGeometry x="210" y="251" width="120" height="20" as="geometry" />
        </mxCell>
        <mxCell id="WYvArH5Ne-kgaR7D99Rx-17" value="mcSPI3" style="rounded=1;whiteSpace=wrap;html=1;shadow=0;glass=0;sketch=0;fontSize=13;fillColor=#f8cecc;strokeColor=#b85450;" parent="MWoTZahm21f5wGESu8r7-1" vertex="1">
          <mxGeometry x="210" y="280" width="120" height="20" as="geometry" />
        </mxCell>
        <mxCell id="WYvArH5Ne-kgaR7D99Rx-18" value="mcSPI4" style="rounded=1;whiteSpace=wrap;html=1;shadow=0;glass=0;sketch=0;fontSize=13;fillColor=#f8cecc;strokeColor=#b85450;" parent="MWoTZahm21f5wGESu8r7-1" vertex="1">
          <mxGeometry x="210" y="310" width="120" height="20" as="geometry" />
        </mxCell>
        <mxCell id="WYvArH5Ne-kgaR7D99Rx-96" style="rounded=0;orthogonalLoop=1;jettySize=auto;html=1;exitX=1;exitY=0.5;exitDx=0;exitDy=0;entryX=0;entryY=0.5;entryDx=0;entryDy=0;fontSize=13;shape=link;" parent="MWoTZahm21f5wGESu8r7-1" source="WYvArH5Ne-kgaR7D99Rx-64" target="WYvArH5Ne-kgaR7D99Rx-26" edge="1">
          <mxGeometry relative="1" as="geometry" />
        </mxCell>
        <mxCell id="WYvArH5Ne-kgaR7D99Rx-77" value="USB0" style="rounded=0;whiteSpace=wrap;html=1;shadow=1;glass=0;sketch=0;fontSize=13;fillColor=#f5f5f5;fontColor=#333333;strokeColor=#666666;" parent="MWoTZahm21f5wGESu8r7-1" vertex="1">
          <mxGeometry x="190" y="352" width="70" height="48" as="geometry" />
        </mxCell>
        <mxCell id="WYvArH5Ne-kgaR7D99Rx-79" value="IHM LEDS" style="rounded=0;whiteSpace=wrap;html=1;shadow=1;glass=0;sketch=0;fontSize=13;" parent="MWoTZahm21f5wGESu8r7-1" vertex="1">
          <mxGeometry x="610" y="62" width="120" height="30" as="geometry" />
        </mxCell>
        <mxCell id="WYvArH5Ne-kgaR7D99Rx-82" style="edgeStyle=orthogonalEdgeStyle;shape=link;curved=1;rounded=0;orthogonalLoop=1;jettySize=auto;html=1;exitX=0.5;exitY=0;exitDx=0;exitDy=0;entryX=0;entryY=0.5;entryDx=0;entryDy=0;fontSize=13;" parent="MWoTZahm21f5wGESu8r7-1" source="WYvArH5Ne-kgaR7D99Rx-81" target="WYvArH5Ne-kgaR7D99Rx-79" edge="1">
          <mxGeometry relative="1" as="geometry" />
        </mxCell>
        <mxCell id="WYvArH5Ne-kgaR7D99Rx-81" value="GPIOs" style="rounded=1;whiteSpace=wrap;html=1;shadow=0;glass=0;sketch=0;fontSize=13;" parent="MWoTZahm21f5wGESu8r7-1" vertex="1">
          <mxGeometry x="500" y="145" width="60" height="30" as="geometry" />
        </mxCell>
        <mxCell id="WYvArH5Ne-kgaR7D99Rx-97" style="edgeStyle=none;shape=link;rounded=0;orthogonalLoop=1;jettySize=auto;html=1;exitX=1;exitY=0.5;exitDx=0;exitDy=0;entryX=0;entryY=0.75;entryDx=0;entryDy=0;fontSize=13;" parent="MWoTZahm21f5wGESu8r7-1" source="WYvArH5Ne-kgaR7D99Rx-85" target="WYvArH5Ne-kgaR7D99Rx-26" edge="1">
          <mxGeometry relative="1" as="geometry" />
        </mxCell>
        <mxCell id="WYvArH5Ne-kgaR7D99Rx-98" style="edgeStyle=none;shape=link;rounded=0;orthogonalLoop=1;jettySize=auto;html=1;exitX=1;exitY=0.5;exitDx=0;exitDy=0;entryX=-0.008;entryY=0.4;entryDx=0;entryDy=0;entryPerimeter=0;fontSize=13;" parent="MWoTZahm21f5wGESu8r7-1" source="WYvArH5Ne-kgaR7D99Rx-86" target="WYvArH5Ne-kgaR7D99Rx-29" edge="1">
          <mxGeometry relative="1" as="geometry" />
        </mxCell>
        <mxCell id="WYvArH5Ne-kgaR7D99Rx-99" style="edgeStyle=none;shape=link;rounded=0;orthogonalLoop=1;jettySize=auto;html=1;exitX=1;exitY=0.5;exitDx=0;exitDy=0;entryX=0;entryY=0.75;entryDx=0;entryDy=0;fontSize=13;" parent="MWoTZahm21f5wGESu8r7-1" source="WYvArH5Ne-kgaR7D99Rx-87" target="WYvArH5Ne-kgaR7D99Rx-29" edge="1">
          <mxGeometry relative="1" as="geometry" />
        </mxCell>
        <mxCell id="WYvArH5Ne-kgaR7D99Rx-94" value="" style="endArrow=none;dashed=1;html=1;dashPattern=1 3;strokeWidth=2;rounded=0;fontSize=13;curved=1;" parent="MWoTZahm21f5wGESu8r7-1" edge="1">
          <mxGeometry width="50" height="50" relative="1" as="geometry">
            <mxPoint x="-140" y="290" as="sourcePoint" />
            <mxPoint x="-120" y="223" as="targetPoint" />
          </mxGeometry>
        </mxCell>
        <mxCell id="P5NN8UxaYEoYsG5dYnmy-2" value="Prod&lt;br&gt;tool" style="shape=trapezoid;perimeter=trapezoidPerimeter;whiteSpace=wrap;html=1;fixedSize=1;rounded=0;shadow=1;glass=0;sketch=1;fontSize=13;strokeColor=#82b366;fillColor=#d5e8d4;size=17.5;" vertex="1" parent="MWoTZahm21f5wGESu8r7-1">
          <mxGeometry x="117.5" y="600" width="57.5" height="80" as="geometry" />
        </mxCell>
        <mxCell id="P5NN8UxaYEoYsG5dYnmy-3" style="edgeStyle=none;shape=link;rounded=0;orthogonalLoop=1;jettySize=auto;html=1;exitX=0.5;exitY=0;exitDx=0;exitDy=0;entryX=0.5;entryY=1;entryDx=0;entryDy=0;fontSize=13;" edge="1" parent="MWoTZahm21f5wGESu8r7-1" source="P5NN8UxaYEoYsG5dYnmy-2" target="WYvArH5Ne-kgaR7D99Rx-77">
          <mxGeometry relative="1" as="geometry">
            <mxPoint x="-52.5" y="429" as="sourcePoint" />
            <mxPoint y="395" as="targetPoint" />
            <Array as="points">
              <mxPoint x="146" y="490" />
            </Array>
          </mxGeometry>
        </mxCell>
        <mxCell id="P5NN8UxaYEoYsG5dYnmy-1" value="test &amp;amp; prod header" style="rounded=0;whiteSpace=wrap;html=1;shadow=1;glass=0;sketch=0;fontSize=13;" vertex="1" parent="MWoTZahm21f5wGESu8r7-1">
          <mxGeometry x="110" y="490" width="72.5" height="30" as="geometry" />
        </mxCell>
        <mxCell id="WYvArH5Ne-kgaR7D99Rx-35" value="GPIO Expansion&lt;br&gt;Card" style="shape=trapezoid;perimeter=trapezoidPerimeter;whiteSpace=wrap;html=1;fixedSize=1;rounded=0;shadow=1;glass=0;sketch=1;fontSize=13;strokeColor=#82b366;fillColor=#d5e8d4;" parent="MWoTZahm21f5wGESu8r7-1" vertex="1">
          <mxGeometry x="425" y="520" width="167.5" height="80" as="geometry" />
        </mxCell>
        <mxCell id="WYvArH5Ne-kgaR7D99Rx-51" value="Ethernet Transceivers Card&lt;br&gt;&amp;nbsp;(1x or 2x)" style="shape=trapezoid;perimeter=trapezoidPerimeter;whiteSpace=wrap;html=1;fixedSize=1;rounded=0;shadow=1;glass=0;sketch=1;fontSize=13;fillColor=#d5e8d4;strokeColor=#D5E8D4;" parent="MWoTZahm21f5wGESu8r7-1" vertex="1">
          <mxGeometry x="750" y="212" width="190" height="122" as="geometry" />
        </mxCell>
        <mxCell id="WYvArH5Ne-kgaR7D99Rx-64" value="RS485&lt;br&gt;or RS232&lt;br&gt;&lt;b&gt;Tranceiver Card 0&amp;nbsp;&lt;/b&gt;" style="shape=trapezoid;perimeter=trapezoidPerimeter;whiteSpace=wrap;html=1;fixedSize=1;rounded=0;shadow=1;glass=0;sketch=1;fontSize=13;fillColor=#D5E8D4;strokeColor=#D5E8D4;" parent="MWoTZahm21f5wGESu8r7-1" vertex="1">
          <mxGeometry x="-180" y="70" width="167.5" height="58" as="geometry" />
        </mxCell>
        <mxCell id="WYvArH5Ne-kgaR7D99Rx-85" value="RS485&lt;br&gt;or RS232&lt;br&gt;&lt;b&gt;Tranceiver Card 01&lt;/b&gt;" style="shape=trapezoid;perimeter=trapezoidPerimeter;whiteSpace=wrap;html=1;fixedSize=1;rounded=0;shadow=1;glass=0;sketch=1;fontSize=13;fillColor=#D5E8D4;strokeColor=#D5E8D4;" parent="MWoTZahm21f5wGESu8r7-1" vertex="1">
          <mxGeometry x="-200" y="142" width="167.5" height="58" as="geometry" />
        </mxCell>
        <mxCell id="WYvArH5Ne-kgaR7D99Rx-86" value="RS485&lt;br&gt;or RS232&lt;br&gt;&lt;b&gt;Tranceiver Card 14&lt;/b&gt;" style="shape=trapezoid;perimeter=trapezoidPerimeter;whiteSpace=wrap;html=1;fixedSize=1;rounded=0;shadow=1;glass=0;sketch=1;fontSize=13;fillColor=#D5E8D4;strokeColor=#D5E8D4;" parent="MWoTZahm21f5wGESu8r7-1" vertex="1">
          <mxGeometry x="-210" y="310" width="167.5" height="58" as="geometry" />
        </mxCell>
        <mxCell id="WYvArH5Ne-kgaR7D99Rx-87" value="RS485&lt;br&gt;or RS232&lt;br&gt;&lt;b&gt;Tranceiver Card 15&lt;/b&gt;" style="shape=trapezoid;perimeter=trapezoidPerimeter;whiteSpace=wrap;html=1;fixedSize=1;rounded=0;shadow=1;glass=0;sketch=1;fontSize=13;fillColor=#D5E8D4;strokeColor=#D5E8D4;" parent="MWoTZahm21f5wGESu8r7-1" vertex="1">
          <mxGeometry x="-220" y="390" width="167.5" height="58" as="geometry" />
        </mxCell>
        <mxCell id="P5NN8UxaYEoYsG5dYnmy-7" value="" style="shape=image;imageAspect=0;aspect=fixed;verticalLabelPosition=bottom;verticalAlign=top;rounded=1;dashed=1;strokeColor=#8A8A8A;strokeWidth=2;fillColor=none;image=data:image/jpeg,/9j/4AAQSkZJRgABAQAAAQABAAD/2wCEAAMCAggICAgICAgICAgICAgICAgICAgICAgICAgICAgICAgICAgICAgICAgICAoICAgICQkJCAgLDQoIDQgICQgBAwQEBgUGCgYGCg0NCA0NDQ0NDQ0NDQ0NDQ0NDQ0NDQ0NDQ0NDQ0NDQ0NDQ0NDQ0NDQ0NDQ0NDQ0IDQ0NDQ0ICP/AABEIAUECAAMBEQACEQEDEQH/xAAeAAABAwUBAQAAAAAAAAAAAAAAAwUGAQIEBwkICv/EAGwQAAIBAwICAwUODgoPBwMDBQECAwAEEQUSITEGE0EHCAkiURQyUlNhcYGRkpOxstHSFRcjM0JUVXJzdKGiwdMWJCY0Q2J1lMLiGBklNkRjg5Wks7S11OHwNUWChIXDxDej8WSl4ydGVmXy/8QAGwEBAQEBAQEBAQAAAAAAAAAAAAECAwQFBgf/xABBEQACAgADBAUJBQYGAwEAAAAAAQIRAxIhBDFBUQVhcZGxExQygZKhwdHhFRYiUvAzQmJygqIGI1OywtI0Q/Ek/9oADAMBAAIRAxEAPwDqnQBQBQBQBQBQBQBQBQBQFKA80d8d307adOun2CJLeOpd3fPV28QODI4GGZi3iqgIzg5PnRXSMbB56vu+O1MkmS6ck8fEjhVfYDK5A9ck+rXXyYGmfvnNQX/CJvcwfq6eTA03Pfbaiv8AhE3tW/6upkA2XPfn6kv8NMfWFv8ApirOUqGq47+TUh/DT+1bfqqZS0N83f8AWpL/AAlx/o36qplFGBL4QfUx9ncf6N+qpQoQbwh2p+mXHtW36qrYotHhEdU9HP7Vt+qqWKK/2xLU/RXHtW36qstii0+EQ1P0dx7Vr+qrGYUJS+ES1Tskuf8ARf1VMwox28Irqnplz/ov6qmYUJP4RjVfTLn/AET9VUchQkfCM6r6Zc+1afqqzmGUSbwkGq+mXPtWn6qrnLlEW8JHq3plz/on6qpnGURfwlGremXP+ifq61nQyiMnhJ9W9Muv9E/VUzoZRF/CU6t6bdf6L+qpnRMpYfCV6t6bdf6L+qpmRKLP7ZTq3p137HmX9VVzIUJHwk2ren3nt236qlotCTeEh1X7YvPdW36qlkosbwjuq/bN97q2/U1cwoSPhFtV+2r73dt+pqWKEm8Ifqv21f8Avlv+ppYoTbwhOqn/AAvUPfLf9TSxQm3hBNV+3NR99t/1NLFCR7/vVPtzUffrf9VVzgTbv8tTP+F6l7/CPgjq5yiLd/TqJ53WpfziL9XTOBJ+/fvzzudS/nSD+hTOBFu/VvvtjU/52v6FpnAi/fmXp/wjUv54Pm0UwWHvxrz7Y1L+ef8AKmcFv9mLe/bGpfzz/lUzgp/ZjX32zqX88/q0zAP7Me/+2dS/nv8AVpnBT+zI1D7Z1L+e/wBWmcCid+hqIxi61Eer5qBP5UxTMD2H3inhGLm51KLSNRkmliuMrbSzEPJlVLFXZRgMEVnHEK4UrhWKB82SjqihqkLqAKAKAKAKAKAKAKAKAKAKAKAKAKAKAKAKAKAKAoaA5hd3KY/sg1Ek5PVW/E+Q5OPWzxrthg15qN3XqW4EZ1G758aypWCM6jcVHTFEavbnnXNoq0IzfXVQ0Mt3PUNDXI9YAg5oCzdWM4DdTOChNYbBjytUBiMaWgJO1RsCEj1AIs1AY8j1gpiOaAx5DQISLVS2JE0IW5pRBMtXWmLLahkKAM1QFQBVAUoBQBSmAqAKoCoAoAoAoAoAxVBULSgUFQG0+9bYjpFo2CR+34B7GSCPWIyPWNaW8j3H0haJ9Zi/BR/EFUyZ1AFAFAFAFAFAFAFAFAFAFAFAFAFAFAFAFAFAFAUNAcue+Hk29IdQH+ItvhevRhA1bqF1zr0oEB1aOWW5KLJKkaxKSEfaNzswyfqchY8OI4AAE+v9DYdljjxbcJSd6ZeHb8jz402qqSj1sll93J7THDVJ3J6vgWwAH6reeMWfqW98gcWERI5iv0Ueh9nenkpLf+/yvxr3nyXtmIlamvYEOlPcWsoY98WpvdtnHVxl1bHostD2jljnWcPobZsSVSw5Ldrn5lnteLH99P8AoFrvveNO4f3WDHLKRuc7WBYLllhZCpwGLKTgHt7cLobZ3/68Sv5jXnOL/qR9n6DbqPcA09UdlvzMyqWCI7AtgHgC8YAJIxgZOCPVqx6F2VtJ4c1/UHtWKt04v+kjH0obX/H++j9XXt+7+x/xe0ef7Qxua9j6Ae49a+Sf35f1dPu/sf8AF7RPtDG5r2C36Tdr/j/fh+rqfd3Y+UvaH2hjc17H0KfSetP8f78P1dPu7sX8XtD7Qxua9j6B9J60/wAf78P1dPu7sX8XtD7Qxua9j6Fv0mrP/H+/D9XU+7uxfxe0X7Qxua9j6Fv0l7PyT+/D5lX7vbFyl7RPtDG5r2PoU+krZeSb34fMp93di5S9ofaGNzXsfQoe4pZeSb34fq6n3d2LlL2i/aGNzXsfQp9JOy9DN76vzKfd3YuUvaJ9oY3Nex9Cn0kLH0Evvq/q6fd3YuUvaL9oY3NeyUPcOsfQS++L+rqfd3YuUvaL9oY3Nex9Ch7hlh6CX3xf1dX7u7Fyl7RPtDG5r2PoU+kVYelye+L+rp93di5S9ofaGNzXsfQPpFWHpcnvi/q6fd3Yv4vaH2hjc17H0KHuEaf6XL76v6un3d2L+L2vqPtDH5r2PoUPcG0/0uX31fmVPu7sXKXt/Uef43Nex9A+kLp/pcvvo+ZT7u7Fyl7X1Hn+NzXsfQD3BtP9Ll99X5lPu7sX8XtfUef43Nex9Cn0hNP9Ll9+HzKv3d2L+L2vqTz/ABua9j6B9IPT/S5ffh8yp93di/i9r6l8/wAbmvY+gfSE0/0E3vw+ZT7u7Fyl7Q8/xua9j6FPpB6f6Cb37+pV+7uxcpe0X7Qxua9j6Ae4Fp/pc3v39Sn3e2P+L2h9oY3Nex9A+kFp/pcvvw+ZT7u7Fyl7RPP8bmvY+hT6QOn+lze/f1Kfd7YuUvaHn+NzXsfQr9ILT/S5vfv6lPu7sXKXtDz/ABua9j6FPpA6f6XN79/Up93ti5S9oef43Nex9A+kBp3pc3v/APUp93ti5S9ov2hjc17H0D6QOn+lze/f1Kfd7Y/4vaH2hjc17H0KfSA0/wBLm9//AKlX7vbF/F7Q+0MbmvYH/oX3tmkzSlJllVdhKk3JjXfkAbmWNiFGSSQp9auGL0DskFcc2/8AMbjt2NJ1p7NfAk9v3q2gG3d3W7WfPixi4dx9c2AMer8UBfqmWAO0jhjNcX0Js+eqeX+Y6+e4tWqv+Vb+vQi/fGd7roem6U91pzSyThUDLLMZFQmWNG4bApYqWkVkJChT2Zr+Z4OLjzxpwnhSjBKTUnGSVqcYpW0k2021TP6L0h0dsuBskcXCxVLEzQWVTi3Uott5U8yytJO0eN69Z+XNq96wP3RaP+PRf0q0t5HuPpB0X6zF+Cj+IKpkzaAKAKAKAKAKAKAKAKAKAKAKAKAKAKAKAKAKAKApQHLHvnH29Ib78Xt/hevThcQae1G6513sG/u9D0i2e31e7u5Y4beyKSTySRxuscPVbpZMyqyxmNYyTIwYKpYkdo+RtTyyjV9ie/X3npwp5U9Fqmtevj2rgendG6W6WgtdRjvJmt77EFvExLwyMG6oFYTGWVoj55ozgKC5BHGvHnt1r73XaZpVpQhFFYvd3NsmqXfWwxyzXMayL1cKKQjlnaEsm0oSApwSHOSc1lYyk3FS1XC9Q9FqJ90jpvpaRW97Lf3EEN0RDD5kGA4VwzSGJ4sqo4BpMAhWXHnga609zu+sJ2P2sS2tssFlNdXRe+kIgnxmUMoU465IgsaHhjeOJJ4UVvdbrrC/WiLBf2qw3tsbi8le2KdbJtXzSCGWMC2ZY035fCkYG4k8wQaVLR695TC0qO0WO1uxf3rQ3LRRxiRo9ucthJlaENH4x6t8ndkqOQ4PxXWoHLVLa2e/I82XEMsGJ3t1ZBbSIi5dQrRHcFUjrFUjGV5niGtcQjO1Lum2UdoL0jdCW27UhZ5t25g46lI3c9WFeWTAIWJGfLADPRYU1d2u1mW64Dnf9LLaJoRIAqzhtkvVEwDGzAkm2bYzJ1i9WH27/G5bSKLBlK8rbrr19QWqGqw7rGly6lPo8dzbNqVtEJp7QD6pHEUik3H6ntICTRMQGLDeuQK461etdpSTLeRbVcBCrnarbOBPZjxPOnsbkcetlfW+8ouXTdsxHvxnbtGQPKfEwB6vqetnK7X3kGfpL0strS3a5mA6pWVcpFuYs7BQFXaM8TzzjAJz2Vb633mlFydIs6U9MbWziWafaI2ZFUrGGJL42nzoVV8Zcl2UDcK7YOHPFllhd1e88uPjxwF+JNtukkrsx7Pp9ZveSWGNtzHCtxh4dqSxMu7dBJtIl2DzwHEcMZ4kblgYkcNYv7rdb9U+TR6DD03upWM0BuIkkeMSrEQtqxk3su8YjCZK7SDu5DPl4V1ex4qmsN+lTe/TR1zA4dLOndlYwR3N08cUMs1rbxsY8lpbySOGBdoQkbnkTcTwRdzMQqsR5owlKWSOslb38k2/cg6QqemNn5tbTt0fmxbYXZhETfvdnaNZOs6vquLI2ED7sDOAONZp5c+uW638SmPZd0Kwea6txLCJrMM1yjoY+rReDSZeMB0U83QsBw8ozp4ckk9XeirnyObnG6tKtXdbuZXo/wBP7C6hW4hkiaF5WhR2jaMNIoDEKHjBPAg7gNp8uQRUlFwdO7LFqStbh6N9DvMX1LrApYptG7aMHONvqg884PKud9b7zZgL0qtDK8KPDJKglLxxhZHXqQpkUqqkq4DqQrAFuOM7WxrWr1rtFMt6KdKre9t7e6gQiK5DGLrYTDIQpYHdG67l84SM8wVI4GuUMTNFS1pq+IofPM49AnuR82t5utkoPM6+gT3I+bTN1vvKHmZfQJ7kfNqZutkDzOvoE9yvzaZutig8zL6CP3I+bTN1vvAeZ19AnuR82mbrYKeZ19AnuR82mbrYK+Z19AnuV+bTN1sB5mX0Ce5HzaZut95Q8zr6BPcj5tM3WyB5nX0Ce5HzaubrYA26+gT3I+bUzdbBTzOvoI/cj5tXN1sCeo6eJUkjPiq4Vcx4RkAAB2OqBgWxknORk4xXVYtcWZynlzwmlgo6Hao4yPG0uMJnxAF1CA7wNo8duTNnJFdoYuZ1b7zDglwOI9dSm1u9XH7otI/HY/getLeR7j6QdH+tRfg0+KKpkzKAKAKAKAKAKAKAKAKAKAKAKAKAKAKAKAKAKAKApQHKrvsZgOkN5+Ag+F67QBo3UbrnXQyeru8DuYfMusifYYpJreF0kCskgaByUZWBDBlzlcEEA8K+ftK/Euw7R3Hqea801UjVltVjgJMQaONUhLEZKZQKhJAyRtycV5cr4XZ0VvRbzMOtWZ38YvqoxIQi5kB57yE8YH1c1MvO7JdmLC2nKixrHbiNGLoghTarHmyr1eATgcR5BVrtFmfP0ltmGGeNhnOGUHjnOeKcDnjRRrXUWWzdILRiSzRMWG0koCSMg4J2cRkA4PaBTLw1FmJNPp7BFZLcrGSUBhQhC3nig2YUtjiRxOKNN8xY36Nq0L3ICWcSm5eZZZh1e4gIpXeOrBlM+H4Z8UJg5yDUqleoHvozqAlS0yiKtzYx3ErxtGsaySQhjBtPl3sgLnkcHOTXRYU0rWNq+Dgn77DnD8v9zMdukLMjJJp10VIyUMmnOjduCGuRxz5RgYzmuPkcW8yxdf5Ev+RtTil6PvZeJY0lSVdOk6yVQ8kyfQ7rEdwqOsr9eGLBURWKlwVVACcACPZ8Wq8r/YvmM8Py+/6DpdyyidUSSEwYcNITGGUqGCKAX5MQoztwAx9SvXHBgo/ilb7r+Bxcr6hnXWrzaxa2TeFUbVubNg5ONyqxKnaMscsF4Dlk8Zkw1z718iW+fuF9WuNyxxssc0byqkqMsDpGgMfjEFtpKZYg42nqiBgstc5xgqrX1/Q74KzZs0kqWmm/q6uXrvgIzXk7s8clvG8W8hX66yZHRThG2MwZWOAdgB2gjicEV2iox1TfqZwzPn7jP0SQPtknjiilVdqqzW7uiZYALJGSNpGfE7MnhxrjP8OkW9es1Fvj+veNi6uu94Tp5SMMSJi1mYGKg7Xws3WDdgBcx58Zc444RcnJNt95W9N4hc688gCTaeGUNGyhp7CRFZGGHw0gx1fBkZQSSr+cwu/v5KK4vvRzz3xXvJt9D7Mv1puYOtMfVGTEfWdXuLdUW3Z2ByW25xk59UzycKq3Xb9BmYwa/qMcc6LGIZ1lQrLNiLxV9LbxtzBuHDiME5r0Q2bCeHKTnTW5WvkcniStKt9EfPTQqNqCEbHQBQkQQKyyFimJco0TKEbrFVTvUg88c1gQe++9fI6ZmktxJOjmviZWZygIwvExq3HIZSVkdWHihgVI4MuQCCB5MWCjWW918DopGZaWVtGzPGsCM7MzuvVqzM2NxZhxJbAySeOBXHXcbsWjaEBQrRKE86FZABzHAA4HM8qlUBU3sfo4/dr86lAqt9H6NPdr86lEKi+T0cfu1+WrTLZTzYno092vy0oZkBvI/Rp7tflqDcU82p6NPdr8tBZd5sT0ae7X5atMl8w82J6NPdr8tKCafEt82p6OP3a/LSmCvm2P0cfu1+dSu0pTzbH6ZH7tfnUrtBUXqemJ7tPnVC2Hm5PTI/dr86lEuw82p6ZH7tfnUr9UDy74TO5U9C9VAZSeu07gGUn/ALQt+wE13wfSMSehxCr2mTbHep/3x6R+Op8V6q3ke4+kDSB9Si/Bp8UVTJl0AUAUAUAUAUAUAUAUAUAUAUAUAUAUAUAUAUAUBSgOTnfhyY6RXn4vB8aSusSNmg9Qua2N57J8Gs+5rn+UYh/+2XlebEf412HTgeuO6vpcUenxxTTXNwDdDETbJHumPWssEnWFIuqQZfEpCDqk47tlejCdytHNNKUbk4671emj5ajPqms6ZHZWZuNX1GNOoUpJFJdxyOu+Qq0yxK0hI2NE2/nsCnGQG5T9JkwvQVO1ze/36jjpXR+ykuDbx6prDSoOqKNeXmA0eyUks4CliqgF+O5XYA8eGDq2zcaxjyf9ezxqmCuweSgDYPJQEN7oK/VNP/Gz/s09cMbcdIHmroLbL5itMqpzbxZyoOfF9avVD0UYbHzzKnoE9yvyVqiGNPYRsygohG1uG0ep6grjKKclfJnqw5uOHJrnHwZd9B4fSk9yKvksPku8z5xi8/ASudKiAyI0zlfsR6IVieHFL8K108Ttg42JKVN2qfLkzM8zL6Ffcr8lejieG29f1vEW0mI8eqTJ5+KK5vDg96R2WPiJUm69XxKDSIvS09yKnk4cl3mvL4nPwIwdYO+RfobJtjMnjspCuqBzmPCncW2DavNi6gZ5VPJR5F8vifm8BTWdS6ma2WOyZxJxLqg4ZU5XHYy53Nu28AfYqw4pppB485Rab0dcORKvMq+hX3K/JXU8wi9su9fFXzj/AGI8qepXJpZ12P4Hoj+zb/ij4SC8t12nxV7OweUepTF1iTA9Ndj8CM6tq3VzdUumzSruQdciAx4YKS2ccQmcHGSSCOw4jwo3uNeXxPzeBTpDqgiihkjsmdnkUEbMGPD4AYEbgXxhfFCnPEjhm+TjpSC2jE1V6VW4lkcCkAlFGQDgquRnsOOHD1O0V0pHmsr5mT0Ke5X5KUhZFJOlTiRk+h021Sw6zq/FYLnBTCHduxw8ntA5pFFOkGqlJraMWjSpIclwgAXIPAcvGTzzbyox2nHCSgpbzpDElC8r3ruJD9B4vS09yKnk4cvebePic/Auj02NeIjQf+EVpYcVwMSxZyX4m+4svrZNh8VfsfsQPsh6nkrGIll3cvFHTZ/2i9fX+6xi1y9EMgjTT5JwVB3xKu0HJ8XLYAPDtYD1RVeFG9xmO0YjXpeHxMHWta6uKORLByxm2FSmCu1hjPDJ35wpClCcjdU8lH1m1tGIuN6PkTBIFIB2KCQCQVXIJ44OMjI5HBPGutLkeUu8zL6FPcj5KUgHmVfQr7kfJSkLEZrZd0fir54/Yj0DepXOSWaP64M9GH6E31L/AHIW8zJ6BPcj5K6UjzpsQe2XeviJ51vsR/F9SsUs6Xb8Duv2cn1x+Jrfwh3RQJ0H1K6Dses+hadXgBEA1C34qAOBPae3hnlXV4qeGoZdVxPLlea7OLFeY6m2O9T/AL49H/Ho/gatLeU+kHSvrUf4NPiiqYMqgCgCgCgCgCgCgCgCgCgCgCgCgCgCgCgCgCgCgCgOSPfrSY6R3f4CH4z12iU8731zWio9r+DEkybr+U4/913deXE9NdhXuPY/d30u7ltrbzJJ1ci3QbAjikWXKSqsUglil2ozFctEFk4YDYLA+jCnlesbvTTeuvevfprqeTHw5zX4JZWnfDWuDtPR8a1rc0yvRPVNVls7WSO006J2ifrI3eSOON+uba0XVpIXidMPyQljnhnAxNVJ7/XvOmFmyLylKfHLbV9TaTa9S+BMuiRvCGN7FZxuG+p+ZJJJRtxjxjLFEQ3HHi5GD6prB1ZJaECgCgIZ3Qvrmn/jZ/2aeuGNuNx3nmvoH+8bP8Xi+KK9UPRRlj/WiCD+fX71v6Nc36a7H4neP7OXaviL10OAjeed9lfjCueJ6Pd4nowPT9T8GLGup5lu/XNhUKFARr6YEPWNGEnLKZAx6sKgEW7e25nUbQFJzzxis2KGrpF3Tkhmjj6l2yI5M7gvCVSACpBIK7uPE5qNarqb96OkZZVJPfJeEkyc1s5iEnn1+8f4UrH767H8D0R/ZP8Amj4SK3nnT66/GFZxPRM4Hp+p+Axat0/ghl6l1nL70TKwsyAuoYEsDgKAfGbswe3hXVvU5UNnSzukxwLEerdxLuYHcqY6qQA+iBDY4MDyrEtVpwaNwllfqaXriyY2dzvRXxjeqtjnjIBxnh5fJWzmLUKQ+27pKs2PMt2o4+M6KoyDgAeNkk9nDHq8RUAl0p7oy21ykBiZz4jFg6qMS8AMEZ4e1WWra7TcZKKa56eBNmXBx5K2cylAIX3nT66/HWuWL6Pd4o9Gz/tF/V/tY0670xitnWOQTFmGR1cTSDmRx28eY5AEnhiurPPHcR/pD3VYo1jZYpHDljxIjIMexiMHd2OBxwQwYEZFc5q160dYSUG2+TXeibWV1vRHxjeivjnjeobGeGcZxXU5bhc1ARKDul2zEgLONuSd0W3txgbmGc8MeXkOdSy0IdKe6EttcpAYmcgqdwcKPqgZORBPDOc9vt1Grku34M6KeWM1zpf3ImZrSOQi/n1+9b+jWP34+v4HdfspfzR+JEPCNf8A08vfv9M/3hb1zRxOHVQ0bY71L++PRvx6L+lWlvI9x9IWmD6nH94nxRVMmTQBQBQBQBQBQBQBQBQBQBQBQBQBQBQBQBQBQBQFKA5E9/PJjpFdfgYR+Vq6xB5rvrmtmz3J4Ll8+a/5Uj/3VdV5cT012B7joT0q6JR3cJhfgpZXzgMQVO4EbuAOeGRxAJxjNazTjrhyyvmq+JjTiMupdx6znigimWVhbIscbRzz2zBEIKA+Z5IwwGBwIIqJyesncuL5lsU6O9yGytJI5IFnVoi5Tfd3Uo8dCjBhNM+8bScB92CARggYobJpQgUAUBDO6F9c0/8AGz/s09efG3HSG882dAj+0bP8Xi+KK9UPRRhj9WyCD+fX71v6Nc36a7H4neP7KXbH4i9dDgIXnnfZX4wrli+j3eJ6MD0/U/Bi9dmeZbv1zCoUKAaJullqrFWniDBijAnzpB2sG4YXicEscZqaCmYWranZiWDrDCXlwyFlUkqVOwlscFJK7ScDPKo7bT63fdodYtJST4rTvTfuJJitWchCTz6/eP8AClc/312P4HdfspfzR8JBeedPrr8YVMT0SYHprsfgYN/0pton6uSeJH8XxGYBstjbwx9lkY8pNdXRxMHX9Ys+rjeVoXVnCIxCuDhwH24B8VSDuI8UY51iSvdzR1w2lK3yffTSJBFjA24xgYxyx2YxwxjHKtHIvIqgM0BgXumRs6M0cbNnmyKWwAcDJHZ2Vzk9Y9vwO2H6M+xeKM8muhxKUAjenxT66/HWuWL6Pd4o9Gz/ALRf1f7WY2pa9BCwWWWONm4qHYKSM44Z7M+t2+rXVnmW4Z9Z6RWLIrvJbyKJFQN4smCdjsucHHiMjN5Ay5rEtVpzR2w2k3e6n31oSaPGBtxtwNu3G3bjhjHDGOWOGK3ZyKmqSxlbpnZjncQDHMlgBzPMngOIPAnjWTWonrt5apPCs3VCV2IG9VLedYLuJGVG7AUkjxqju0+v4HSMkoyve6rvT8Ex/qnLQQfz6/et/RrP767Gd4/s5dsfiRDwjX/08vfv9M/3hb1zW84nDqoaNsd6oP3R6N+PRf0q0t5WfSFpv1uP7xPiiqczJoAoAoAoAoAoAoAoAoDDvtVSPz7AcCfYHMnyD1TgerQEFve+D0eNismo2SMpwwa7twQfIR1nA+oatFqxsn76nQF56tp4/wDNxfoJpRcrMKXvv+ji89X0/wBi5U/ADQlMwX79bo0Dx1ex9/z8CUFMxp+/l6MD/vazb1pT8ypoKZgP3/PRof8AeNsf8qP0irQorH3/AB0ZPPU7QevcRD4SKEHjQe/Q6PXLiODUbWWRuSR3EDMfWXrASfUpQNxaLr8Vwm+Jgw7ewqfIwPEH8hHEZqAcKA4/9/vLjpFc+rFF/SrrE0jzBezVsp7y8FY+RefyrGP/ANpuflrzYvprsK9x0tFU5laAKAKAKAKAhfdD+uaf+Nn/AGaeuGNuNxPNvQL942f4vF8QV6o+ijL3j7WiCL+fX71v6Ncn6a7H4neP7OXbHwZdLdovnnVfvmA5+ueXA8a6nAx9RvEVNxdQu5RuLDbksABnOOJrniej3HbBaUrfJ+DM2urOC3BUKFANI0u03ltluZCXLHEZYlgd5bmcsN27I5Zz21V1gR1bSrcyW+6OHerFYg+1eCo2FUdoXhhcHGOHKuUsyqus74eRqWe9yarXj1jrl/Intt82n4urvH+Xzl3R+YJG27J2jCkcCSckr5QPJRJ5k317uuvkVzhkcY3vT1SW6+XaF550+uvxhUxPRM4Hp+p+Bg6jo1qzF5YoC+BueQJuxjapJbiBjgCewY7K7M5WY+uaXbGJQ6QbFlXYDtVA7OMgYwBuycgcDk8OVc5Wl+HmdMLK5fj3U67R2w/YE9bJHrYG3h5Kn4urvNPyfOXdH5lOtYFchcE44Ek8ie1R5KZmmrS15djfwKowak4t6K9UlxS4PrMiuh5xGbzyffH4prnLfHt+DO+H6M+xeIrXQ4BmgEb7zp9dfjrXPF9Hu8UejZ/2i/q/2sxr/TLeRgZY4pGTlvCsVHnvsuQ4Z9bJ5ZrpvPOtw3axolp1Y3RW4QyIRlVRS52pzXGSVVVPlVQDnFc56L8O87YSi5fjelPwHsb/ACIMcAAWwAOwYXlT8fUT/L5y7l8WUMrArkLhm28CSeIJ7R6lTNJVaW+jooRkm4uWivcvmNf7HrIfwNtnBGCqeU5BB4ZBJzniDnyGup5rZdrVhC0tu0ixNLvbqzJgMcIx4cy2DxHBgDx8mec3LTLzO2GoOMs97uHO0OeX8ie23zatzvh3h+T5y4cF8yixtuBO0YBHDPHOPKB5KzUnJN8CucFBxV6tPWluvl2kQ8I0P/6eXv3+mf7wt6zxZxOHVQ0bY71P++PRvx6L+lWlvKz6QdM+tx/eJ8UVTmZVAFAFAFAFAFAFAFAFAeL+++6dSm/sdMWR447ySV5thKl4oNoWLI4hWZsn1zwraQNa2/c5s3Yhkt4lCjBaFn3HJyBs7RgZLHJzXpw4wcblKmfLx9qx8PFyQws0avNfHlX1ErjuaWYzwtj6otJvlrr5LB/P7jxT2vb2/wAGCvW380NV93PdOA8Z4V9azk/S1dY4Wzfnf69R4JbV0vwwYL1Sf/MiOt9B9GHO5x5cWjcPy1ryOy8Z+48/nvTXDBg/6X/3IRqnQbQTndqjx+qLFjj8o+GsSwdl/O+76GltnTS34MfYf/ciGr9z/o7/AP5MYvvtKkbHtSCuDw9neim+4+jhbX0o1rgR7pL/AJEbPcu6POcfs6gi9RtFmP5fNA+CvP5LDT0n/b9T6kNo2rL/AJmCk+qX/wBNY90K6g0m8g+h2tRa1HsEjzR2jWoicN9bwzybmxxyGx2Eca5zUYv8Ls9eBiTxE88MvruzsT3kfdbXVrS1uEG1+qe2ulHnTLAquHXyBlZWxxxuNG7R3Z6wrJDj14QV8dIZ/Vii/p10iaR5Xup81qzVHvvwUj5F7/K0f+6LivPielF9XxD3HTIVo5laAKAKAKAKAhfdD+uaf+Nn/Zp64Y243E829Av3jZ/i8XxBXqj6KMvePtaIIv59fvW/o1zfprsfid4/spdsfiN+p9EIJn6ySPcxCKTlhlUO5QQDjg3HynFbOCMHpF0Qt5IRE42qJC6jftwztl8Zx4pyeGPFHLFZk6Wh1w4qUqe7XwJDbxKqqq+dUALxz4oGBx454dueNbOKL6FKg0BG/pbWm5n6khn63JDOM9cGEh4H7IMfW4Y5VKLqV6QdF7eWaCSTz8ZwB1m3IALDIz2MBxGCfVrLlTS53fqRuMVJSb4LTvSJFitnMrQCF550+uvxhXLF9FnfA9P1PwGzWehFtcP1ksId8KNxLZAQsVIAOAQWPH1a6vecDB17oZbPGkb5UJLvX6oVOXcbxxPEHPrjsxmsydd6950w4qTp8n3pWSWJQAAOQAA454dnHt4Vo5CdwOKff/0HrnP93t+DPRh7p/y/8oi+K6HARm88n3x+Ka5T3rt+DO8PQn2LxFTXU4BQCN950+uvx1rli+j3eKPRs/7Rf1f7WNuo9DLeVzJJHuZiNx3Ng7UeMZAIGAsjDHLJB44FdaPMtxg9IOhts8UUTgqsbgoOsIIDvluJPEHd2jIzwI51iUsq0OuHHM/U2SWJQAAOQAA454AcOPbwrZzE7nmn4QfA1cp712r4nfCWkv5X4oY5O53alnfqjuk37yHcbt+7dkZx9m2PITw4iulHGymtdGLeSa3eQ+PGcD6pjIVCVDDOeDAcRgntznFRumkv1obhG4t8V80viSPNaOQGqUgvhGblfpfXy7l3BtMJXIz/ANoW/ZXLK99aC1uOHwrmbRtfvVf74tH/AB2P4GrS3lZ9IWl/Wo/wafFFU5mVQBQBQBQBQBQBQBQBQHgXvuxjpLovqi9+PHW0Uhrl7nULm3eWZILW2s3VIJXgMkt2bku8skRWRlRIUWOMMqAl2IclNtIK3/QC3I4vek/yjf8A6LkUotkE6caOlvDLNC86SRKZFLXFxKrbPGKOk0joyuoKnxcjdkEEA0ZURPpNc8DUYo1L0iuOdZYNU9JZ+dYZTW2sy5NcjQ05qg7DeCSfOnP+PXA/0K0P6a7R3HNnRahDjp4RM46QTfgov6ddEVHlGaStHRnQLwTp8W9/leP/AHRPXnn6Uez4h7jpuK0citAFAFAFAFAQvuh/XNP/ABs/7NPXDG3G4Hm3oF+8bP8AF4viivVD0V2GWP1aIIP59fvW/o1yfprsfid4/s5dq+I06z0VE0gczSphQuxT4pw27OD2t50nByuR211OBH+lXc461I1WYgRvIRvVmOJOrUKPG4BAvs5yeJJOJOlb6vE6Ycc0qJlpNj1UUUWd3VxomeWdqgZx6uM1taL9dRzMqgKigIge50N7uLq5BcyEgtuX6puHnWJHigkLgLjifPHcM0LMLpX3OTcXCSiUKMRptKlj9SUnJOfssdvl7aSlTS5t+5HWMbUnyXjJE7xWjkFAI3vnfZX4wrli+iztg+n6n4DBqfQcSymU3FypMiyCNZD1SlVVR9T5MPFz42VyT4rV0aONjV0w7nZnSACbHUp1eWUkvvceNwbhjPLlyxjArMnS7kbhHM/U3/ayaWNvsREznaqrny4AGfyVswFxzT7/APoPXLE/d7fgzvh+jP8Al/5RFzXZnARm88nrn4prjPfHt+DO+H6E+xeIrXU4FaAQvfOn11+OtcsX0e7xR6Nn/aL+r/axn1fol10jP5ouI9wUFYnKgBUlTxeeC3WhicHiq44gEdWeZbhg6WdzczJConP1LepZ1yWMsgOfFOBt5YHD1qxJ0vWjrCOe11N9yJtYW2yNEznYiJny7FC59nGa6HMrc/YfhF+Bq5T3rtR6MLdL+V+IwT9CMyySi5uB1jbthYNGnEEBFJG3jzwQSAFPDIO9Tz2MuvdzUyTQyCbARY0wykseqUtkndzbHsZqN1Jfrgzoo3GT5U/7kbAJqo59QVQad8IWP3Hal97p3+321e3F/wDHj2nDDV4r7H4HGYV8o9SNrd6t/fFo/wCOx/A1aW8M+kPS/rcf4NPiiqYMqgCgCgCgCgCgCgCgCgPBHfdt+6XRf/O/GiraKiIaEP7p6n+L6V8W+q8SD3qknD2KoNVd1Cf9qXP4GT4tR7jSNe9J7n4P0VCmp+kdxz9mssGqekU/E1yZo1/qUmWrmDDNVA69+CClzp03qajcj/QrSu0dxzZ0gqkOOHhHW/dDL+Ci/p1tGkeTZGrRs6E+Ca87e/yvH/ueevNJ/ij2Ee46cCuhzK0AUAUAUAUBC+6H9c0/8bP+zT1wxtxuB5t6BfvGz/FoviivVD0V2GWP1aIISefX71vhWub9Ndj8TvH9lLtj8Rp1vTrhnDR3IiiCqGUqCchiS271V8XBwBnPZXQ4DPrlvcGDZHfRmTrdxdgqkx+LtXxcgFSCxOPGHDhwrEtxuCbdLr8CUw6ggChpYywADEFQCccSBk4BPZ2cq2Y4F41KP0xPdL8tAH0Tj9MT3S/LQEXvbW5MzPHqESRFwViKIwVAB4p4gkk8Sd3EDHi5JEBZqUVyXtNl7Dtj4TEgDewU7nKgkHeuQEyApOcnhTik95tJ1Kt2lkr+iUfpie7X5apgPolH6Ynu1+WgEbvUY9p8dOa/ZL6IerXPE9FnbB9P1PwGTX4J5HJhvo4E2r4m1GO4Ft53knaGBXiAx4EYHOujOJia5BcmGNUvoTIJgzuVVNylxsAClsCPhkfZgcSO3L3a8zcU29OVvsJUmox4GZIyccTuUAntIGT257a0YE7jUo8p9UTz/o19A/q1zn+72/BnfD9Gf8v/ACiMGoW9y0jNHqEUaF8quxHKr4nikEgNyY53A5IHEZx0OAlqEVwZLQrew7YwBNkKC7BfHfaDghxwC5G0+WsvQ0rp1y17yVHU4/TE90PlrRkPolH6Ynul+WgEL3UY9p+qJzX7MeiX1a5Yvo93ij0bP+0Xr/2saNZWd3YxXsUSHbhSquVwkoZhk8SXaJhkgeJjtwerPPwMHXILkwxKl9EZFly8hCpuUyEoMKWAEakKV+zC8xxrL03m4Jt6cmSpNQjwMyRk4GSGUAntIGeAJ447K0YE7nUo/E+qJ58fZr5G9Wuc967Ud8PdL+V+IwSwXPWyMt/CImcFI9i5jXIJGc+OcZXDYX1RnK9DgJX8NwXsyt5DiMATkgDrHCHrH2g4IkAYBMrtJHOstm4puLolX0Sj9MT3a/LWjFUH0Sj9MT3a/LQGqPCBOD0O1Igggx6fgjiP39bV7Mb/AMaPavE80H/mvsfgcZBXyz2G1u9VP7otI/HE+K1aW8j3H0h6X9bj+8T4oqmTKoAoAoAoAoAoAoAoAoDwJ33P98ujf+c+PFW0Ui2h/wDaepfi+l/BfVeJBw1iXgaoNRd1Kf8Aatz+Bk+Kaj3Gka56TXHwVCmq+k1xzrDBqnpBPzrlIqIRM2SawUTNVFOufgepc6fcDyalcj27GzPwGusdxzkdKK0ZONvhI2/dBJ+Di+B66I0jyaaptnQvwTXnb3+V4/8Ac89eR+kuwj3HTkV2OZWgCgCgCgCgIX3Q/rmn/jZ/2aeuGNuNwPNvQL942n4vF8UV6oeiuwyx9xWiCMh8dfvW/o1zfprsfid4/spdsfiXdeh+yUjt4gjsHHj25A9kV1pnAtWOM8gh9YKfUJ4dg4D1KUwXeZ19CvuRUAGBfQr7kUBXzOvoV9yKASkEY891a5BIzsHBRknjjgBzPIUAk9xEEZ/qRVBkkbMDhniRkDIqN6GopNpN0gh8YKypEVYAqQwIIPHgdnHhXNOdLRd/0Orjh36Uu5fMv6o+lx+3/wDx1blyXf8AQJYf5peyvmWyWuRjZGOI48+Gc8tg+Go8zW5d/Yai8OMs1yfqXz/VGR5nX0K+5FdTzIPMy+hX3IqgRmnhXzxiXBA8YoDlvOjBPM9g7agELuaIdSSY8PIAh8TDna2Ap5Nk+Suc9a7fmdsN0pLnGl23F+CZneZl9CvuRXQ4lPMy+hX3IoA8zL6FfcigEpWiXz3VrwzhtgOM4zx7M8M+WgMbULqERM+6LaGUb8ptB3qMZ5Z9SueJrF1+tTtgtKab3a+DM9rdfQr7kf8ARrqcUqRTzOvoV9ytQCTPECQerBAyQdgIGM5IPIY48eygMe7nhHVEmIB5AEPiYY4bgp7fYrElddqO2G9JX+X4ozjbL6BfcitnEp5nX0K+5FAHmdfQr7kUBRoUHMIM+ULx9ugNUd/6B+w/UgPSrDl+OQV7MZf/AJo9q8TzR/avsOMIr5Z7Da/ep/3x6P8AjifFatLeR7j6QtM+tx/eJ8UVTJlUAUAUAUAUAUAUAUAUB4F77hf3SaN/5z48VbRSKaP/ANo6j+L6X8F9VRBTWpaoNP8AdPm/a1z+Ck+Kaj3FRrbpJcfBWTRqvpNcc/ZrDBq3Xp+dcmVEVY8ayUtaqgdbvA8fvG6/lOf/AHdY12W4zI6WmqYONXhJW/dDL+Ci+CSto0jyeK0bZ0N8E4PFvf5Xj/3PPXlfpLsI9x04FdTmVoAoAoAoAoCF90P65p/42f8AZp64Y243A829Av3jZ/i8XxRXqh6K7DL3j9WiGLcybWDHOFSQnAJOBgnAHEnyAcTXO6xE+p+J3jrhS7V8Ri0e6spWaOPLPsXejiUHBWOZd3WAcSrpJzyQ2fLXq8vPmefIPNrokSNuRArccEE8A2NwAzgA4BwBjNSWJKSqTCVcDNrkUrQDR0g1eWIJ1VtJclt+RGyrt2rkZLkL4x8UcefDnQDILVL4YvLB1wjIqykEMJVYSrjcoJVV89zyQQe2sOSTSfE6RhmvWq7edcERTolIs51CybS7i0gjYFZGJwzqMJku23eR46iIyKUAz9iK8OHtMpOScGktzPj9HbbibXtM8HFwpQUWlmluf1fVarfvonEDQQ9VZRyPEwClOD+PkM/CQYVtxVicNgcQMHGPqQnVNqz6jXizPOivtA80TZH2QPPiDk+XljAxkZHIkV18qr9FGaM2wtWRcM7SHJO5uYzx2+sDyHYOFc5yzO6oqMmuZSOa50juI3ZYrKWZRs+qBgE8YMW4cWO3AXxVOCwzt51LKMur6RDLFLdS6bLJc7DI0IP1Ztu+JQp3DHWImcL420g8yK4zxKT0bdX+u4xjZsPAljRTbVpRV22knpw48xt6H6bHqFpZSzWctqUJRYyzBWjXcRjcRJ1bEDbuVT2DhiuWDjSnFOUWm3Xus8/RmPLbdmePOLhJK8r7UrXfxJbHdx3LsscssZjUBk2SRcNxGRu27xlduVyAM8TnI+jDEyqqPTVmVLou/JE8wzkeKxxxAHAHly4HHDj5TnUcZVpFGsTBlB5ZaPT3q/Apq+syxMqrbyTKUy0iAnDb0TBVQxyVdpDgYwpri3bJQ0x2y3OZbizmjmVTGgD7XeNNsuVO5ABvbaM445B4CucppaVZtQeWUuCrnx3Vp1ET6Ihb+2njm0+4s1hutqb2bJxsjxmQgkogEbYDIMDaxxmvHg7TKUW5Qap176Pm9E7TPbnPyuG8PLKSWbjSb7+fDk2bVtLNY1VEGEQBVGTwA4DiePs17z38F2DLq/SKeN3VLOacKqlGQqA5KMxUFsKNpUKSzDiR2sMxlGTWNPieGe5l0+WSfY7tbBvHkKAxpgb18YqoZcKHGAQNwArjiTyptRbaVnPaJSwsCWMlmpOopNylWrpJfXlyG3orYpqNraT3FnNbMrsuxnI3LlmJ8YiQo7DcCyq2c9lcsHGc1GUotNs8/RmNLa8B42JHJOn+F73Tq11dtM2Yoxw/6/6Ar2HrCgGjWdaljeNEtpJlYEs65KodwXBAU8SCW48MCoyjM9kt39UntZ43RdqJuCl0wkxwH24brAEJIB3Bhnma5ylXC2byvJKS4d7fBLtogPfouW6DXZMTwnzLp/1KX65GBdQgI+ABuUAZwMZr3yk3skW1Ttaes+Xs03iNTcXFuN5Xo11NczjnXzT6ZtbvVTjpFo5//WJ8DVpbw9x9IemH6nH+DT4oqmDKoAoAoAoAoAoAoAoAoDwP325/dJo//m/jxVpMqIhprY1DUfxfTPgva1xIY+uzc6oNO90uf9r3H4N/gNR7io1p0jn51lmjVPSe551zYNZa5PXJmxiFQgNVQOtvgef3ldfylP8A7usa7LcZlwOl1UwcafCR/wB8Mv4KL4HraNI8qKtbNnQnwUoKxai4RnWLVYXfbs8VW0x4tx3OuQDKCdgY4B4E8K8M5VJX1jej3fZ98RpDsUF5ArCbzOBJIsW+YBm6uMybRK2I3P1IvwRvIaz5xHM4fvKrXK9VfaefDnHETcHaTa9a3jkvdm07h+27fxnMY+rw8XHEoPH4sBxKjjjjiteW6mdspgdL+7raWXUF455VuOKSQdS0arkAPJI80arGSfP5KjtI4V1w5PEbUVws5Yko4azSel1x9+mi693Mx7jvgLRDh4pEO7ZhrjTVO/GdvG+HHHHHkrl5ZcjrlHId1jKB00+9kVlVlaN9PYMredZT5uAIII457e2tRxVPSKJlGybvgLVSyyQyxunn0kuNNR0yM+Mpvsjhx9ap5ZcmXIxLUOl5vbi1RLW4iEDpdPJK1qU6qWK5jjK9TcysxZlbgFwAM54iuWJiKSNRjRo7oF+8bP8AF4viivfD0Uc3vH2tEMWST7PhsAYHiMkHHEDljhyJBPkrOW5J9vvOkZVFx5tPuE7S08dnCIoYAAhVDsMLgnCggcMAEngF5YqJSvqH4PJ1rmv9fAvs7kszjIIU4xtIPqcSxB5N2KeXDGK0ZctKpGZWjJF7nukWyFlbrRsZkJMZ27laRSAc8frTvkfYKT2YrzeXjdan0I7DiySarXr6uzrS7WZur9N7SAhZpljcqjhWzuw5wnAA8zwA8td0zwNNGbDciXa8bZUOyk4xgrlW5jj2jhwPMHlnEk7Vbl8qO2HKKUk99eH1RkXTZG0cypxk8AOWe08z5ONbkm1RzhPJJPguBi3ALEBVTrFI3McHZwOCG2kkkkjGARk8qzJS4G8OUc2aa01C51lFZRuU5JyQRgEeeHnuBGG55xj1yLTSRiOSnbd8DPBrRgrQDDrPTe2t36uRn3+J4qxyP9c37eIXaBhGySRt4ZxkUbSFWZ+l3gl+qoco3BTjBO1mH5G3cQTmuaTzN8KXx+Z3k45EuPbu3X1a0heZixGADsbJJOM+KRgcDyDduB8I01bT5O/c18TEZJKSfFV70/gIRxlm3IqBCuGYgZc+N4vAZ2g445wcnnwNRqV6bipwUGpL8XAU0632KV8XgfsC3DgMZ3End+itJUZlJPVKuwy60YMWSQbx4yjAPDK5HEbhjnzA9b264tPMqarX4HojXk2qd2ufXX64luq3SrGXZgFGzieXn1x7Z8mRxrc7ca7PGyYOmIr61/azLNaPOtfcVoURRDuJ7MAfIPLw8ueNc6eZvgd24+TS42JX9wFMe44LSqq57SVbxR6tWerjyuxhySU0/wAvxXyMrNdDgFQBQCLxncD2AEer63q54e1XNp5lW7U7qUVhtcd/y7jVvf8AX96Gp/grL/aoa+ji/wDjR7V4nzl+1fYcXRXyj2m1O9a/vh0j8dj+Bq0t4kfSLpn1uP7xPiiqYMqgCgCgCgCgCgCgCgCgPA/fcH90uj+td/GiqreVEMtW/uhqP4DTfgva3xINvSCfnVBprujT/UJvwb/FNZkVGtOkc/Oss0ap6R3Hnq5tlRrvUGyTXJmhtYUBYaqIda/A8H9p3f8AKU/+7rGu63HN7zphQhxq8JF/fFL+Ci+CSto2jysBWmaPcng5e6LFp1jq7ShsS3sSq6EBlcWkZOAysCQCGBII7CDjj45wcn+Ebjf8fTTRAHUQjEkpnkBtNLO+Zl2tMwOnYMhUspfngkZqSw8Satu1uWvLgYioQvKkrduuLfF9ZfcdOdEZSjxKybixVrPSiu4oI2badOxuaMBCeewAZwBWPISeh0zIy27pekFIkfzSYoIuphjR4beKKIbSERLa3hXaNq4DZCgYGOOasCV6b/X8xmQs3dT0Y8StyfO8TcE+dztOSh5AnB9WjwZ8RmMuXu16W0ewm8KeKNvmp8ADkoGMBQTyxV8lOO4WmYeo91zRzl5VuWKKTuacsVXHHB2E8uyseRkuJU73e4fu533wWmTzBLbr5JJWhiLSys5Cjd1SgyAAInWO21fRN6mMvCbV2V2nTTT60MvQT942n4vF8UV9GHorsODHe6kGCM8fICMkZGQBnOSPhHlzR5r0quIGmS0BcEg9Xt4KF3KM5zngc7uGCAQvEAiui3abza1Wm8y7d2VlAAEbsQoOQy4jZ+XYpK8FPLPsVtpPtK6avjXxF7PdmTJUjdw24yPvsceWPPZPPsxjkcjK/wCvl/JmgIlqrzs7GCe16oYIVuqJGYmbcWOfELEvgYJUsc44V5p5rtNUfRwvJxjU4yzbr1XFLd+taHvXtPL28oVQZTHhCQud+OHEjHPj5PU5Y3Jyzxit2t+qvmeAYO5zpd3EJRdE7eBjG5CATuL4C8Bknj5a1LP+7RNB81GEsGADBuI3AcWXPFVPYcfZcMHkfJ0jwsqqyyNFQBlwhUZkd1KqFCkHd53ODxGM8RnJya6Vz3G70ebd7zV3SyaMS2MlvpIuheSMJpkdsjeMuisjjawPj5mwgVCMKeI+ftGLLDlFRhab1fI+H0htuPs+NhYeDhucZSqTXKuGujW+3pSfHVbhs5RgqFKbCE2nHDCqRjBORgjtr21uPs1u5MyKhkjfdAsbl4YxakiTrAXIKr4mx+GW/jEcK4wlKUpWlSdeBeBkdErWZLVVnz146zdxU82YpxXhyxWnn4VQ0K3drkqQGC5ywCknIx47jHEYByPGGcEg12XvNx6hcEpkxqBGAg2sGBLbiCyjs4EZ3DBI5c866nvNaPR79RWzC9bNgMDkZJxtPDs4cM+qT6mBgDmcTPoDWPTTR7RZZN9rduzAO8sD4BMxkcqOZ3gwgKqjjvAOTk14cWMb1i/Ufe2XExZQVTiluSa5V43r7iWN0ss4RHFJJHF4kQSNyeI6sOqrwy+1FySBwCknGDj2KkkkfFneZ3rq9SL/ALLowpP0Xiwz7VcAuoKSMzgkpgErHJFwyAQwHnOAzRJdE1jYXSacysZYVQ7CFBliVkAYgAh/P5GAN2OdVEHXT9eilYqhJIXfxBAZc4DKTwIJ7fIQeOapBg1q8ZLuPdexwxgdaYJAuHTAjXDso6vDiQ53kvuAwuzJywU0LUJSYna9jniPW52Q5D9UZesHWKoEfV+ICDks0bDK8qAev2V2+5U61dzx9cowcmPnv5cgDknsHHsrQM67v1QoGODI/Vrw4F8E4J5DgO0+pxzQDLL0/s1OHuI0PViXDnaQhLjJzy4xuMHyeqKWCCd/hMH6G6jIp3RtDZFXHnWBuYsEHkc17MVrzdJPW14nmiv819hxhr5Z7DZ/exH90Gk/jkfwNWlvD3H0laX9aj/Bp8UVTBlUAUAUAUAUAUAUAUAUB4H77j++XR/WvPjRVpFRBYnxqGofgNN+Le1riQYuklxzqlNNd0G4+oy/eN8FZkEa06SXPOsM0ap6R3HOubKiC3cvGuZsw80IFAdaPA7fvO7/AJSn/wB32Nd1uOTOmVUhxp8I5x6RzepFF/TrcTSPLirWjZ6V71x/7mX38pr7P7ShNc4Kn+uRntNnuxIA3ZI7ST53PZz+GuOd5b6/iehYX4lFcUmKGcjBU4Oc+uOR8vZXTElUXXExhQzuny+vgUaUjipwc5GfUxkdvZmrOTUdP1p9BhQzyS/W9L4lkpJxg8Dkcz57HDs5eX4Ky5OLVdfgixgnFvikn76KyOWwWY5yu7Hbn2sewKik8qfP5P5G/JVKUeXzS+JfFyA7cfk9euqeZK+RyknCWmlciYdy5ydRtMknEyDiSeG4eWszSUXRHOUncm2+t34m3ego/aVp+LxfFFbh6K7DkzC1voFaSPJcSRkyFfGw2MhQfFxg4U5JOBgkg81UjajbosdWkMF1dahbXtnbwRW404QnrGkm8YHPjFnf6pvH8GqqyvlgSu07fDOWKseKiv8ALrV/r3b749fxdonti2uEcKMXs9fik3r1+tfupXm4tb1M7i+8eHc0QBlZRh8kkxSDABABPLPr+rX0U4063n3fwpNLkvEybDG6XClTu4knOefLyYOTj+N7XM5GWy5BHYRj2/l+So1Y42a76TdH7e32Rx2Es4kjKMInZVVDJbw+MeHPxeOQ2zrQuQ7CvJiQUXpFv19n67z7mz4+Li3KWIo0+Ku9JPT9b66qncNs3i5PigDnxZcAcM448iCTzzyr0TUsry+lVK/ifFe/UzHx2VjC8pT8qlfUJVwGbpDock4Tq7ma2K79xh25bcABneCviniDg8+GOddzJiWfR5Y4pY7u4a5jkKgm4KgLgAYDEjGThvLu8pzRIGR0OtIY4EWDbtwpfawbLkAnec+e9fl2VapmpaOkZqfUy7O+FJGCcDJIA44XOcADyc603oiyaaRm1gwNtzqUcGHuJUjUnq1Zjt3MVLgcgM4RiPZrz4zlGP4Wk9NXu+uh2wsOWI6gr411F1t0lt5A5hlWXYpchDuYAKrcuHMOuB257MNhgzbjUmm1yNYmBPDpyi0nuviMdt3S4GYKI7kA9ThmgZRmYgLgNhiAWALBdvHgx4kdzz0SPU/OH11+MK3Hf3m47+8pbSEySguGAIwvan5PgJ+GsowZVAa+1prm2AM2qJEJFdULx8mCLxUKnEo2G8bG8sBwyBXilmhvnW/ekfawvJ4zrDwW6eur4vXjx3LlRMdOtkdI5HWKR2jQtL1Y8clACw3rvVWGcA8Qp28q9cXa+R8maqTSure/9ctH2CdvpUbqVkt4gAWVVMUeNvlAxwz6mM1qjFmetinigomBjGVU7cDAxkdg4DHHFCNkKtL+/TaV06FS+0MY2UFQ7eMz+d86zB2XiQqyc/FFeVTxL9E+osHZnuxNetb+r17l1tEm1fR0lkTfBFKvEM0iKxAU5XG7ljJIwDxzyya9R8sy4NKiVQixoqLnaiooUbiWbCgYG5iWOBxJJ45qAjmv6NKrL5ltrUrtQOzgK3CQDCYK8BFuJHDh6Pzp54mdP8FUevBWC0/Kt3wrs4jroJmkj3XcUSybztUbZAFwAG3eMNxJfkeCkDy1cNyauW8xjrCUqwm2ubM5tKiIwYoiByBiQgcMcAVwOHDh2VtnnIt4Qf8A+nt5wC/vEbRyH7bj5Y4erXJaNlOG9ZNGzO9nbGv6T+ORfprS3ke4+kzSj9Sj/Bp8UVTJl0AUAUAUAUAUAUAUAUB4G77n++bR/vbz40VbRTXhl/uhqH4DTfi3lXiQjXSa550ZUaa6ezZil+8f4Ky9xTWnSafnWSmq9fnzn2a5SNELlbjWEUtoQoaA60eB2P7Tu/5Sn/3fY13juMPedM6pk40eEYP7o5/wcXwPW4mkeXpK0bPYXeIWyNp2rGSNZAl9CQrDIP1C3yO3G7lnHbWJ/LxNw9L1PwZ6ck6LW4dCIYVBt2yxQAZ3L25xuHADy5PLt5uGio7Qxbm29ddKLNB6NwYhDQRgrHk7kHAHJy+RwYFQw48mzSKe7h/9E2tZJ093rVfAwLPo6giVOojUdROxYpxVsEAt2g4JK5PGsZbVev3M6SnFSc9+u7+pM0nADtXh259XnUim/wAPVfvN4rSlmT45WtN1dgMh49vjL+THEViMXu33xO08WMpKadOk603OVNPxFIhhvYx+U1qFxrtafecsdrFzdSUl4cusmXcsP90bQf46P4wrviP8LPlo290FP7StPxeL4orcPRXYRjteQb1K+UewfUPBuHsVtOnZYunY1al0LtpijSxhmjXarZIIG7d2Y7e3HaewkE9SNjZc9zmzHmcLHtVJiQA5xxV5CDkngXUNwwc58vAlaZpa2S/NQwUqgqKgCgCgGLpH0NhuiDKZRhCg6qV4uBYNltpG7BBwGJHE5HLACF90GSS3kthI6iR0cu2HYbQigDgoxhBz49uT2Ei79CvQPo2La3Chy/WESnKhcFlGRgE8qr0D0HLXPOfY+eXz3Ln6p/6GahBxoCO9NbyERlHaAS4MkCz427/rO7afPAGbaccRv9kcMVpqnv4Ht2WM81pSy7nl5b691+oZOhgKNcvi1LCFWJt9oLZkmdd43FuqPExk8Seuz9hWNnWruvUera0moL8SV6ZuxXXXz6qriL61p+rG/tmhntxYhT16mI7vVypcs7Nw6tlkQJxJDedKccXyqyNeT95+Q2jD217VB4UorZ16Sat/Vvct1cb3Elvlk2HJQjK8lYHzwxjMhFe5VfefejlvTrM1YFDMwABY+MfLiuZxL6AxL/SIpcdbGkm0MF3DON23djPLO0VmUFI6QxJw9BmUigYAAAHIDgAPUHIY8nkrSSWhgZ4dSjiypLks79g5jGQMMeQ454eTGaEHrFAa46TR2y3T77i6WQtDIyqC0Q61kWGNQWA+rSQ9UyrxbrSp2dYrHxYlZnblwb5a6fA+3geVlgrLGLSuuemr4cFK+qr1qib6s6K6O27K79oBXB4ZOd2D2c19Y17j4grp2orKu5c4BxxGDyDZ4E9hHDsIqAZentvAYA9x1vVxyJwizv3S5tl87x2gz5PHAAJPihq4Y2VRuV71u366fH5nv2J4ixKw6tp791JZn69NPdrRf0GWIQsIut2iVwetCht4ChwCvAqpG0EcAQQCQBVway1rv4mdrz51nq6W7lrXr/TJDXY8RC/CGLjue3gyTxseJ5/vyP8A/FcOJThyKho2R3uJ/u9pX45F8JrS3g+k/SPrUX4NPiiqYMygCgCgCgCgCgCgCgCgPAnfdH902kfe3nxoq2imsnl/b+ofgdO+LeVohFek1zzqMqNM9Nrj6nL963wGsvcaNZ9J7jnXNkNXa7PzrmzaIyayAoChoDrP4Hb96Xf8oz/7vsa9C3HN7zppQhxo8It/fHcfg4vitW0aR5Yd60bPZveAWxksNXUED9ux53LuDAWsDEEZHkyCOIIFN8lRpNpqt56nn0pZcOp8UyDcWC5RIwQEj3AgDfjORhgfKFIwovNbYc+CVVp2/r4FsukB2fKx+NkjCq8gDtkO4cbfGGQAQcKMDOBiZHUk3v5cjqpQhWlrS7566X3fEx7jR3AlHW715SB44CWQRsQz4RcurBVBYN4oAx2gk074ad1HNKGXV603/VdLhuo8/wAMJGOPZg8ACR6pGCa0o1qjEpWVEHHnjjnko58xy4AD/nmpkrdzsmb9e8IckA9nE9gI9TtB9c8qeTVJXxbtHRY291rSWvLR+KRLO5HJm/s/wyZzjPBvU4VnEVRau+s55lLWqNx9BP3lafi8XxRW4eiuwwx9rRC1mwCTwA5k8hQDdealHmL6pH9d9GvpUvq1pcTUdz7PiZP0Ti9Mj92vy1kyH0Ti9Mj92vy0BX6JxemR+7X5aAPonF6ZH7tfloA+icXpkfu1+WgGHpHbSSn6hqHmX6nt8TqXO7erbhvyBlQVJwTx4YwcgKpE3VSxm+BeQ5SUGJTENiLsUA8V3Kzbid/1Q8c0KW9DiIreNJLlZG2g+M6+ICBhAc7iF5ZbjQMztWvUZMK0TeMpwZF9k8GU8PX5E8DwFCGb9E4vTI/dr8tAN+pw2svjP1MjqpCFnXhxDgDxhjxgMntHCsuEZatHXDxZQ3NpN26Iz0J0tozKZhZQEpHGhtmKsVVI8B260krGQYwuQBtJAG9s8MCEou5JLduR79qx4SSUHN6tvNT1be7RdT8SaJqMQAHWofXkUk+uSxJ9njXqs+WIajqUew/VI+a/Zr6Ier/1x8hrUd/eajv7zJ+icWfrkfP0a/LWDIx2nTTc+w21yrGV41PVMUIUkCQyY2hHxwye3ycalgcNA1ozqzGGSHaQNsilSSVDHgQM4zjPEeQ8CBQOlAYlhEcNvCE72wVC8ge3AxnPs+WgL9SD9XJ1WBLsbqywBAkwdpYHgQGwcHgakrrTebhlzLNush93NqCFt0thu3qy79qHZ1oOBvbf4yL1SOTkSPu5oBXlflFvq9D6S82a/DGdVw51v8W+pVxJbdg748FQvjZVtu5uXIEZOB6HGDxr2HyjLH/X6agfURXpJDeKzyJdQwwLghZUTbnAA3yMpwrPwwMEE5B5CvPNTtvMsp9DBeC0oyg3Lmm7HDojcyNEesmhnIkcLJBt2bDgqp2gLvTO0kcwAe01vCvLrXqOO0xgp/gi46LR2PYNdWeUhHhECR3PbzOM7tP5cv37FivO95o4dihTYve7tjXdK/HYfjVUHuPpS0Y/UYvwafFFaMGZQBQBQBQBQBQBQBQBQHgPvuz+6XSfwd4fzoq0U1NPN+39Q/Aad8W7qkIf0nuOdVlRp7pfN4kn3rfAawzRq/pPPzrHAGstck41yZoZ6gCgCgOs3gdv3pd/yjP/ALvsa9EdxzZ00oQ4yeEYb90lx+Di+K9biaR5Yd60zZ6X71A/3Mv/AOVFHr/tGCuaepGza0JypHMcR7Ga6y39Qn1bghfkT/GGePHGMHHH1askluLJKnXULzJkEcR6x5etXM5MRisAOOSfUJ4UBk4qgseIHmBw5UBLO5WP7o2n4aMfnCueJ6LNI290F/eVp+LxfFFbh6K7CMfAa0QKAx73nF+F/wDalrS4mo7n2fEZum7XQhHmUIW3pu3YyBuGNucKfGxuyc4zjNQiLtdhvm6s2726EKeuDhiOs4Y2EAnYDnPIkDA55GQjO0SK4Ct5oaJm3ZTqlIATA4MT55g2fGAUHsUcqpBxoAoAzQFaAM0BSgMdPrjfeJ8L1rgu03+6u0yKyYK5oAFAYmqjMbAHB4AHyHcOPsVqO/vNR394rawlVCs24jOSe3xiRzzyGBx48KyjItmgI8Oj8/mgym6fqjLv6nHARbSOpGDjG/bJvILefXzpXbxySzXeh7fLYfk8mRXW/rvf3ae/fdyCux4jA0YLh9qlfHbOTn9A4ep8POgHCgIl000e2DR3ctu88qSQqgj3FlGXDOFH2McbySP2sEC9oB82NCFqbVvSuo+jsuLjNPBhPLFp3e57ve2kkP8AeKOti8Ut57DAnA5eQYPl4kcuGeNeo+cZ1QGNqOnJMhjkXcjFCV48djrIvLs3KD7FZlFSWV/rU6QxJYcs0XT59ungxq6GbBCVjt2tVWWRRGy7dwB8SUDh4siFWA7OK9lc8Kq0VK2ejas2dOUszaTvx7h+rszxkC8Inj6Xl1gEDrNO4Hn+/oq873mkcQRQpsLvfT/dzSvx6D44qop9KmifWYvwUfxBWjmZtAFAFAFAFAFAFAFAFAeAO/Ab902l+pDeH8+GtoqNMXc/7f1D8Bp3wXlAQzpRc8/ZpZaNRdKp/Ff1m+A1llNW9JZ+fs1yYRrnVXy1czRhZoAoAoDrL4HY/tW7/lCf/YLGu8dxiR01qmTjB4Rhv3SXP3kXxWraNo8rs1aNHrbvJOhtze6dqSW0ZkaPUkd8YACtZQqOJ7SQeFefOo7zOWzfsfcA1QHItW90PZ7aqx4czWVl0fcB1QEkWrcePnl9nt9anlocyZWKHuE6r9qt7pflqeVhzJlZX6RWq/ap90vy08rDmMrK/SK1T7Vb3S/LV8tDmMrKHuE6p9qt7pflp5aHMZWP/QDuOajDe20slswRJkZjlTgBhk8+yucsWLVJhJpkq6CfvK0/F4viivTD0V2GWPgFaIVoDFvTxi/C/wDtS1qPHs+JqO59nxRE+6V0kntxCIUDhy+/MbPjYUKedIxkk8+dROhHeZl1rt71Vu8NskxkiV5csY9jFVO1VPLJOOJ8UAk8sGGUPOi3srqxliETBsAA5yMDxuOeBPq0A4CgCgK0AUAUBQUBjxn6q/3ifGetcF2mn6K7fkZFZMlaAjGq90i0hd45HYPGSHAjc7doDEkgYxgjHHjkeUVLAv0j6UwxW6zMx2SbNmASWyQ2AOw7QTxxyrSdFWjHu1uldVdDlXAZT5QeIqEFKArQFKArmgEbm5CKWIYgdigsfYA4n2K1FW6BgHpInHxJuAzwhkyRxPDhxOAeA/Lyrt5CXNd6M5lyM6zvA67gGAOeDqUbgcedIBGezI5VynFxdP3FTsXrBQoCgNAtCtGCC+Eg/wDp9d/hNN/22GuHEpw+FQ0bA7gB/u3pf49b/wCsFOJo+lXQ/rEP4KP4grZyM6gCgCgCgCgCgCgCgCgOfnfiv+6XS/wF58eGtoqNF3tx+37/APA6f8F3RlIR0puefs0Kan6TzZDDyhvgNc2was6RT8T7NYZUQO7fJNc0URxQBQFDVQOsfgdf3rd/yhcf7BY13W45vedOKEOL3hGj+6S4+8i+K1bRtHld2rRpnRXwSv7z1z8et/8AZI6+bj70InvfNec2GagK5qgKApQBmpSApEeIoDQHc90aRrG0woOLWBiOsjyA8YZSV35G4cQCBwr7sIScY0nVHmclbTJB9ApfQj3afOrfkp/lfcTPHmU+gUvoR7tPnVfJT/K+4Z48xC66OzEx4TOJMnx04Dq5Bnz3lYCiwp66Pu6yqcaev6sxNf0y4SPxLd5mLL4qPEMAMCSS0gHAD1ycUWHiL919xFNLiWastyhTZZzTBwWJR4B1eBnD75F8Y8gBnJ7cAkZeFP8AK+4Z48zNsdMncEtA0RBxh5IiTwzkFXOVzw48fUq+Sn+V9wzx5mT9ApfQfnp86nksT8r7iZ1zKfQOX0I92nzqeSxPyvuGePMPoFL6Ee7T51PJT/K+4uaPMPoHL6D89PnU8lP8r7iZ1zMLWtEu+rbzOkZlyu0SOgTGRuyQ/DxcnPqdtPJYn5X3DPHmNuh6Lqhf9sR2wjy/1qQb8YXq+BbA4538eJIxwGTPJYn5X3FzR5idho+o+a5RJBELbaAjiVCxxnbjx/PZJ3AhQPKavksT8r7i541Vkqtui9w5ISIsRzCshx2eirEouKuRFJPcZH7Bbz7Xk/N+dXLMuZosboDdn/BmPHPJOfl58/VpmjzBga53O7p4+razkkUlfECIwwrA8t2Bgcq0pR4lj1jhH0Gu8DFtIB2AhRgeTG7h61TNHmQu/YLefa8n5vzqmZcwU/YLefa8n5vzquZcy0H7Brz7Xk/N+dTNHmQr+wW8+15PzfnUzLmA/YLefa8n5vzqZlzAfsGvPteT8351M0eYA9Bbz7Xk/N+dUzR5iin7Bbz7Xk/N+dTMuYK/sFvPteT8351XMuYD9gt59ryfm/OpmXMCN50SuY1LyRGNF887siKo8pZmAA9U8K1FZ3UdWRulbNKeEav7j9hOoQvEqwI2l7JA2WZ/NsW4EcgBwwQTn1MUl5JR0f8AmXquRIuTlqvw1ozixXnOpPu4Kf7taX+PW/8ArVpxNH0r6F9Yh/BR/EFbORnUAUAUAUAUAUAUAUAUBz278xv3S6Z+L3nx4f01tFRoHpSZIbueYRPNHcRQIeqMe+J7frh4yyPHmORZQQyElWUgqMg0ZogWvXe4biGQ+gZTvHqHbvXj6jmgNW69deUMPXAGOfZuJ9quTBqzpBcZJPr1hlRDpDxNYNFKECgKEVUDrD4HTPma7/H5z/oFjXeO45vedOqEOL3hHD+6O4+8i+K1bRtHlNjWG2aZ7f8ABt9OGs4NVUNHiS7t2YM7xvxiRNyFYJlKqqklWAdmwFFeHHxMPDVzfA4Tx4Ycoxk9ZblVt8KSWts9eQ93hxK6y9V1QWTqnhutzO4P1MPHJaxlFYcGKl9pDepnxvaMLenoeaXSOzRdSxEnyd32CUXd9Y5DyW0I8Xx/NTzKOK7gVWyRsgbwOwlV7CcY86wlxMfa2xr/ANq9496d3wukuFDamRKEUyIqM4R8LvGRCcqrEgN28D219vZujtp2rDWLgYeaDunaV12s3HpLZZLMpqvWZJ7vek/dN/en/U16fsTb/wDRffH/ALGl0hs/517yq93jSTnGpOcc8ROccz6R6h9gVPsXblvwvfH4sv2hs/5/c/kWju+6R90396f9R+mtfYe38cF98fmZ+0dm/P7mXJ3edJPEak/aM9U/Mc/4DsrL6G25b8Lq1lFfE3HbsCXoyv1P5MZ9K7qPR+BBHHeBVCJHwikztjUKgLGLJIUYyeOK962DpWKUVhulu9H5nme1bHJ3m8TM+nDoeAfNpwRkHqpOI8v1rlTzTpW6yu9++Pzsnl9kq82nZKuy63lrd2bQvt7/AO1J63pVa8z6W/I/7fmPONj/ADe5lz92PQwcG+wfJ1Umf9VTzXpXdkd9sPnZFtGxvdLxAd2TQ+Xm7ieQ6qT9VTzLpb8j74/MPadjWub3SLpe6/oi+evWU4B4wyjgRkEZh4gjiDyI8tZjsvSslajfY4PXlpLfzNPH2SOjful8ixO7HoZ4C+zwz9ak5ZAz9a8p51vzPpZ/+t98fmTznY/ze5lX7sOhg8b0g+rFJn2jDWY7J0q9VBtXWjjp7w9o2NaN+IDux6Ic/t48Of1KTgfev+hV8z6W/I/7f+w842T8y95T6cmh/b3/ANqT9VTzLpb8j/t+ZPOdj/MveWSd2nQQATfgA5wTG4zg4OMxjOCMHFTzPpb8j74/MvnGx/m9zL27s2h/b3/25Oz/ACXZ+ir5n0t+R98fmPONj/Mu6RHdX7tUKuxgSGe3zlJ3mkgG0Kud4NrLg79wBHDAGQM5rPm3Sd5WmnyuN+pXZtY2y1mvTslXrdCUfd5tesCsbXq96jrFupCdhZVJEZslJYAlgpxnAXOTW/M+lfyP+35mfONi/MveTbTu7zpEBYx6gULcCepfiB68PlxXCewdJYujhbXC4+rjx4Go7XssdVJV2SrwM4d81pnL6JnPZ9Qbjwyf4Dsrl9kdIf6T74/M359s35/cwbvmdNBx9EiCOBBgYEeuDAD7dF0R0hv8k++D+I8+2bjPXsYL3zOmnONTJxxP1BuA8v1ntxR9E9ILV4Trtj/2Hn2zNpKfuYf2Tem/dM+8N+pp9kdI/wCk++H/AGHn2zfn9z+Qf2TWm4J+ifAcz1LYHLt6nnU+yekOOE++P/YefbNuUvEimr99dtkIgmtpo+tQK7zGFup25dinmWQ9YredHAMD2Y8bX2P0h/pP+35l8+2b8/iI2ffhW4n23GoWMcILhmSV2mQAsUbY1qu7K7NyYRldiBuC7mfY/SH+k/7fmVbZs9el4kiHfcaN92Y/cf8A8VX7G6S/0X/b8yeebP8Am8SMar32zbybe6sZLcZHWSSOr+eYKcLAyFdmxzllYbmGPFGY+iNv3eTd9sfma882evS9zK6F33iM6C5vbKCPJ6xo5DMSMNt6v6kp3HxMhkKjLeMQAS+yNvluw3f9PzM+e7Mlefq3MztU77e3HW9RfW0m0KYi7lA2T43WYgJQDsOONX7H6Q/0n/b8y+fbN+bxFejvfaWrvItzqFvGOHU9TmZn55DDqgVx96Ofs1JdD9I1+yf9vzMvb9lStz09Yv0t75pR1K2F2J3aRhMDDu6uPqywfbsViAwGQATg8gMsPpbJ0HtEnJ7TFwikq1iteV616z5OL05szy+Qnmb4ZZd+63XURGfvm9UWeRRPAbdVuyJns2hZJo4LU2dsEMj9clxLJcbrsmBkaPqjboqpcXUh0NiPHUZReS+E4XXPrrfu7DridK4awc6dS68OdXyemnLeJ3ffISz6o9jdS282heZUc6gNqyS3LL41v5j6syBEbILkkEbfPBspH0Rt+G8+Bhvq1i3XbuMLprYWsuJiK+Oklr2bzV/hCO6np930Sv7W1u+ulMtiyxbCvixXMbsclF86ik4z2V8zG6M23A/zsfDajer049h79m6T2TaJLCwMROWtKpcO1HHyvGfSJ93BR/dnS/x62/1q0NcD6VtA+sQ/go/iLWjmZ9AFAFAFAFAFAFAFAFAc8O/Rf90um+pbXn+shqoqNB9K755JpEVzGsccTZVUZnaUy9rqyqqiMYAXcxYknxa0aIfd9D7ia1vL1GDQ2ZiWYsYw+ZiVUoioCwXgXI86CDg8qgNL9IZwezy9o8nqAexXNg1VrsvOuTNIjhNQBQBmgKE0B1h8Ds37Xufx2f8A3fYV3juMSOnVUycXPCQN+6Kf7yL4rVbNo8oytWGaNj9xnugS2SziKB597o+5ZreLYVGBwnkTdw48AQPUOK+ftGzyxMSGJDK8v7s1mi+1ceq+NM+Ht+y4+JjYWPs81GWG3Vp/DXjvN0aN3zlzCHCaUAHEYYeabIjEasihd14SoIZt3E7iTyr4mydDYuywyQxE+NyVve3wpcd1Hixdi26eNPGbwbnltZZNKr3W27dtttu3yFtc76W5nUrJpeFL79qXWnoofxuSi6IA+qNzz2eSvRidF401UpxrqTR49p6I2raY5Zzw0rv8MWuH1INp3dYnikaRdPfLf/rLAY8YEf4QfQ8q/o3Q234OwbGtmxIylK2201WvLXkejA6Jnh4ahmVquDHu974e7kyX03JYruPmuw4ld2D9f5nec8uQ8lerYOkdj2LC8jgxxctyf4p52r1pZnourhw5H1dr2bH2nFeJiyjbSWkaX4VS0Wm7eynR/viry1mWeHTysqcVJu9OdeKspyjzMrZViMMCK10j0nsfSGBLZ8eGJkbT/DLK/wALTWqdrVK+a0OGBseLs8/KQlHMrq1a1TXxLNS74q6lJMmnbmLyOW81aep3SMWbASZVAzyUABRwFd9l6W2XZMKODhxxMsVSzNSffdjG2HExpOcpRtu9FRf0Y75S4tJVmj0qKR03FBcz2M0aljncE80oQ47GDDHHy1z2vpPZNsioYkJ6STTWW1XW7PTseBtOyOUsGa/EnGSd00+a49RhXffDTuAG03zqhQRdWAIA9UTDPrnjXrj/AIgwI/uS9x4X0bN/vLuEE7vtwNuLCQBc8PNliQSV28czY5DyGvi7XtOxbTteHtk1jKcUo1GUVCcc2ZKS1ekldxataTtH1sB7Rg7NPY15N4cpZ7lF5oSrLcHdaxdNSUucaFL7vgJpCSdNIJOTtu7FePDsE/qV9yP+IdnWmSfu+Z8n7Mm3eZdwQ98JKGVxprblLkE3lkQTIpVtwM2DheAzy58+XzvtPY/OPOXHEzU1X4aV1fuXibjsGJGDgpKm03pyWmvvoQl7vchIP0NYY7BeWY4Yx6d5DX0l/iLAS0hL3fU5fZkvzL3jrq3fQ3c7b57FpSIo4F3XVlhIogNiqBNwIxkntJPqV8nYNu2HYIzhgYc0pTc5W0/xS+C3I9ePsuNjtOco6KlS5fHmNkHfByqwcac3Ll5ss8c88uu5ZFfRxentnxMNwcZpNNWmk9euzzLo2UWnaet01oLL3x021lOnsyswc7ruzY7gNo8Zpt3Lszj1KkOnNmgkowkq0W75mV0biVTnet7hn1vuzvNG8TWU6ByCWivrJXGARwYyPjIPPGRTH6a2baIZJRxEv4Wk/E64XR84SUk1e7VGdZ93+RIYoBp7ssKbEZ7uyMhHMln60bmJ7cVYdO7PhqlGfDe09y7ST6NxG7co9w99Fe+subNt0emRyA5ylxLYTKeLMpBaXKFS2coRuwM8MiuO0dMbNj1mjNVya+Z3wNjxMG1FrXtGm774qV+enHkFyLqyBwowM/VuJ8p7a9K/xDs63Qn66+Z5n0bOWrkveOtj31tzHD1I00EccO15bl1BO4qALoRFS3jEPE2TzJGAPn4nSmxYmOsdwnnSpbj6eFHaMHZ3s0XDI97p3r/8Gq974qWRy505txYMSLuyXJBBzgSgZOOzFfQj/iHAj+5L3fM+X9mzerki9O+KnDq/mBztTYqNd2JjAIOTt63ixBwWJycDyV8TZ9o2DA2zF26KxniYiUWnNZErT/DG9LaT1brVRq3ftngY88KOA5Ryx3fh10ve/WIv3wEmQfocwx5LyyHZj06vtv8AxBs8k45Jbny9fE8X2bNa5l3D3r3fb3t05eexEjFFjz12nINqEkcI3Xxsk5Y5Y8ONfF6M2jo/ozDcNnjjZW7/ABzzO92lvdR7dpwMfaWpYko6aaRoZIu+GkVtw05uzh5rsyOBJ4jruI48q+zPp7Z8SLjKE6aa4XT00d6Pk+B4V0bNbpLfYs3fISkFTpuQXZ/3zZcGfng9dnHIAZ4VxwOmtmwMOOFGM2opJW03oq1d6vrO+NsOJjTc5NW3e4rpXfHzwyJLHp53I4kTddWDruA4bkeVkcZxwYEetTaOmdl2nCeFOOIk+TSfia2fY8XZ8RYsHG1zvjoWy98ZKVRTp3BAQv7asQwDNuPjCUE8ScZ5DhXaHTmzwVKE603tcFXPkYxOjsTEbk5JNtvRVvdv3kL1PugmWQyGyfJcuAbqzIBbGcgXC7uAK4JwQx4cscdo6bwMeORrEW/dl4quNnowNlnhNP8AC6rffB2Zd13UJHxmxxhVXK3FkpIVcDOLjGfKccTx7a9cf8R7PHRQnX9P0PP5jN8V6rHew7u8scLQCwyrAjcbiy3gMPGAPmgDB54YHB5c64S6b2aU1iZJ2utbu8vmE1xRiaj3W2lCA6eyhI1jG28sx4qLgHJuM7uZLZyc45YFfOW27EvKJxxX5Rpy/Hlel0otPTrPZssdp2WUcTDlC43VwTWujbTX4tNFe7gIJ3V2AKiylAIwf23ZcR5D9X419TC6e2fDgoRw5UlStpv1uzz4+yYuNiPEnKOZtt0qVvkiVaT3z11DJFILLHVo0QxNp2eqcBXGTKcttXxSRwbjWX07sz/cn3r5nlxujJ4i1kt9q1pua16v0hfTe+KihuWuYtNny6GN4nvrPqpV27CZAlzG+8x5QsjpkE5zwxy2npjZMeEoThNqW/WP1PLsXR237JiQxYTwnODbjcXSzJqt+7W9eKHr+y8k37xYTA7t23zZalMgk+ca8IIyScnLZ4bsACvk4eNsGHjxx0sXRVVwrdXI/RbTtnSePsktjm8DycpZm1CV3aemt8OY02XfKLGHC6bJhyxbN1p2MsSx2gTAINzcAoxX6CH+INmUUsk9NN8T8fidCbXiTeJLEw7f8L7OfUQzu4d3H6IWU8T2jW5KD6oZ7QqNuSo2QyM7FmYKMA8wTwFfN6R6Ywdo2d4EISTbTttcHZ9Ho/onFwMdY05xdJqkmuB5Mr8efqSe9wf/ALZ0z8etf9clUH0r6B9Yh/Ax/EWtGTPoAoAoAoAoAoAoAoAoDnX367ful071LW7/ANZDVRUef+lkQLFwxRioUlceMoJKhgwIO0lipxkZPojW2WzVWvzEZG9j5R4oB7eIC4OD6/GsNg1jr2o4zwGfV7P+dYZTWGsXHGuRoaAtUF1ZKUzQgE1QdXvA7/ve4/Hbj/YbEforrHczM+H64nT2tGDi14SD++Gf72P4r1JGkeTZXrJsxJBQCLRjyCgEJIh5B+Sssog8Y8g9qoDHljHkH5KwQw3iXyD2hVAjJEvkHtUsqEWjHkHtClsVYkUHkHtCrbJRaUHkq2xRY6VpMjLdlaMhtoA20AbaANtAGKAMUArbqM9ntVmTKkZ72qHsHsYrlbN0Yc8IFbTZGjHxXQwGKAKAAKAqV9SgKYoWg20IU20Bdt/6xUBQrVAbahaDbVIG31KAMepQBtoWioHqVCpF+R5BU1LoXPIPJ7P5KiTDoSArRkn/AHAoyda0v8etf9fHVFH0qaD9Yh/BR/EFaMGfQBQBQBQBQBQBQBQBQHgHvr7iyXpTp5v47iS28yXgYWzKsoYywlSC7KMeKc8c8uBrVlREdX1XoSc9bBry+s8R+CY0ZLIVqt33OuPWDpGPLgKfisayXMyC6oO5WxO+XpOp+8mx+RcU0LbPO/fIHokr2v7GTfTRlJTeHUjcJIkm5Op6rACsu3rNwwTnHEcqxoVJmkAyeRPdSfJWTQEp5E91J8lLRC+CRM8UQjybph8FUUbh6Lat0OEEfm201k3O36qLaSNoN/b1Zkljfaf42K1a5eHzFfrU6A+CXMBS4NsHWFr28MYfz4TzPaKobifGwOPE8c1pGWdLKGTjX3/unibpDeLnksJVhxwcOPaPI1qrNI8qz9Epc8waxJGrMU9EZfU/LUoWWnodL6lRoWJN0Im9T2jUoWWnoHOe1faplYsSfuczntX2jUyMWJN3Mrj0S+0aZGLEz3MJ/RJ7RpkYsTbuVz+iT2m+WrlFiL9y2f0S+0flplFlv0sJ/RL7k/LShZa/cvn9EvtH5aqRGJ/Sxm9EvuWqkLvpZS+jX3LfLQFp7m8npg9w3y0Bb9Lt/TB7hvnUBb9L9/TB7hvnVAH0v39MHuG+dVoFP2At6YPcN86gKfsDYfwn/wBs/OqaFLx0Jf03/wC23zqlIqKS9CmP2Y9w3H86iVFYiehLemfmH51UzRT9hTej/MPzqFooehbemfmH51CUU/YafR/mH51LFFG6HH0f5h+dQUWnoi3o/wAw/OoaKfsSb0Q9yfnUM0U/Yi3ovzf61BRaeizeiHuT86gop+xdvRfmn51LFB+xc+i/N/rUs0g/Yu3ovzT86lkoP2LN6L83+tUslB+xY+j/ADf61WxRT9jB9H+Z/WpZaLv2M/x/zP61LKU/Y1/H/M/r1LAfsa/j/mf1qtmaKjoz/H/M/rUstGye980ULrWkjnnUrTcTwyBKOAHHAHPmcmiD3H0YaIPqMP4KP4grZzM2gCgCgCgCgCgCgCgCgOb/AH9EmOkNh+LXX+sShUeaulV3jcfICfa41o0aUt+6HHMj/wBzryXft6qXEqrHx4tiMMsgdSPPYAGSKwQYNcvI5hKY9HuoC0W2MGW9cRS4yZhujJm5YETlUBbtAAqeotmr9VtGRhvV0JGdrqyNjJHJsHHkNc6o0V0PTzLNHEql2kbYqDOXZs7VHEcWbC8+2qtQzYn0s5g6RvpckZZlUktIcbmAJ/fZHDieIPLlW6MjBp3c1murq4hg6tFhlERaeVYk3u/VRR7mzmSV/FAA255lRgnNGiJX1i8TvHIjJJGzI6MNrK6MUdWB5MrAqR2EGs0Dqz4HpMWz+rdXZ/0e0rpHcZkdPK0YOXnhEu45cWupHVFR2s7lUjklCkrBKu7b1hGQiSA7VdsLvAUkM6BtoqPHTkeUY7ONW0aKpjyj2xVtAvG3yj26loF6SL6JfbFLQLjOvol9sVbQA3aejX2xS0CnmxPRr7oVLQKG9j9Gnul+WraAm1/H6Ynul+WloCL30fpkfu1+WpaAi1/F6ZH7tflq2gWNfxn+Ej92vy0tARfU4h/Cx8f46/LUtAQbU4vTY/dr8tTPEuViEmrQ+mxD15F+WpniXKxE6rD6dF74ny0zxGVlG1KH02P3a/LVzRJTE/opD6bF7tflpmiXKy19Vh9Nj92vy0zIUxF9Wh7ZYvfF+WmZFyssbWIPTovfF+dTNEUxNtag7Zoh/lF+WmZCmINq8HpsXvi/LTMhTLDrEHpsXvi/LTMiFjaxD6bH74vy0tAsbVIvTI/dr8tWuotModVh9Nj92vy1NBTLDqsPpsfu1+WoqJqVOqQ+mx+6X5augKwX0LMq9dEoZlUszrtUE4LNjjtXmcdgpoLM7pFp8MGCLyyuASQDbzbyPIWBVdoPZxPGpoSzG0S9t96GUq6h0Zo9+FkQEFld1YOisPFLL4wByKy6LZmavfWjzSNEogiZyUiRzIsa9irJI5kcdoZjnB7OAoqFjhos+n7HE6FmVXkVzOYdwA4RgLuDseJUeLkjmKy6MjPey2zOxjLIhPioWDlRjkWyCe3iR2+pVjRR9iisDZFzs69crv8ANJEjEucN5nB2Hap2niPFAPPNdNC2RWWWPjhgR2EkA+0DU0FiXWr6JfbqWhYppzQmRRK2Ez420jOPy4ycDPZWoOGZZnocMZyUJPDrNWlll28e9tjApuO0tjO3PDPq0eXetx1hmyrNvpXyEQw8orFo0ej+8X7hlzrGuWU0SHzJZTrcTT4OwtFkpGjci2/DNjO1VweLrV60ZbO59vCFUKOSgKPWAwKhgVoAoAoAoAoAoAoAoAoDmv3+T46Q2H4tdf6xKFR5g6SXPOtlGqToXc3GmX2pLfdWlgQpt2aYySjC/Wir7VxvwF2nOCOFfKxdujh48MDK25Let0e09UMDNhvEtacDSOrrM0D3Hm8qF3AxGeYSdZ42yMAHaWkRXkXjjCjI4ivqeTThnUl2Hi8pU8mV9taGtLu9eRtzu7sBgF2ZyAOwFiTivM2dithdbHVwSCuSCCQQcEAgjiCDggg5yKJgnEGoahGqXMlvP1KOhMhWcFgv1QnLS586pPWYKAHJPEZ6mRToZfajLeTy6YQjNLHKzP1IjVzMDa5a4BjE/mkqIDwk63iuOJBFZB9YupHlkaUESl26wMCrBwcPuB8YPuzu3eMW3E5JJrDKjqf4H6XMD4+2Lv8AJbWldI7jMjqDVMGDrGiRXCGOZA6MCCD5CMEesRwI5GgNZ/2LGg5J+h1sSSTxghPP/J0Aqvev6F9zbX3iH9XQFw72HQvuba+8Q/q6AuXvY9C+5tr7xF8ygK/2M+h/c2194i+ZVsFw72rQ/uda+8RfMqAvHe4aJ9zrX3mL5lUFy97poo/7vtveYvmUsF473rRvtC295i+ZQFw737R/tG396j+ZUBcO4FpH2jB71H8ygF4u4bpQ5WUHvSfNoCL90fuW2UUSNBbQRsX2kiGI5G045ofJ2VuCsGjNdi6gHdGgPlFkjDHrrCRXXKiakLm6UnPADn9oJ+pplRdS39kbehB/9PT9TTKhqIvrjdiL/m9P1NapDUqusP6Bf5jH+qpSGpkR6jIfsF/mcY/9qlIaiouZvQp/NY/1dWkNSjXE3oU/msf6ulIamLLdTehQf+Vj/V1KQ1MG41OYcgv81j/V0pC2N0mv3H/4tI/1VWkXXmYk3SmceX+Zx/q6UhqYc3TK49E380j/AFVBqJnpnN2sf5rH+qqDXmO3QjU5bm4ERCsCeObeMe2dgpSIev8Aua9xLTZona4s4JW3AAsijHi8QMYrlNglz97roh56ba+9iudgQbvadBPPTLX3sUAi3evdHz/3Vae9illsTbvVejx/7qtPexSxYme9Q6Pfcq197FLFljd6X0d+5Vr72KWLLT3o3R37lWvvYqELG70Lo4f+6rb3AqgT/sOujf3KtvcD5KWBuvO8q6OlwV063VQpBQRIQxPJslSQV8gODW4yS3pM4TjOUk4zaVPRVvfH1COn95B0bVcSadbzHJO5okX2MKAOFSUk+CLgxlBVKWZ9ZlDvI+i/3JtvcD5KzZ3s2r0P6BWenxCGzt4reMDG2NQuceXHP4KhB+oCtAFAFAFAFAFAFAFAFAc0PCAPjX7A/wD6e5/LIlCo8qdI5ufs1pmjVPSabn8tc2VM1nrdxzri95qyP4oQrigHk9M7vq3hN1OYnUIyNKzqUXGFG4kqvAAqpUMAAcjhWsxKE9B6WXNru8zTyQ72iZwhwGaCQSwkjBz1cgDD1aqkxRgX968rvLIxeSR2kdzzZ3Ys7H1WYkn16Mp1P8DyPqB9W4vj7UNqK6R3GJHUaqZCgCgCgKUBWgCgCgCgCgCgCgCgCgNP98f0/m0+CzlhtWvXkumj8zJnc/7XmbcMZPibd1bgDzvq3fZ6jxUdG5EwcHdKUx64KV1MNkffvrL77hAHydb/AFaEsTfvqtRPLQ19+/q0Fh/ZLaif+5419eUn+jQtjjZ98JeN56wiT2WPyVqhY4ju3TdtvGPWRz+mlC2WN3bpD/AD3p/lpQssPdqk9JHvT0oWJP3ZX9KX3p6ULMebuwSdkSezG1BmY0X3dtuF87axt6m1h8IoMxHbzu/3w5acjfk/RWRY3XXfD3/ZpSe3/VobQgO+Kvu3SV/J82qmZMKPvj9SEirb6YFkc4ASLex9YKuaWdEe6u9K6XXN5p0kl1F1MyzlWQgqQAqkZU4IJrlPeZN41zAUAUAUAUAUAUAUAUBQigDFAVoAoAoAoAoAoAoAoAoAoAoAoDmP4QqTGvWH4tc/61KFR5N6ST860zRqjpLPz9mubKjXGszZPlri95RsoAoAoAoANAdUvA9v9R/8xf8A+qta7x3GGdSKpkrQBQBQBQBQBQBQBQBQBQBQBQFKA1j3bb9oRZTxydU8M7MX2B9sbxtFK21gfOo5OeytwVg8Jd1ySae7uH83XVwjOSrLI6KR6iqo9au1GeJrOXR5PRXJ9XrJSfyioEtTHOiS+mXfum/TQ0VXTZRzlu/ZY/JQyzPsrFwfGec+u7j4KEHmCAjtnP8AlX/SaFMwRseXmgf5Zv00FF5STyz++mhGmISQv5Z/fWoBturdj9nMP8q36TQDLd2T+mz++NQ1wG6W2f0yf3bUMmPJZyem3Hu2oCseny+nXHu2obJn3Jlng1C3mF5PBscEyHx9o9UMpyDxHGgOhXcJ6VSzS3XXurtNiSNlQRh0j+p7io4biMNnt51zmgbmrmAoAoAoAoAoAoAoAoAoAoAoAoAoAoAoAoAoAoAoAoAoAoDl/wCEUk/u9Yfi11/rY6pUeQukdzzqM0ap6RT5JrAIBfN41cjRjUAUAUAUBQ1UDqb4Hhvqf/mL/wD1NpXZGGdT6pkKAKAKAKAKAKAKAKAKAKAKAKAKA0h3atWDzGLOQkZU+TLg5HtYrtAHmrpP0wS2QRpApwo4hR2cOJNdSWa9uO6swP1kVBZjS91hj/Aj2aCxH6ZjH+CX/r2KozCsXdAJ/glqWc6HOx6Vbz9aUUNJkjtr/I+tiqasyOv/AMWtKFmJd3XA/U1oR6kT1TpBt4dUtSzFDBP0t/xKVk0Yj9NcfwC/9exQMqvT3/Er7VVFTMi36dD0gUZHqSzobqEdy+1ogvkOKqIj1H3MdVEFxbHkoxGfvWXaf0H2K5zOh6azXEFaAKAKAKAKAKAKAKAKAKAKAKAKAKAKAKAKAKAKAKAKAKA5b+EebGu2H4vd/wCtjqlR466RTc6jKat15+JrmzSIPdeeNczTE6ECgCgDNABqop1L8D6MKPVmvz7UVqK7R3HJnVCqQKAKAKAKAKAKAKAKAKAKAKAKAskkABJ5AEn1hQHkTWunUdxcygBy7yNjKPsbJ4BZMbGIHYGyK7x3AjPSDuRXc/HzLPg9ojY1u0StSIXne33p5W9z7y3yVBQ1XHe3ah2W05/yL0Qowf7HjUx/gk/vLVRlFF7gupjj5iuD6nVNWRQ7aZ3J9RQjNhcY7cIc+xmqMqJhb9FrwAD6F3XDhnP9WtJjKhb9jd39zLr2x8yraGVCU/Ra7I/7LueXoh82o2KIZq3cq1BySthcAZ4ZXJ/JWC5Rhk7h+pH/AAKb3FKJQkvcF1E87SUf+CrQyoyoe97ve2Fx/wCH/nShSHCDuB3I89G3tKP00YpEp6OdzCS3O7qiT6pX51UUT4yyRKJGhm2rjxljZwCD5UyK5yKeqeieq9fbQy+jjUn18ca4gd6AKAKAKAKAKAKAKAKAKAKAKAKAKAKAKAKAKAKAKAKAKA5aeElYDWrFicAQ3Iz2ZMqYBPZmqVHivpLdc/8Ar/r2ayzRrDW7rn7NcmzRE5G41kWW5qgrQBmlApmlAujjLEKoJZiAoAJJJOAAB2k8AO2qkDqJ3jVhqHR60tZF02e7uJvNUgtFIhk6uQQKz5kwMJt5HGc8ORFd0tDmz19/Zaamo8fopqhP8SezI/OlWlASPfmXY8/0U1tfVDWTfBcZ/JShRcO/cA8/0e1xP8hC3xZjSgZP9nVpy46zTdcj8v8Ac52x7lzn2KhC6Lv+tByA6atF6smkXwA9crE4oB4tu/j6Lt57U+q9Se0vofyvbAfloB30vvxeikzBU6RaOGPALJf28LZ8m2Z4yD6hGaA2HonTyxuQGtry0uARkGC4hlBHlBjduFAPaSA8iD6xzQF2aAKArQBQCVxDuUr5QR7dAeS+6P3lzPO9zZ3d1bu7ZYW93PbjJPEnqnU1uwRmTvZdfjHiazqgA5f3UvD8ZzSwIHuE9JRy1nVP84Sn4QaqADuLdJ/uzqf88J+Fa0wB7i3Sj7s6l/O/6lVAtHcW6U/dnUv52PmVQJv3Fek/3Y1P+df1ajYEz3Fuk/3Y1P8AnX9SsgTPcV6T/dnU/wCdf1agLT3Fek/3Z1T+d/1a0gW/SV6T/djVP50Pm0l1Aoe4x0n+7Gqfzpfm1AUbuMdJvuxqn85X5tVAoO4j0l+7Gp/zkfNowUbuFdJDz1jU/wCdY+AVNQVXvfOkDcDq2qkepfOvxSDUBI+ineY3c0ge9v8AUJVVgds+oXUyH1NkkpT2lqWD2J0a0NbaCOFeUahRWAOlAFAFAFAFAFAFAFAFAFAFAFAFAFAFAFAFAFAFAFAFAFAeCe+i6BDUNbjR0DRpHKGLDI4yjC+zz9atJA2ZoveCdF7iKN5tNDOUXcRNMqk44nbv2j2BUZbE7zwZ3RB8/wBylHrSyL8BqCxgv/BYdET/AIBIv3t1MP01dCET1fwUnRXiUt7teHZezfpzWqsGuukngxtBjz1aXY8mbpz+imQtmtNZ8HxpqE7I7g+vcMf0U8mLGqHvArP0qXH4aT5auQWeoe8+7yDRbC8F61ks1xGPqLXDPMIn9GiSEoHHHDbcistULPTmqWgXpJp4AAH0NveA5fXY6XoQ255nX0I9oVkFrWKH7BfcioCw6XH6BfciqBJtChPOJPcigMSbodatzgjP/hFWwaQ6adPtFjmmt4rBLqSBzFM+EjhWYAFow5BaRk3DdsTaCcbsggbUWweY+nPfK9Hhc3FqdGjne2fq5xDbGRI32q2zrHaNXk2sMqm7aeBPA0oUa5selfRDVL2K1bQGtruUNJA0tr1eRGC7uJYnkEQj2jLOUwSuCSQKVqUYYu6jpKOZNPuulEMasyI1ne3XUMVLKzRwTXIiZFIxuaLB4EZGDUylJn0J7+iSzmNv9Gtfu5wAwtL7T9PlKpw8bfEkA2gHOTKWwCOeKtIG5L7wn9vbQLLcWk+wZDyiADGCRuaJbhmUMRwGDwIPlqOJKFrfwoVs6K6afdOj4KMIMFlIBDbWnUgHl42D6lMpDBtfCs2ksjQxWFy80ZAmjMQTqQQTudjPtI4AYQscnlUotFl94UtUaNTpUyCWVIY3kA2mSRgiDxJmYbiQckDAq5RQifCezySTRQaTFL1EjQu5mlWPrEOGUMI25HgTgAHt4UyiiK9J/Cj6jDPHb/QO0aWb62FvJyr8+RWHBxjiMcMipTLRbq/hHdciieb6BaYUQFiPN96ZABzOzzKCMfADzqtEymB0Z8Jfrl3EksWhaZsc+Kz3l4FI4eNu8zlQMny9nbUVsUIf2zvWhdeZG0LTuu2huF3dkbDw3g9RkqTnjjs5dlTVOi0OHSHwlutWsTTyaJpZjXnsv7wsPISptVK5PDjjGa07FGJ0b8Kdqd1v6vQrH6nwY+bLojdjIXxbc8T2H18451i7FFdU8KXq0RjWTQLJDK22MG7uTubGccIOfOlkocdQ8JDriDI0DT2AUsx81XgK4GcEdRxP3uf0UZaMPQfCY6zdRGaHQ9OZc7V/bN14xBwwz1YxjhzGOY7KLMxQlP4TLWluEtToWniaQblXzRdHKZALDajA7c5Iz2dnDOt2nEUL634SDXbdHlk0Cw6uMAtILi8AAPPgYgRg9uMeqKZhRh9D/Cearesyx6JpwCeeY3l1hcqCM4iPPOBgE+pjjUzCi/pR4THV7RkEmg6cyyMER1vbwK0hHnQTbZzngMgbjjFMxKHu58IbrSxmQaFprMFVuqF7fdZx4sONlsynb4xz2VqxRBtI8LnqMkqxR9HrFnYsqjzfc8WUkEfvXIOQeYHI8q55hROrjwnmuRjI6OWLjjnZf3QIAHM7rED2FLVS0U6G+FM1i+Rni0CwVVO3dJqN2qlg2CgIsGO9eJYEDGBxPEAiUN3Svwteq2TBbjo7agMzKjLqE+2Tb9kpNkOBAzxwcY4VG6LQ99F/Cuz3EKyPYaVAzZ+oPqN00q4OBu2WDKC3MDNVakoctR8KNPHG7ix02RlUkRJfXu58fYqW04LuPZkgerWsooNH8KTPLFHI2nadEzruMT393vTifEcpp7IH4ZIDEDI41VEUZcvhP5QOGn6dIxIARdSuEJJPopNPVBjylhTKKFbXwnsuwPJpdhFu5KdXLNjykJZNt8nE8eymUUKt4UPAJOnWXD//AGx4+oM2Q4nsplFDf0O8Mdo8jhL/AEzULME4M0Zhu4l44yQjJLj1RGeHkrDFHujoP02ttRtIL2zlE1tcIHikGRleXEHBBBBBB5EUIPtAFAFAFAFAFAUoC1pAOZA9c0ALIDyIPrGgLqArQBQBQGi+630dghuUnllih61/qTSuEVpDxaIsxADNgsvHy1pMEksOnkiRqIo45AAPOzxnl/4sVYqwXN3TLv7QlP3skR/p1vIBCfun3n3MuD6xi+fTIBg1Tup3uD/cu59uP9ZVUaBr/X+6te8c6XOPXaMf+4a6AgGpd2S4B46a/ssnzjUA1nvgJhwNhjHlkQfpqgnPcv76KGBybqDqUxxKMHPl876vLOeHtkYkrBuPuOXsmq3k2tyL1cJhFpYRZBYQbusklcg4zI2MYPIHsxXFqgbqFZBWgCgCgIr3Uemi6dp93eN/AQsyjtaQjbGo8pZyqgdpNVKweCdT1kadps93cnLQwz3dwTnx55N00nHn40rbAOxcAcq77kDxiutarJF5ra+hhNy3WyMlmiRCRuDhMQbGLPuDsQxY8Sc8ax1m7I/bd0/UoroxpqsXVtEQ92Le3LqCcPDE5g6yHfjDhMBgFJ5VlO2aM2y1m8k3pa6tE5UMY4oo4VUAHhHuMaBcZxxPDnwGa0ZRi9HO6fdSI01zqUMN1JGIkJtYIxEu/I3dTCiySleC7s4OSQ44VEysU1jp3qaCJ01OOa3mJSZ3hs32DJGBA8bSZJU4ZUUjafGAK0dhDnB05mleOKDWdn1MR7NkaszJGzNJI7ooQuFJAyAAABk89dhGMPR7uoTyda19qKrt6xIPqES5UrhZpHihVnKkZUSljx58Kl8yos6RdJrqOCO4ttUMzNN1YJWLxCuCz9WwbAUHgzRgE+dOajemhDLl6SxSKirqjK+WaQmNg8rSOMsQAqhVJxx5c8jlRSCGHTL9ReSea7svHC22Bly+7gQ7BgGKqTjPFgdvDHOsZlZWXa06tbzPb6gZXCqVVmdA4fIwod/G7cjaVAxmtvcEZthfWot4YhfmFkLMdscgZsoMxLtYAomCQPKSeFEkgzC6uOK/DTXRkgWOJg6tvd/HJMRKs+1TjiDuXDedyTmONspdrMls0M7RXzythtsRVlRmL4CYY8QD6FcADlgUe4yI6BJaeZ0SS7MM5ZXdkjcjJXaYxsIDjOGDHGCT5TWIpPeBW+sI1mt3a9D2rKWLZ3ypIMEfUtzMoK5GcgjODxo1T6iDnItnK0zQ6m6HEsixsJFRDjeItzMAee1VA48gMCtZUUaejBthAonvTBKRhtsRdF8Y8mXGGbtK7aKKQFtVtY45rZkvZDFIkheUqVkRA7R5Qbi2C8bDGV8p4UlvA9uba4fYmoSkyDaINj4B2HG/LKmG2E8uJzzrOgI50D1e2SN/NMsSs58VmjkdQoYkPuikjwSpC4IbxR5eNZQH3WY7V0B81RKhJCOsFy2HXjuUtO+xuI2nAyOI4VdANYt7bt1aXt+wuB/TppzBrzTJT5oUGQKDOyGRchVU58cY8bHENwOT2msGkbdlsLcxbvomnVlAdwhxMAMdiyBw2OBG3dzrehkYe5nGrvNCLzawmdIlCMUlUYkMmCyBWO4A8dxO6ioDV3SrSKNMLetcypIoZGDEKGODsYs68M8QDwHCsyoIS7lmlwTM3XPCHDMiJKjsH8USF9yMhjZEBUMG45byCt4ZWZvSaOOEbortWzIuIOrljCxs2G2tLuYhc8Sc8M8a6MIf7jogAkdwdRiSJyYFkEUmGePJdWG4gvxPEgbhjAAFWiMauj1t1txPAbuBgCqxs6OUmEwwuArRsjKVbxt4CnbwOaiNGL0ksvM0UhW+ileIgNCqkMVRsNhiCCcAjieJ7aPTUGdd9EUljV2vrULkKxJkxvKhwjYJVmUEcVVc+rSga/6RWKwzGNJI5V2qyvGTtOcgjjxBBGMeqK5T0KdefBL91DzVoT6e7ZksZWCjPHqmOAfaCn2fVotxyZ7qqkK0AUBQ0Bovvk++40zo7byb5Yp9QKN5nsFk+qPJjxeu2B2hizjc7LnHIGgOZ+veFC6VkyEX1pFuzhYNPhWOIHtjNwbiXI5BpJHHLhms2bo0t0i783pJeE9brl9JuPJbhYR6wWERKo9RQKmZlpEdTp3rsjCXzdqD4IYFr25dCQcgFetKuuRxVsgjgQQcVvKKQ+S93npGMbLu4t8D/BzJHkkg5JLuc8OwqByxxxVysUibdBPCHdMtMYH6JNexjnBqUEdzGQOzegguV/8ADOKw3W8ZT3r3tHhWtI1d47TVoxo965CI7ydZYTOSQAk5CtEzcMJOq8WCh5ME0UrMtUe5opAQCCCCAQQcgg8QQRwII7a0ZL6A1l3RtCtb2RY7mCO4VMhI5RvjXdwZ9h8UseCgkEgA8q0gQ2570DRJPGGl6fk8c+ZYx8Aq5gYLd5jpQ87p9kv3sZX4pFMwEX7z+wHK0gHrPMvwSUzAwbnvSbYcrZPYnuP1tXMLGW871C34/tdff7g/+5Sy2M1x3pFuf8Fj9mWU/C9LFiC953annaQeyWPwmrYsk/RDvL9OL5ktbdQOOVQMR7oYqZgb17megHT92n4HVIDLbkDA2MfHTHZtbjj+Maw3ZCfVAVoAoChoDzV32/SXrJLDTFOVLm/uh/ioDtgQ/fzNux/EFdIIHhvvw+lLm3tdMgXrJr2UzSIW2DzNa7WJZsqArTNEhBPjjfzwa3IqNFJPcpsKWCxlTw2XEKhRy8TbONp58uGMipRoZtQ0S4fcEsbGJWB3GSSEvk53EMshxnnyPHmaldSAwdCLOUPJZi1s2SCUGSSZo+slLMWZY5HJVsryIUgCpG0VmV050O42tcGCzEdmwmWONomcKzYQSrGfqnHlnbkjhWHdkQ96JfXcsHWdXpgncRsPGgURLjLrJGcncw8r5XHKt26srIxFFcWtz1fVWBN8DO00m1oY1x4pRydsaE8VGGBzwz2Yi+ZCQdK+jc90phRNPjidQQqTRNI7IMsyPGoYAg8scAeJFVu2EYfQ7pJcTRuDb6TG6ZihWUxQuOrON5RyxkXAPagJyRmtJgwNahuradb4R6dNLKwtWKbZIIskZLKCiK2Acvk4xisP8O4EyuRPPAIUOk7pCY5JElibrA/ihERI96PvIA2lznhxyKmrKhj6I39xA8li406KOyJhXzRiMyvhgcTMrlirFWYmNcFSpxxx1jYFelNlcMWv430+4kswzRRW+JtiPvIDCNVRyqqxG5gxCMRyNGQdbDpDcyRK5udHjkfDOGaJGQFB9SMe05YHcxKu/ocHFVMUMukRXVjIluDYpaTA3HmuRMxOzkSFFmdS3jKSFCxNhSCCQKz1Az+k1i90yt5p0llgdp4IIpVkYMi7thKxqWG08RLtB4E9lSVcGKLujPSm8uoRIZ9Kt52werl6mF0CEgkoySLiTIILSBgMECsW2BmElzYygxzac4v5n6+VNsqRsgIZiWVVRFYYyoK7uHM8VtEHzW9Oe8UW7ajpUkUjx7UUqJC5YBPFjiEg3PwHAA8qrkwIdH+mN3IZY5Z9Mtnhd4IhMiRhthAWQNskBUAEZYqCTy4VnNzAnJb3sMkl7ayWF7PL1MU4tlE4WJiSHwFSMAgHLKSccxwp1gkGp6lFPbG3lutMPWoVm+qLEckk8AITgqCF4MRkZ9StWUarW4mjjWKO90bqkG1AzxuQo5bmMRLNjmTzNZ7CFy6jN232hj1QqE/khq31g0f0kyl1OT1ZKzpJmDBiYHY26PBxtI447CTyxiufE2idL3G7g4ZbjTsNx43sYIzx2sNvAjkQCRny1qushndzbRZra+ubYmwdcRySPJLC0TxsrALFKwZclsHGwHxeOMii0KP3dW0aWS0m6oaaIkj3siS27Tlk8YNEYkQk4+xJ49grpKq4ERrvuO37i7ZY+oHWLEztcbVVYlcBwjN4qySbkUc2JKgY41nDDJ509hupkuYd2mGMh1QdZB5owMkKMSFt68scMnjgEmtTbIKdFLm4msY2S209mCxupmeFCkWNjNMjsG3O/KUsB2evteogxTQXMeoQuYbBpLiJo1ELxvbq0Z3BpAjlUdULcSQMcePKpxNkz6Zabcy+IsFg0MkZYdbNDvTflWKv121t5BYSIoHHHEqa0ZRqbo30IurmPdHGGaImGTdJGjbozg43su7GOJBx7dYWpox+l3QS6to1mmiCoH2EiWJyN+AMiN2IBYKMnhWZrQlm+O8C7o1xbaq1nb3c9m94I9klutuzs0bqGiK3SSQFZQUVtwVgisVkjbDrzg+BGdNL3uw9J7EBZotMvTvO57mHUNIKpnhgwxatBI4HAs00CseIC5wN0YHjTO+U1SU7U0ixkPlj16wHH1El6uX24xQpIbnuxa7HGZW6NNKgG4+Z9Y01iFHFj9WeFTtGW4MTgcMnAIHPrvgfCJa9qwkttMA0OzYlTKribUpU5fXF+pWufG+tl3wVIaM5FBR4/l6HrIS01xczM5LOzysC7E5LNjG5jzLNlieJJolzKY8/c0tCP4Qf5Rj+Q5B9qq48gEPQC3Aw0STL/GBjf1hJHjHuDVUQbm7mur9H7dBDLpnmSQ8PNDySyox8pnU74wM/wgUDsroqKbJ1LoUm3rIBHNGRkIxG7H8SXkTjkJMeqw51uga+17ojayhsLtZeDIy7WQ+RlPL1CMqw4gkVlpMh577pPQ1IclcfkrhKKS0NnsTwZ3f9y6fPB0d1iYvp0xWLTrmRiWsZWIEdszHi1rITtjycwNtUZRlWLKZho7FA1oyQTX9MYXG/7Ej9JrQJbZXSBQNwzjy1GDK81L6Ie3UBTrx5R7dAIzyDyj26Ab7iLPLFVAbZbE5rQBNPNVsDzotrtzWGDJlssypJ6FWX3RHyVAZlAFAFAWu2Bk8hQHhHpZ0mN9qF7e5yssvUQeTzPbkohHqSOXfPaNvkr0QVbweCe6d0tjvdcvbuQXDRWzJZ2UkAcqFtCRISVilBZrh52wwAAIGDwrF6mkiG6zNbzuzva6nKV4b96qNq9oHmddqnGeIU+XBzUdMtFnR6z0u4OUtNQ6kbleU75QJFxhFS2SQsOeXJBHkrMYqxQ190FbWGCUR6fcRqfFgupJJhufAIzDPGoALEgg4bAyOypJciEr6CdFbY2cqPaTRdTDG7pLczwtesvEdXFHAUkYE5Vezn620rQITNZwz6hDHFpk46iJmmtTMzFznxWY9WHUAM24A+N4uMcc4itdwJzqWnxlwF0W6uAqqqtLNdJtUZwgR1k2qgPigPtGSAAK7GkRTovara3D2h0yaa7lMkwPml4GijOAIwIkBZMYDMZBuI5VjiQcuk3c9uLiHqk0Zrc7gxlSZpHODxXEhK4PDjzHkqtFHmPozOFCfQHKrg481TBScYLFd+3cwHE4Hk5cKpDCtOgd0l0bkaMcbAiwCYiONgc9YrBusLZweJGCMipRWO190Su5VkB0HDyBgZPNDu4LfZgvJxcHjk8zzq0EIdHOg97bwLD9BetKrtaVp2jeTnncI5AMYJG3lgny0RGI6n3NruWW3kGiiIQMWMaSkpNkEYkJckAZ5rxPKpRSRHRbzhno9CQOStPIUHrKXwPWA8laIMvR/ueXkDTn6DrN18jOBLLwhVhgxx7WBK47W444VEijP3TtDljtcS6RFaK8kaiaORy6sXGARl8hvOgHHEioyEvbQZBGn9wQ0g8uDHsPHO4SGQvyJ3RjjnlWKfIhGNWsZLCZtRn0herfqoRBvdIY33+LIu0SOHJOACAN3LjWXa3oEy1rooJLNgmhzLeThg52p1CJJu2vDceaWnMwBViJLZVLbuNHrwBFuuutIso+u0aJkUpCZpWkDuXOB1hjLHB4ALjbxx5BUt8gSGTTHMYYdHY2kYZG0YiIJ4eMJRIPFxzj55HLjWt4I90jne0ha4n6O2yRKVB3SSgDcQMkgsceuBUenAodAOlsV9MYYdCsfEKmR988ixI38IwWIsQOW0DJwcZxUsEQ7pPcsvUe9vFsmt7cZbEauYlVOHWKX2yKj8H2lAUzioy2T3oR0JglhZl0+82XFowedjb9XKBiQrCDHK0cjlcRlcZxjcNwrSjZLNZdOOgZF5DBDaXMHXQlo7e5WN3Lq2CUaLxSCOYIBUj1aw0zVilr3DL1opZDAUeIrtiaFxJJu5mMhSpCAeMSw+CrkkLIx0RvI0uo2kiadfqidTuMRd+aKW2sw8deW3cTWVo9SM3n000ALJGx0G5uA0QYskk6GNmZiyMiROGK5DhyeOccNua6NPggmRbobZvawTQSaNfzdcHjZx18X7XZw6wlRbsDt2gl85JHDANdFuINnTmzgSGKQaVe2QjuIy80ryFGRjteMmWJQCyklSDwYceHMy2TC8mjlto5DpMjxKgijAnJkEIbMfVnqTIVJZm8XAXJIzk1uyGr76GRLl1t4Li2dwskcJ3NKFYYdEIVXdMoG87nhxHCuRbG2+0S6kLl4Lksw8ZmglzwGQWOwDhjt5D2azvIIdzrpc1le2l4pwYJ4pD95kLKPe2bHkOD2VxWjNPcfR73NOlaahp9pdDDCeBGOcEbtuG/KCfZrscjNvuglnLxe2hY+Xq1z7YFWwN+o9C0SJxCNo2nxBw7OQIx7RyKqYOQ/ds7kLrdTTRWTwRvIzBFY+Lk8ezbx54wAD28KNGkaVv+jTofPbfUkUofb4r+UVllG17aReanHlHEe2M1UwKW936tbtAz4nzz5dtLQJH0c6WT2fGJyYvs4WyVxjmnoSPQ8jy8U8a2nQIv0s7st1M7D6HkMhKpMk3ErzAKNGpKN2oT4ueByAaw5kNZ9LL+5ujwiYD1wPY/R7Fc5Ss0Zfc+7gV7f3EMCssbzSIiHi7AswGcAr53OfPeXlRIyz6NuhsgW3gh3FzFFHGXY5ZyiKpYntJxk1TI8z2itzGaiAmNOTyUBd5gT0IoCos19CKAr5lXyCgKi1XyCgK9QPIPaoC4RjyCgKgUBWgCgCgCgNXd813QBpmhajd52lLaQKRzBZSCR/GC52/wAbaO2tR3g4sf2VGvqojR7RUVdgUWYOFxjG4yZz/GGPLXRtm0iG6Z061FFCRMEXJO1VOAWJZjxYnLEkkkniTUtmhyi6damecvDkRszw9vtpqZ0E9L6QXsCCOBzDHlm2oCq7mJZjjJ4sTkmhbFtS1y+nUJNIZkVlcLIN6h1OVbDZGVPEA5HlqkHVOmup4/fL+xHD+r//ABS2Bua/vOsabrCJnCq8oVFdlXzqkqoyFycCgMr6N6gf8Jm9sfJVAlFJdiTresfrSuwy4TrNgOdm/bnbnjjOM1NQZ66tf/bU/sMP0LVtgtN/fH/Crj3xh8FQFjPdnnc3Pv0ny0BTZdds9z7/AC/OoC7qLk/4Rc+/y/OpqCoguh/D3Pv8vzqago9vd/bFz7/L8G+rqC3zPd/bFz79L86moMPUNDuJQVklnkXgcNLIRkHIOC3MHBB5g1GDMSS/H+F3R9eaQ/0v001Bg6rpV3OAJZ55VBDBXkdl3A5B2k4ypAIPYePPjWWmwJpotz6fce/S/OqZXzIXz9HJXXbJJLIuQdrySMuVOQcMxGQcEHGQRTK+ZTJ+gtx2TXHsTSj+lVUWgY910alkUpJJM6nmryyMpwc8VZiDRxstien9E3hLNC0kRYAMYneMsFztB2EZxkkZ5ZrKgQXvLW6ZSjXFyyMCGVp5irKRxBG/BHr5pkYEre1ukUIlxcoigBVSeVVVRyVVVgFAxgAcPUrSi1xIJPp9wZElM1wZYwwjkM0pdA2NwVixK7sDOOeBUcbZTNa/1Acry8/nEvzq2COQ9EnSUToCJVk60Pnxuszktn0RJJzzzxrDiLNjaF08v/qguL6/TxR1bRylhvyM7wQcjHIDjn1q1G0QfJu6RIuMahqjZ8jRkgervi41qxqRjpJ0vubmOSCa9upbeUbXiljiO5D5SsYII55UqQe2haMCPW5lVVW+vQqgKFGcKoAAA58ABwFAJz3KNMlwb2+6+JWSOUqpdEbG5VO3hnA4kHHs1KFCWr9MbpApi1O/fO7eriNAB2YPVHdnkfYrOWhRqK90sb38TduZjkkkncSTnGOJJ7BXNws0dqfBi9PXu+jyRSElrVzHx5+KShHtru9Zx5arObPX9QgGgIb0o7lFndA74lBOeIA5n1Ktg89d0XvL4ZNzRRo3rDj+SrYPMXTfvOGjJKxvGfKuR8GPy1aLZqLX+9uukJxh8ejXj7oYb8tSi2Q/UO5VeRc4H4ehJI9pg3w1Cka1K2uYvPWtw3/hXbw8uOdazEItfX8+D+1ZRnPMDPHyca5ttlG+FL1iBHbEdgyCcfkrOos9T95l0MvEvkmuIGL8o5cECPPA7VxgMRw35zXRXxMtnV7oRA21c55VWQndZAUAUAUAUAUAUAUAUAUAUAUBSgNQ99Hp1vLpNxHdwPcWroyXMUbFZDC6lZDE4IKyoDvjYEYdV4itRBzhl70hrgNNo1xbaxbdmyaG21CL+Jd2dw0WyVRwJjYq5ywWMELVs1Ylb959rP3KlX7+4sF+G7pYM6PvPtX+yso1++v9OX/5dMz5DTmLDvQdT7YLRfvtU04f/INMz5Etcyrd6XfjmunL99q+nj4JTTM+Qtcyn9izeDnJpA++1mzHwE0zPkW1zD+xmuRzudCHr63bD/2zTM+QsB3t03be9Hh6+uQ/ogNXM+RC5e92ft1Do2P/AFyP9FrTM+RdAPe9kc9T6Mj/ANc+SzNMz5DQq3cIUc9W6MD19aY/BY0zPkQTPcWhHPWeiw/9Yk/RYUzPkA+k9b/dvor/AJ3l/wCApmYKfSjtvu50V/zvN/wFMzBU9ye2+7vRUf8Aq0//AAFMzBcO5Va/d7op/naf/gKZmNCo7l1n93+iv+dZ/wDgKZmKLV7ltkP/AO4Oiv8AnS4/4CmZguPcxsvu/wBFf86T/wDAUzMFR3MLLGPo/wBFT/6rOP8A4FTMxoUXuWWX3e6K/wCdp/8AgKZmC8dyqy+7vRb/ADtN/wABVzMF69ymy+7vRb/O03/A0zMFPpUWf3c6L/52m/4CmZgD3JrT7tdF/wDPE3/AUzMpae5Ja9ms9Fv88y/8BTMyFB3Grc8tX6Ln/wBaf/gKmZguHcRhPLVejB9bWz/wNXM+Q0LvpFx/dPoyfW1wfpsqmZ8i6FPpCA+dvujjetrsf6bUUzPkNA/sdpDyudAb1tdt/wBMAq5nyIyp72ac8pNGPra5afpQVMz5AsbvX7rs+hR9bWrE/CRTM+RfWJt3rF4eSacfW1jTj8MopmfInrEm71HUOyC0P3uq6Yf/AJIqZnyL6xCbvS9Txws4m+91HTG/+WKuZ8hpzGq+72OWD6pfzabpcAzvlu72CebGD9Ys7J55LmTsWMyQBs46xe1bCPeneSadZxWTR2EMqWi5CSzgCe5ctue4lVfFQyscrGvCNAF4chGZPTVZAUAUBTFAY91p0bjDoreuBQEW1buT2U3nolB9QD5KtgiOod7XZPy4exVsDJc96VZtzI9qlgx4u8z0zPjqrf8AhFLBJ9H71rR4cYtVJHaQPkpbBN9M7nNlD9bgRceQVLA/w2ir50AVALUAUAUAUAUAUAUAUAUAUAUAUAUBga3pCTxNFIAVcEEEZH/XZVTB4u7rng+4LiZp7Vngc54oSCM+RlKsB6hNAacv/ByXbZzd3DffSzN8LmqWxqbwYMx4meY+u0vzqV1gtPgupO2SQ+uZPlq11vvFos/tXEno2Pu/lqV1+8ugf2rdvKfaaldfvGhcvgtX/wCgaV1iy8eC5cf/APJq11+8WVHgvZP+gaV1iwXwYMvk/IaV1iyv9rDl8n5tMvX7xZUeDDl9D+bUpCyo8GHL5PyUpCyv9rCl8n5KZULD+1hS+T8lXKSyo8GBL5Pzf+VSkWyv9rAl8n5P+VKRLAeDAl9D+T/lSkxZT+1fy+h/NplRbKP4L6X0I9yKUhZYPBfS+hHuamVCwPgvpfIPc1aQsP7V7J6Ee5qULKHwXsvoR7mlCy3+1gS+hHuaUSyh8F/L6Ee5pSLZQ+C7l9CPc/8AKrlQssPgt5PIPc/8qldYssbwW0noR7mrXWWxI+CyfyD3JpXWMwL4K9vIB/4W/RSusllf7Vc/qe5eldfvFlp8Fc/l/I/y0rrFlv8AarH7GI9brPlpXX72LX6Ra3grJOx39hpf0MKV1k05e4Uh8GNcKcCRwP8AKfOpXWNDZ/cr8GwkUqyXBJwQSduWOP4z5x+Wgs96dBeg8NhAsEKhVUAcPU9XtqEJJUAUAUAUAUBSgCgK0BSgK0AUAUAUAUAUAUAUAUAUAUAUAUAUAUAUBRqApQFhoC+gKihkrQ0WtQFVoCtAFAUFAVoAqMBRAKoChkKyaKGqwUWiIy6owihqooCqAFZBWtAKAKGWFCoKFCgLGoC+gCgLTQFaAotAVNAWmgKrQFRQFaAKAKAKAKAKAKAKAKAKAKAKA//Z;" vertex="1" parent="MWoTZahm21f5wGESu8r7-1">
          <mxGeometry x="677" y="619" width="223.3" height="140" as="geometry" />
        </mxCell>
        <mxCell id="P5NN8UxaYEoYsG5dYnmy-8" value="Link to SCADA" style="edgeStyle=none;shape=link;rounded=0;orthogonalLoop=1;jettySize=auto;html=1;entryX=0.5;entryY=1;entryDx=0;entryDy=0;fontSize=13;exitX=0.75;exitY=0;exitDx=0;exitDy=0;" edge="1" parent="MWoTZahm21f5wGESu8r7-1" source="P5NN8UxaYEoYsG5dYnmy-7" target="WYvArH5Ne-kgaR7D99Rx-51">
          <mxGeometry relative="1" as="geometry">
            <mxPoint x="805.75" y="630" as="sourcePoint" />
            <mxPoint x="884.5" y="430" as="targetPoint" />
            <Array as="points">
              <mxPoint x="845" y="530" />
            </Array>
          </mxGeometry>
        </mxCell>
        <mxCell id="P5NN8UxaYEoYsG5dYnmy-9" value="" style="shape=image;imageAspect=0;aspect=fixed;verticalLabelPosition=bottom;verticalAlign=top;rounded=1;dashed=1;strokeColor=#8A8A8A;strokeWidth=2;fillColor=none;image=data:image/jpeg,/9j/4AAQSkZJRgABAQAAAQABAAD/2wCEAAkGBxISEBUSEBIVFhUVFRcSFxUXFhEVFRgVGBUXFhUVFxcYHSggGBooGxUVITEhJSkrLjAuFyAzODMtNygtLisBCgoKDg0OGxAQGysmICU3LS8vLSswNy0rKzU1KystLSstLzE2LzcyLTc3Li0tLS8tNjUvLS0tMi0rLTUrNy0tLf/AABEIAMsA+QMBIgACEQEDEQH/xAAcAAABBQEBAQAAAAAAAAAAAAAAAQMEBQYCBwj/xABFEAABAwEFBAcEBwYFBAMAAAABAAIRAwQFEiExQVFhcQYTIjKBkbEHI0KhFFJygsHR8DNDYpKi4RVTstLxFiRzwjRUk//EABoBAQACAwEAAAAAAAAAAAAAAAABBQIDBAb/xAAwEQACAQIFAwIDCAMAAAAAAAAAAQIDEQQFITHwEkFxUcFhgdETFCJCkaGx4TJi8f/aAAwDAQACEQMRAD8A9OtvS+izaPEhV3/Whf8AsmOf9im9/oCrizXVY6H7OgyfrEYnfzOkqW63nYEBnh0jtR0s1o//ABqD/wBUo6UVm9+hXbxNGrHnhV4ba9c/S6iAr7H0wpPMYmzuOR8leWe3seJH5j5aKttWGoIrUmPG5zWu9Qqt90MacVme+i7dJfT/AJSZHgRyQGwBnRKsrZb4fTcGWkYCTAqNzpuPHjwMHmtHQtAdz14EbwdqAfQhCAELipUDRLiAOKqrb0hpM2zzyCAuELE1+mWI4aQLzuptLj8pXIr3jV7tneBvqOaz5Ez8kBtjUA1I8wufpDPrDzCxzbnvF2rqDPvvcfk1d/8ATtu/+xSH3Xn8UBrhXb9YeYXQeDoQsh/gNvGleieYqN/NH0e8qf7ulU+y9s/1gIDYoWOHSSpS/wDk0KtL+KHYf5s2/NXV337TqjsPa7yafyKAt0LinVB57jqu0AIQhACEIQAhCEAIQhACEIQFY2zb062zhSA1LhQgZFII6sJ+EQhIwaQTbrMCpcJMKAqrTYA5paQCDkQcwfBVNJ7rM4MeSaJPZdmXU3HTPaOPhrBOrwqNa7G17S1wkEQRwQgcsNqxiD3hrxG8KHfN9soAiQXfIc+KzlS31LLVFIgZTFV7g2aZDg3CION8gAgxrOeQSXHdP0uq6rXk0mOgNPxv1M8BlzlRcXG6JtduM0uzT/zXzH3G6u8MuKuLH0Ps7O1XLqzv4zDfBgy85V5VrACGiIyUYyUA9TfTpjDTY1o3NAaPILh1rOxDaC7FEKQMGu4rkvcpYppcCAhYnJRVeN6m4EhpoSRm2x21VlsuWy1TiDeqf9elDDPFvdd4hXRohNPsyEGedWtNk/a++oD942Q5g3ubq3mJC0N33m2o0ODsTTt2jg7801hc3RUVrsRouNayiBrUojQja6mNh3t27M9QubNCqLmvNtRoIMtdpw4K3QkEIQgBCEIAQhCAEIQgOYRCVCARCVCARCVCASFy4gCTkBmTshFaq1gxPcGgbSQB5lYvpb0is9dos1K0QHPHXOYx74p7QCBBnxGWYgpdd2aqlWMFq9Suvu2tt9spUmMxWcdZSDj+8qGnifh24Q1o/mG8Lr2d33FmZZ3Q3DLG5RtJwEfW158wVKs162H6ZZ+pqsFGhRqNaIflUcYOyScJJJO9V1Kx0T17WV6eI1n1aPbDewY7MzMS0ZjunNcs23PqXj5WX9jqh9i2prqVn5vo/az+B6CylOadDFX3BbsdFnWOaXgQ6C3XeYOsRplMq1hdEXdXMou5xCWF1CIWRkcwiF2iEJOIRC7hCA4hELuEkIBtzFFrWfcp0JC1CDHV2/Rq85ClVJ1yDamp5A6+a0lx3pTtFMupPDw1xpuInvNiRnzCq+llFjqXUnN9VzQ1u0YXNc6pwDAMU8BtIVF0erGyVnvg9VVZTtFQAd1tQHFVA24agfj/AIarD8K1zm4tejuE7qT9LX58NH4PQkLljwQCCCCJBGYIOhBXS2EghCEAIQhACEIQCNOSVYX2b9KXWhpoV3TUYJa46uZx3kb+S3SARCEIATFvtQpUn1XAkMaXkCJgCTEp9QL/AGTZK430an+goYzbUW0YK8OldO0OlziGjRkEgcTGpTLLfQd8bfGR6hY6k2u1pL+0SzE0EAAO3CNmYXJqPbTdiaHEEAQIBJMGQNg/CFpcbnlauGqTk5t3enf1Nr7hwiaZB1Esz8ExbKVnpU82Ng6NblJ3ZbFk6tQtYBgBcXYYBLW6STIzAyOS7DgWgiRlEf31PNR0mv7rUi/xXtewtorZECGiIDRuAyG8+K90uy046YPAei8FdC9m6JVZotO9o9FnDQucv0lL5F+hKkWwtwQhCAEIQgBCEIAVfet5Ck04cLqhhrGFzWyXGATuaNSdwKhdJb0LB1VMkPdmSNWt/An9bFiH3TSc4uc0lzsySXGec6rCVSzKnF5nCjN04q7/AINharFgovOPrK9ctouq5ZB7g0hg+BjQXEDhJk5py8rN1dey1GNyxus5/wDHUpk/66VJYipc7CZxPGggGAANgA08E4+x1JBbaKrQBAa0wBx3k8SVrlO7bfw/Y1Uc7hC34fXv6qzNtZ6ZslZrGz9HrOwtb/k1SCcI3U3QYHwnLQ5Xy8yfUteWG1ODW5w7E8kjMElx2EA6K46IXzXq2jq6lUvaKbnZtYJILQDkMhmVlCS2N+GzGlUahFPX9jaoQhbS0BCEIAQhCA+dbhvR1nrU6zdWnMbxo4frgvoOw2ptWm2owy17Q4eK+aaboPP1/wCPQL1b2T35LXWV5zb2mcto8EB6MhKkQDVptLKbS+o5rWjVziAOGZWI6SdPqYY+lZ6T6mJpaXuDmMAIgkCMTvGFnvat0kJtTLPTgtoDE8ZwarhkDH1WH+s7lkWX+7bT8iR+BQNXIloq1C4TUqYWuxNaTEeIBJz2FPvvKs6q1xrZN0GHI/akCVJbf1M95rv6T+S6/wARs7tQBzZ+QWPSjgll1Fkdt61XVS54pFsdyGhp45EkH9Qnxb+sgYC1xxEtDXloAOuItAiIXX/au2s8y31TFtbRZGA5niCFHSa3lq7SYlWdhE+YHiMvIlXl1dMLVZwGte1wGQDmNIgbJbB+azT3lNlZJWOyjh40loe/9FL/AGW2gKjRhcDheyZwu4HaCMwrpeJezy/fo9qbiMU6sU38DPZPgcvEr21SbxEJUiAEIQgBCExbrbTo0zUrPDGN1J9BvPAIDxfpZaovCuGmoPeunABA3Ysp8lCqXnUYQBWcCc494/LfAOQ4lSb4vmzm0VnnEOteazThJkE5TGhgQoFit1B+J1Q9XOx4iWiYg+Oi12R5ipRoSmm21q76f19Sa6+6zQD1zYOhdgAOWwkFSG37Xiew7wy8xCrrBUoVqpIeOy0tAdkDmCSDuy2JRQp1avVtLXYdWTlJ0JG2M8uKjpRo+6UrL8et7O67dnz1Lmje9So0tc0DLZM8tSFoOgQ/7pxP+WR/U38llbvs4plzQdIy3a5DdyV50VvmhQtBNaoGgtgZOO0fVBhQlaR04Sl0YhRTvZ7o9TQoN23tQrz1NVj41AOY5jUKctx6UEIQgBCEID5eVnct5PoVWVmd5hmN+8clVArqnVAOuvr/AMID6P6P3zTtdBtakdcnNOrXDVp/WhCXpBerbJZatofpTaSBpiccmM8XEDxXm3setrhaatKey+njj+JjgAfJx8ke2W/MVSnY2HJkVqv2yIptPJpLo/iagPOLRXdUe6pUMve4vcd7nGXHzKKDs9U2rC6buFWS6cIyy2ndO781qrVo0YOc9jdh6E69RU4bsiMkgznru3eqQ0xDdk8PIFXrrkpHQuHIg+oTL7jPw1T4ifQrjjmmHe7a8r6XO+eTYqOyT8P62KVzI26ZFI1SrfY304DoIOhG2N/FRF3QqRnHqi7oralOdOTjNWaJdJ0jl+gglM03wZTrlmYDlJ2cb/X9ei906BX39KsjcRmpT92/eYHZd4j8V4OCtb7Pr9+jWppcYp1Ypv4Gey7wPqUB7ekSoQCIQgoCq6SX9SsVDrauckMYwRL3nRo3ZAkncCvKL/vKtbH461SAO7TA7DOQnM8Tn6KB7ROkv0y1HA73NKWUo0OfbqeJGXADeVmqdpqbKjhzcYQFvaLtc4ziB2doTkNBmDCZqXfUiIaRzj0IUYW6uPin+QrsXvVHea3yI9CosjVKhTlvFBVsb8MGl5Z+spoUMIjA5p2EZEeUKU2/DtZ5H+yebfbNrXDyP4p0o1PBUX2Eum1OZLXE4cyTEvJ2CS4wOKdquBOIgcAB6nUniUhvOk4Za7iE3Z34p3hFFE0cJTpS6oom3ZbqlCqyrTMOaZGvi072kSF7tdttbXosqs7r2hw4bweIMjwXgLgvQvZbfPesrzrNSnz/AHjB/q/mKk6T0VCEIAQhCA+UQx7ipNnsvaEnTP8AAfrgpIapV2WU1KjWj4jJ4N/4QGu6I2ptgs9W3VG4iQGU2aYiT2WzskySdzV5/eN9C0WipUee29xc4gOwydknYBAHABej9MruP+GAsGVOqxzvslrqY+b2ryijZmAv6zKQcJiYnvOy2gDLjG9AWDWkkACSTAHE5BammwUqbWNLQ49luKYc/U6Z71QdGWTVh2ZZig5ZwQA7ycVoajzJgubPuxLMTcWoflnGzMwqHNarlUVPstT0+SUFGm6vd6fIaawa02NIbkzA+NT7zLICDz02LotLch1oj3Y0fM/vNpMbzu0XMgmW9USCWskFhx/vM89m4ea6bTgdljsLey3C+RhOpgmMjvnTLcqx85zv6F2JXpCrScySS3s4iC3tjbp8xlmss4QYOoyWra/CRLqkCKcObOI7HyBPCdFUX9ZcL8Y0dr9r+6s8rr9E3Sez1XkpM6wvXBVo7rR+Csanmuy5KFVtTGkNc6CdmZPy0U1gaQC05xmD6g7Qr48wAKdouzjf6/r0UclIa4CA9r9mnSV1oY6z1jNSk0Frjq6npnvIMCdoI4rcLxn2Ukm3B406t0/eiB5j5L2ZAIsL7Vukv0ez/RqToq1wQSNWUtHHgT3R97ctjedvZQovrVTDKbS5x4DYN5OgG8r5yv8AvZ9rtFSvU1echsa0ZNYOAH4nagK8oQn7DZTVeGjIauO4fnsH9lhOcYRcpbIzp05VJqEVqxuqQcPL8k45uUASMXyV+Lqoxhw/1OnzmU0+46R0xDkZ/wBUquWb0Xunz5lxLIcQlo4v5v6FLUpgkDPTI7Mk0aeuebYnT5blcvuL6tQ+In0IVdb7JUpwHGWnQjTkeK6qONoVX0xlqcVfLsTQj1Tjp67kSYzCsrNVzDth1Van7I/4d+YXUcJdlPXfa3UazKtMw5rg4cxsPAiQeCiWV8tjaMvDYnHBAe/XbbW16LKrO69ocOG8HiDI8FJXnXstvnvWV51mpT5/vGfj/MvRUAIQhAfM7xs368hr+A8Vreht361SM3ZDks7ZLE6o+ANTH3R+ifEL025bGGtAAyAhAX1jsjH03U6jQ5j2ljmnQtIgheQ9N+jJsFYMyqUqoL6T3DtCDDmkj4hLc9s817TZGwoHTi4fptifTaJqs97S/wDI0HszsxAub96diA8EsdXq3Nc3YdN42hal5kBzS84hAwkaO+ODllvWR/W5Xtw2nE00idMx9k6jwJ+aqM1oXiqq7b+C9yTFdM3Rls9vP9k5zz9bP9m3Gw98fFlEg+AXDQ3VjaZiQzC7Dqfe8B/bYu4IyHWD92Dk/LZU28pPiFyXyciwmcLA5pacQ7+euY3DzVLznPU9KdYcOgqADsCCHSD8cGTlvO5MXzlQhxky0AmJJnXLbEqRZ6TZBaAGtEMwuJBB17OmvNUd92vHUwjusy5u+I/h4FdOCpOpXjbtqzizKvGlhpX/ADaL5lDTszTXcand11ImNGyCIE+qfZjY8U3ODgGlzXDQjFBAPOVKNIQOsYYIlpzaebSRmo1Om3HDZM9nZkN2QAXqDxQ7XYSck7ZrHmJzJUwsV30Vu3rKmMjstOXPZ5figNx0Bu3qWgx2jmfwHIL0ILO3LRwgLQ0zkgPHPaz0zY95srP2dF3vHEmHVRlhgZkNM+PILzmz1w/ug6ToRlvXXSizPFWo1/eZWqB8/WDyCT4yVw+yNDMdGo2abCXsyxugAvMZ4T2shMkDZogHVpruswo05eQCe08kiBwncPz3qm6MUusIe74Wgx/EZAPyJ8le1q4xEY2AMzqBw2EdnMmB81RZpXcp/YrZavnNT02S4VRh94lu9F789DlzXTj6um58w0h0HqzxI14aaLnqQ3shlVrafbbhcSHE5lsSSeR3perPe6umXDsgtdhPVHiR8gk6sNyDarW0u02CSHzqIkl0aQd6rb84+XZdc5pyyExk9ltVwdUGNmJgOAalsQPImdU5VayvSIa5rgcg4ZjEP7rgvObG1jjf7xuNndb9WBHzz1TtCriOJrqZpnJpac8QyOmR0PHsqHeNpLdc9OWZNlJOMtU9Oa8ujKOaQYOoyPNIDGYVrf1lwuDxo7I/aH5j0VUvVYesq1NTXc8NisO8PVlTfb+OxZ2atmHbDr+KsCqOyPzwkgTmJyEq3s7jEHUemxbjnJFktL6VRtSm4tcDiaRscP7L27o1ewtVmZWiCey4bnjJ3ht5ELwwtlesezGmRYzPxVC4coa31aUBr0IQgPI7nsEGYWyu+jAUay2GNiubNRhASaDVMpqPTapDUB4h7Ubg+jWw1WCKVomoNwqT71viSHffO5ZChVc1wc3UHLb4QvoLptcQttjfSAHWD3lI7qjQYHAEEtPBy+fGmCZBkS0g5EHQg7iFDSasyYycXdblyy/x8dMg7YI9DEKVTvmidSRzafUSFQU6mYGe7mI2ogRs1MZcDA0VdPKsPLa68P63LWnnWKjvZ+V9LF3bb0ptpkUiC45DCMhOpMZDlvVDZ6Je4NG38pSFvZB4kLkFdGGwkcPFqO77s5cbjamKknLS2yROvW31HMZSeG+67IImTkBPkBomrtoZYztyHLaVGpUzUeB5nhtKucMCANMgPQLohBQVkcSVkcU6Je4MbqT+v1wXpVw3cKbGtGz5naVneil1EHrH6nIcN/64LeWGhCyJLSxMgKzplQqDVMpoDzD2r9EYx3hRiAA6uzgIHWt8IxDcJ3z5VWoMPdDm7wC0iNwlsgcJX1JaKYc0tcAWuBaQdCCIIPCF839IrmNitdSzGYYcVMn4qLs6Z4kZtPFpQDNz2gUqg+qeweG4+B9StHanRDnPY1je/jAgjZmTDc98rIrTXRaespw7Mt7JnOdxz3j5gqkzWhZqsvD9nz4Ho8jxN06EvK917/qL1R73V03P7ktdhIpHiR8hu1RhDdG1Q2l3QCXB4OyJJdHHRL1RmSym557Li0lpFI8xPhwSYQ3PDVAp5NAJcHg5d0El0cdFV85zuX1uc5oHWHuNrdo+9GNmjPqwI+eeaC0P7QZSewQ6lBHfGczEDMajclLyOwKwLv2hxs+DaMoHjqlp02vIcW0ywQ6k5uZBObjpA2ZhRe2vPblxu7c9+WEtrMdB2MQcOIiQYcBOo1zGqwt5OcXtYMUHY2cTiSAG5Znktdf1tgdU3UjtcG7uZ9Oaz76OIgggOGhOnIq8yqnKNJt7N6HmM8qwnWUY7xVmyM+maL3MiBseRkCBJEg7CcJ14gHS5uG1Y4G8GOBGo+RUK21bQaRpVm4gYwkimC2HFwIc055uOzad5UnozZSHNAElsnLe4mAPP5K0KU1V3WA1KjWN26ncNpXsNw0AymGtEAAADgAsf0YuvqxJ7xzJ/DktxYxAQExCEICtbZk6ykpOBLhQDbWpwBAC6QCQstf/AECu+1vNWrQio7M1Kb6lJxOkuwEBx4kFapIQgPKLx9ktMSaFqrN3CoKdVo8g0/NZi3dALdS7j6NUc30z5GR817xUYoNosoKA+fLVd1spyKlmqRvaG1Bz7OarH1wDhMtO5wLT5FfQNquwHYq6rdQOoQHmF0XW8MxFpBdnnrGwQr27rqzkrVvusbk5QsEFAd3bZoAV9ZqajWSzwrKkxAP0gpLEywJ9qAUrzn2v3F1tnFqYO3Z5Lo1NB3f/AJTDuQdvXoyj2qkHNIcAQQQQdCDkQUB8xqVdtr6qpJ7pydy2Hw/NSOklzmx2upZzOFpx0ydtF04PKC08WqvptnyJ58FhUpxqRcJbM2UqsqU1OO6NWwU3y4YTIwkiJI3EjNdNs4BbBcA0QAHHDHEHVZQ0hkZImOYlPMrVWmG1Dyk+hkKmnlM/yT/U9DTz6D/zp/o/+Gj6p4aAKk9qSXNBlu1vZgDmuLdaW0aZMCdGt0Bcc9mzUlUrb3rDIkHmP9sKJarS+o6XnMZAaAcAFhTyuo5r7S3T8O5nWzuiqb+yT6u1+w09xJJJkkyTxV2bqs/0DrxW98D3CW4T2owAd4OAzlVNjqNa8F4kDx2axtRaC1zyWiG7v1orepTlJxUW4pWenf8A1PLSblK42ykXQBqcgvQeh1xhjQ9wzOY/3flw5qm6KXN1jsbxkPTd4+nNemWGzwugkn2ClCuaCgWdin0kBJCVctXSAEIQgBCEIASJUIDkhcOYnUkICK+imH2YKwISFqAqn2QLkWMK1LFz1aAhU6EKQxiewJQ1ActanAEAJUALh4TiQhAYL2kdE3WymypQjr6U4Q4wHsd3qZdsMgEE5SNkkryG2XVa6P7ayV2cQwvaPvslvzX0rUYq+0WaUB8107a2cnjiDkfmpLawJnZnB28sl7Xe1w0qv7Wkx/2mtd6hZO39A7KTIpYDvY57flMfJAYFubgZGUcPVc1mkGTtOS1Fp6AkfsrRUH22tqemFVlfojbGd00qg5uY7yIj5oCmAVvcV1OrPgDsjU7JSWDo9anvwvo9WNri6mQBwwmSvRbmuttJgY0ZDzJ3nigJd02EMaGjZ8+K0FmpqPZaKsqLEA9SapLAmmBPtCAdaulyF0gBCEIAQhCAEIQgBCEIAQhCAEkJUIBIRCVCASEJUIBEJUIDhwTT6afhIQgINSgodaxgq4LVw6mgM9UsCjvu9aR1FNuoIDN/QOCk0LLCuPo6UUEBFo0lLY1dtpJxrUAMCdaFyGrsBAdBdLkLpACEIQAhCEAIQhACEIQAhCEAIQhACEIQAhCEAIQhACEIQAkhKhAclqTCu0IBvAkwJ1IgG8KXCu0IDkBLCVCAEqEID//Z;" vertex="1" parent="MWoTZahm21f5wGESu8r7-1">
          <mxGeometry x="-202.1" y="611" width="133.7" height="109" as="geometry" />
        </mxCell>
        <mxCell id="P5NN8UxaYEoYsG5dYnmy-13" value="To MODBUS RS and IEC101 Sensors" style="edgeStyle=none;shape=link;rounded=0;orthogonalLoop=1;jettySize=auto;html=1;exitX=0.5;exitY=1;exitDx=0;exitDy=0;entryX=0.5;entryY=0;entryDx=0;entryDy=0;fontSize=13;" edge="1" parent="MWoTZahm21f5wGESu8r7-1" source="WYvArH5Ne-kgaR7D99Rx-87" target="P5NN8UxaYEoYsG5dYnmy-9">
          <mxGeometry relative="1" as="geometry">
            <mxPoint x="-52.5" y="429" as="sourcePoint" />
            <mxPoint y="395" as="targetPoint" />
          </mxGeometry>
        </mxCell>
        <mxCell id="P5NN8UxaYEoYsG5dYnmy-16" style="edgeStyle=orthogonalEdgeStyle;shape=link;curved=1;rounded=0;orthogonalLoop=1;jettySize=auto;html=1;exitX=0.5;exitY=1;exitDx=0;exitDy=0;fontSize=13;" edge="1" parent="MWoTZahm21f5wGESu8r7-1" source="WYvArH5Ne-kgaR7D99Rx-35">
          <mxGeometry relative="1" as="geometry">
            <mxPoint x="504.8" y="600" as="sourcePoint" />
            <mxPoint x="509" y="650" as="targetPoint" />
          </mxGeometry>
        </mxCell>
        <mxCell id="2TNcHYMbd0h4hCJ03yQf-0" value="Redundancy" style="rounded=1;whiteSpace=wrap;html=1;dashed=1;fillColor=none;strokeWidth=2;strokeColor=#8A8A8A;" vertex="1" parent="MWoTZahm21f5wGESu8r7-1">
          <mxGeometry x="445" y="650.5" width="140" height="30" as="geometry" />
        </mxCell>
      </root>
    </mxGraphModel>
  </diagram>
  <diagram id="zXY5l56tLG7bG5bnVmrB" name="software-arch">
    <mxGraphModel dx="3062" dy="1948" grid="1" gridSize="10" guides="1" tooltips="1" connect="1" arrows="1" fold="1" page="1" pageScale="1" pageWidth="850" pageHeight="1100" background="#FFFFFF" math="0" shadow="0">
      <root>
        <mxCell id="VbCjW_sHDcV7VUZxViv9-0" />
        <mxCell id="VbCjW_sHDcV7VUZxViv9-1" parent="VbCjW_sHDcV7VUZxViv9-0" />
        <mxCell id="VbCjW_sHDcV7VUZxViv9-98" value="" style="shape=flexArrow;endArrow=classic;startArrow=classic;html=1;rounded=0;fillColor=#e1d5e7;entryX=0.422;entryY=1;entryDx=0;entryDy=0;entryPerimeter=0;sketch=1;strokeColor=#9673a6;" parent="VbCjW_sHDcV7VUZxViv9-1" edge="1">
          <mxGeometry width="100" height="100" relative="1" as="geometry">
            <mxPoint x="561" y="235" as="sourcePoint" />
            <mxPoint x="560.98" y="125" as="targetPoint" />
          </mxGeometry>
        </mxCell>
        <mxCell id="VbCjW_sHDcV7VUZxViv9-73" value="system and libs" style="swimlane;fillColor=#60a917;align=right;fontColor=#ffffff;strokeColor=#2D7600;gradientColor=none;glass=1;" parent="VbCjW_sHDcV7VUZxViv9-1" vertex="1">
          <mxGeometry x="-100" y="179" width="940" height="120" as="geometry" />
        </mxCell>
        <mxCell id="VbCjW_sHDcV7VUZxViv9-102" value="ftok" style="shape=cylinder3;whiteSpace=wrap;html=1;boundedLbl=1;backgroundOutline=1;size=15;fillColor=#d5e8d4;rotation=90;sketch=1;strokeColor=#82b366;" parent="VbCjW_sHDcV7VUZxViv9-73" vertex="1">
          <mxGeometry x="537.5" y="27.5" width="30" height="85" as="geometry" />
        </mxCell>
        <mxCell id="VbCjW_sHDcV7VUZxViv9-92" value="/dev/ttyMAX0..15" style="text;html=1;strokeColor=none;fillColor=none;align=center;verticalAlign=middle;whiteSpace=wrap;rounded=0;" parent="VbCjW_sHDcV7VUZxViv9-73" vertex="1">
          <mxGeometry x="330" y="91.5" width="90" height="30" as="geometry" />
        </mxCell>
        <mxCell id="VbCjW_sHDcV7VUZxViv9-104" value="" style="shape=flexArrow;endArrow=classic;startArrow=classic;html=1;rounded=0;fillColor=#e1d5e7;entryX=0.422;entryY=1;entryDx=0;entryDy=0;entryPerimeter=0;sketch=1;strokeColor=#9673a6;" parent="VbCjW_sHDcV7VUZxViv9-73" edge="1">
          <mxGeometry width="100" height="100" relative="1" as="geometry">
            <mxPoint x="725.02" y="55" as="sourcePoint" />
            <mxPoint x="725" y="-55" as="targetPoint" />
          </mxGeometry>
        </mxCell>
        <mxCell id="VbCjW_sHDcV7VUZxViv9-105" value="" style="shape=flexArrow;endArrow=classic;startArrow=classic;html=1;rounded=0;fillColor=#e1d5e7;entryX=0.422;entryY=1;entryDx=0;entryDy=0;entryPerimeter=0;sketch=1;strokeColor=#9673a6;" parent="VbCjW_sHDcV7VUZxViv9-73" edge="1">
          <mxGeometry width="100" height="100" relative="1" as="geometry">
            <mxPoint x="785.02" y="55" as="sourcePoint" />
            <mxPoint x="785" y="-55" as="targetPoint" />
          </mxGeometry>
        </mxCell>
        <mxCell id="VbCjW_sHDcV7VUZxViv9-106" value="ftok" style="shape=cylinder3;whiteSpace=wrap;html=1;boundedLbl=1;backgroundOutline=1;size=15;fillColor=#e1d5e7;rotation=90;sketch=1;strokeColor=#9673a6;" parent="VbCjW_sHDcV7VUZxViv9-73" vertex="1">
          <mxGeometry x="737.5" y="22.5" width="30" height="85" as="geometry" />
        </mxCell>
        <mxCell id="VbCjW_sHDcV7VUZxViv9-85" value="" style="shape=flexArrow;endArrow=classic;startArrow=classic;html=1;rounded=0;fillColor=#f8cecc;strokeColor=#b85450;sketch=1;" parent="VbCjW_sHDcV7VUZxViv9-73" edge="1">
          <mxGeometry width="100" height="100" relative="1" as="geometry">
            <mxPoint x="434" y="277" as="sourcePoint" />
            <mxPoint x="435" y="-80" as="targetPoint" />
            <Array as="points">
              <mxPoint x="434.5" y="177" />
            </Array>
          </mxGeometry>
        </mxCell>
        <mxCell id="VbCjW_sHDcV7VUZxViv9-124" value="" style="shape=flexArrow;endArrow=classic;startArrow=classic;html=1;rounded=0;fillColor=#f8cecc;strokeColor=#b85450;sketch=1;" parent="VbCjW_sHDcV7VUZxViv9-73" edge="1">
          <mxGeometry width="100" height="100" relative="1" as="geometry">
            <mxPoint x="319.02" y="57" as="sourcePoint" />
            <mxPoint x="319" y="-80" as="targetPoint" />
          </mxGeometry>
        </mxCell>
        <mxCell id="VbCjW_sHDcV7VUZxViv9-125" value="" style="shape=flexArrow;endArrow=classic;startArrow=classic;html=1;rounded=0;fillColor=#f8cecc;strokeColor=#b85450;sketch=1;" parent="VbCjW_sHDcV7VUZxViv9-73" edge="1">
          <mxGeometry width="100" height="100" relative="1" as="geometry">
            <mxPoint x="379.02" y="56" as="sourcePoint" />
            <mxPoint x="379" y="-80" as="targetPoint" />
          </mxGeometry>
        </mxCell>
        <mxCell id="VbCjW_sHDcV7VUZxViv9-126" value="ftok" style="shape=cylinder3;whiteSpace=wrap;html=1;boundedLbl=1;backgroundOutline=1;size=15;fillColor=#f8cecc;rotation=90;strokeColor=#b85450;sketch=1;" parent="VbCjW_sHDcV7VUZxViv9-73" vertex="1">
          <mxGeometry x="335.5" y="27.5" width="30" height="85" as="geometry" />
        </mxCell>
        <mxCell id="VbCjW_sHDcV7VUZxViv9-132" value="tlgate-vpd" style="rounded=1;whiteSpace=wrap;html=1;sketch=0;shadow=0;fillColor=#ffff88;strokeColor=#36393d;" parent="VbCjW_sHDcV7VUZxViv9-73" vertex="1">
          <mxGeometry x="20" y="1.5" width="160" height="27.5" as="geometry" />
        </mxCell>
        <mxCell id="VbCjW_sHDcV7VUZxViv9-135" value="tmw104&lt;br&gt;" style="rounded=1;whiteSpace=wrap;html=1;sketch=0;shadow=0;fillColor=#d0cee2;strokeColor=#56517e;" parent="VbCjW_sHDcV7VUZxViv9-73" vertex="1">
          <mxGeometry x="630" width="180" height="27.5" as="geometry" />
        </mxCell>
        <mxCell id="VbCjW_sHDcV7VUZxViv9-134" value="tmw101" style="rounded=1;sketch=0;labelBackgroundColor=none;glass=0;shadow=0;fillColor=#ffcc99;whiteSpace=wrap;html=1;labelBorderColor=none;align=center;fontStyle=0;spacingLeft=-26;strokeColor=#36393d;" parent="VbCjW_sHDcV7VUZxViv9-73" vertex="1">
          <mxGeometry x="290" width="320" height="27.5" as="geometry" />
        </mxCell>
        <mxCell id="VbCjW_sHDcV7VUZxViv9-140" value="systemd/dbus/udev" style="rounded=1;whiteSpace=wrap;html=1;fillColor=#60a917;fontColor=#ffffff;strokeColor=#2D7600;sketch=0;glass=1;" parent="VbCjW_sHDcV7VUZxViv9-73" vertex="1">
          <mxGeometry x="160" y="70" width="120" height="21.5" as="geometry" />
        </mxCell>
        <mxCell id="VbCjW_sHDcV7VUZxViv9-159" value="RAUC" style="rounded=1;whiteSpace=wrap;html=1;fillColor=#60a917;fontColor=#ffffff;strokeColor=#2D7600;sketch=0;glass=1;" parent="VbCjW_sHDcV7VUZxViv9-73" vertex="1">
          <mxGeometry x="160" y="42.75" width="120" height="21.5" as="geometry" />
        </mxCell>
        <mxCell id="VbCjW_sHDcV7VUZxViv9-143" value="rsyslog/journald" style="rounded=1;whiteSpace=wrap;html=1;fillColor=#60a917;fontColor=#ffffff;strokeColor=#2D7600;sketch=0;glass=1;" parent="VbCjW_sHDcV7VUZxViv9-73" vertex="1">
          <mxGeometry x="160" y="98.5" width="120" height="21.5" as="geometry" />
        </mxCell>
        <mxCell id="VbCjW_sHDcV7VUZxViv9-2" value="HAL (Linux Kernel)" style="swimlane;align=center;fillColor=#1ba1e2;strokeColor=#006EAF;sketch=0;fontSize=13;labelBackgroundColor=none;swimlaneFillColor=none;glass=1;fontColor=#ffffff;" parent="VbCjW_sHDcV7VUZxViv9-1" vertex="1">
          <mxGeometry x="-100" y="300" width="810" height="250" as="geometry" />
        </mxCell>
        <mxCell id="VbCjW_sHDcV7VUZxViv9-14" value="CPSW3g" style="rounded=0;whiteSpace=wrap;html=1;" parent="VbCjW_sHDcV7VUZxViv9-2" vertex="1">
          <mxGeometry x="610" y="160" width="110" height="90" as="geometry" />
        </mxCell>
        <mxCell id="VbCjW_sHDcV7VUZxViv9-108" value="" style="shape=flexArrow;endArrow=classic;startArrow=classic;html=1;rounded=0;fillColor=#d5e8d4;sketch=1;strokeColor=#82b366;" parent="VbCjW_sHDcV7VUZxViv9-2" edge="1">
          <mxGeometry width="100" height="100" relative="1" as="geometry">
            <mxPoint x="468" y="157" as="sourcePoint" />
            <mxPoint x="469" y="-280" as="targetPoint" />
          </mxGeometry>
        </mxCell>
        <mxCell id="VbCjW_sHDcV7VUZxViv9-16" value="RMII" style="rounded=0;whiteSpace=wrap;html=1;" parent="VbCjW_sHDcV7VUZxViv9-2" vertex="1">
          <mxGeometry x="620" y="220" width="40" height="30" as="geometry" />
        </mxCell>
        <mxCell id="VbCjW_sHDcV7VUZxViv9-17" value="RMII" style="rounded=0;whiteSpace=wrap;html=1;" parent="VbCjW_sHDcV7VUZxViv9-2" vertex="1">
          <mxGeometry x="670" y="220" width="40" height="30" as="geometry" />
        </mxCell>
        <mxCell id="VbCjW_sHDcV7VUZxViv9-18" value="TCP/IP stack" style="rounded=0;whiteSpace=wrap;html=1;fillColor=#d0cee2;strokeColor=#56517e;" parent="VbCjW_sHDcV7VUZxViv9-2" vertex="1">
          <mxGeometry x="610" y="130" width="110" height="30" as="geometry" />
        </mxCell>
        <mxCell id="VbCjW_sHDcV7VUZxViv9-82" value="" style="group" parent="VbCjW_sHDcV7VUZxViv9-2" vertex="1" connectable="0">
          <mxGeometry y="80" width="110" height="90" as="geometry" />
        </mxCell>
        <mxCell id="VbCjW_sHDcV7VUZxViv9-25" value="" style="group" parent="VbCjW_sHDcV7VUZxViv9-82" vertex="1" connectable="0">
          <mxGeometry y="30" width="60" height="60" as="geometry" />
        </mxCell>
        <mxCell id="VbCjW_sHDcV7VUZxViv9-20" value="Power Domains" style="rounded=0;whiteSpace=wrap;html=1;" parent="VbCjW_sHDcV7VUZxViv9-25" vertex="1">
          <mxGeometry width="60" height="30" as="geometry" />
        </mxCell>
        <mxCell id="VbCjW_sHDcV7VUZxViv9-21" value="Ti SCI" style="rounded=0;whiteSpace=wrap;html=1;" parent="VbCjW_sHDcV7VUZxViv9-25" vertex="1">
          <mxGeometry y="30" width="60" height="30" as="geometry" />
        </mxCell>
        <mxCell id="VbCjW_sHDcV7VUZxViv9-36" value="PM" style="rounded=0;whiteSpace=wrap;html=1;" parent="VbCjW_sHDcV7VUZxViv9-82" vertex="1">
          <mxGeometry width="110" height="30" as="geometry" />
        </mxCell>
        <mxCell id="VbCjW_sHDcV7VUZxViv9-37" value="DVFS" style="rounded=0;whiteSpace=wrap;html=1;" parent="VbCjW_sHDcV7VUZxViv9-82" vertex="1">
          <mxGeometry x="60" y="30" width="50" height="30" as="geometry" />
        </mxCell>
        <mxCell id="VbCjW_sHDcV7VUZxViv9-87" value="" style="group" parent="VbCjW_sHDcV7VUZxViv9-2" vertex="1" connectable="0">
          <mxGeometry x="485" y="190" width="60" height="60" as="geometry" />
        </mxCell>
        <mxCell id="VbCjW_sHDcV7VUZxViv9-32" value="Ti SDHC" style="rounded=0;whiteSpace=wrap;html=1;" parent="VbCjW_sHDcV7VUZxViv9-87" vertex="1">
          <mxGeometry y="30" width="60" height="30" as="geometry" />
        </mxCell>
        <mxCell id="VbCjW_sHDcV7VUZxViv9-35" value="MMC blk" style="rounded=0;whiteSpace=wrap;html=1;" parent="VbCjW_sHDcV7VUZxViv9-87" vertex="1">
          <mxGeometry width="60" height="30" as="geometry" />
        </mxCell>
        <mxCell id="VbCjW_sHDcV7VUZxViv9-88" value="" style="group" parent="VbCjW_sHDcV7VUZxViv9-2" vertex="1" connectable="0">
          <mxGeometry x="545" y="100" width="60" height="150" as="geometry" />
        </mxCell>
        <mxCell id="VbCjW_sHDcV7VUZxViv9-26" value="ULPI" style="rounded=0;whiteSpace=wrap;html=1;" parent="VbCjW_sHDcV7VUZxViv9-88" vertex="1">
          <mxGeometry y="120" width="60" height="30" as="geometry" />
        </mxCell>
        <mxCell id="VbCjW_sHDcV7VUZxViv9-27" value="O/EHCI" style="rounded=0;whiteSpace=wrap;html=1;" parent="VbCjW_sHDcV7VUZxViv9-88" vertex="1">
          <mxGeometry y="90" width="60" height="30" as="geometry" />
        </mxCell>
        <mxCell id="VbCjW_sHDcV7VUZxViv9-28" value="USB OTG" style="rounded=0;whiteSpace=wrap;html=1;" parent="VbCjW_sHDcV7VUZxViv9-88" vertex="1">
          <mxGeometry y="60" width="60" height="30" as="geometry" />
        </mxCell>
        <mxCell id="VbCjW_sHDcV7VUZxViv9-29" value="USB STORAGE" style="rounded=0;whiteSpace=wrap;html=1;" parent="VbCjW_sHDcV7VUZxViv9-88" vertex="1">
          <mxGeometry y="30" width="60" height="30" as="geometry" />
        </mxCell>
        <mxCell id="VbCjW_sHDcV7VUZxViv9-30" value="SCSI" style="rounded=0;whiteSpace=wrap;html=1;" parent="VbCjW_sHDcV7VUZxViv9-88" vertex="1">
          <mxGeometry width="60" height="30" as="geometry" />
        </mxCell>
        <mxCell id="VbCjW_sHDcV7VUZxViv9-89" value="VFS" style="whiteSpace=wrap;html=1;fillColor=#FFFFFF;" parent="VbCjW_sHDcV7VUZxViv9-2" vertex="1">
          <mxGeometry x="100" y="30" width="640" height="30" as="geometry" />
        </mxCell>
        <mxCell id="VbCjW_sHDcV7VUZxViv9-95" value="" style="shape=flexArrow;endArrow=classic;startArrow=classic;html=1;rounded=0;fillColor=#E1D5E7;strokeColor=#B5739D;sketch=1;" parent="VbCjW_sHDcV7VUZxViv9-2" edge="1">
          <mxGeometry width="100" height="100" relative="1" as="geometry">
            <mxPoint x="660" y="130" as="sourcePoint" />
            <mxPoint x="661" y="-30" as="targetPoint" />
          </mxGeometry>
        </mxCell>
        <mxCell id="VbCjW_sHDcV7VUZxViv9-123" value="" style="group" parent="VbCjW_sHDcV7VUZxViv9-2" vertex="1" connectable="0">
          <mxGeometry x="100" y="130" width="250" height="120" as="geometry" />
        </mxCell>
        <mxCell id="VbCjW_sHDcV7VUZxViv9-161" value="" style="edgeStyle=orthogonalEdgeStyle;rounded=0;sketch=1;orthogonalLoop=1;jettySize=auto;html=1;fontSize=13;fontColor=default;fillColor=default;" parent="VbCjW_sHDcV7VUZxViv9-123" source="VbCjW_sHDcV7VUZxViv9-8" target="VbCjW_sHDcV7VUZxViv9-13" edge="1">
          <mxGeometry relative="1" as="geometry" />
        </mxCell>
        <mxCell id="VbCjW_sHDcV7VUZxViv9-8" value="AT24" style="rounded=0;whiteSpace=wrap;html=1;" parent="VbCjW_sHDcV7VUZxViv9-123" vertex="1">
          <mxGeometry y="60" width="60" height="30" as="geometry" />
        </mxCell>
        <mxCell id="VbCjW_sHDcV7VUZxViv9-10" value="BQ32K" style="rounded=0;whiteSpace=wrap;html=1;" parent="VbCjW_sHDcV7VUZxViv9-123" vertex="1">
          <mxGeometry x="60" y="60" width="60" height="30" as="geometry" />
        </mxCell>
        <mxCell id="VbCjW_sHDcV7VUZxViv9-117" value="" style="group" parent="VbCjW_sHDcV7VUZxViv9-123" vertex="1" connectable="0">
          <mxGeometry width="250" height="120" as="geometry" />
        </mxCell>
        <mxCell id="VbCjW_sHDcV7VUZxViv9-3" value="I2C" style="rounded=0;whiteSpace=wrap;html=1;" parent="VbCjW_sHDcV7VUZxViv9-117" vertex="1">
          <mxGeometry y="90" width="180" height="30" as="geometry" />
        </mxCell>
        <mxCell id="VbCjW_sHDcV7VUZxViv9-9" value="EEPROM" style="rounded=0;whiteSpace=wrap;html=1;fillColor=#ffff88;strokeColor=#36393d;" parent="VbCjW_sHDcV7VUZxViv9-117" vertex="1">
          <mxGeometry y="30" width="60" height="30" as="geometry" />
        </mxCell>
        <mxCell id="VbCjW_sHDcV7VUZxViv9-11" value="RTC" style="rounded=0;whiteSpace=wrap;html=1;" parent="VbCjW_sHDcV7VUZxViv9-117" vertex="1">
          <mxGeometry x="60" y="30" width="60" height="30" as="geometry" />
        </mxCell>
        <mxCell id="VbCjW_sHDcV7VUZxViv9-12" value="PCF857x" style="rounded=0;whiteSpace=wrap;html=1;" parent="VbCjW_sHDcV7VUZxViv9-117" vertex="1">
          <mxGeometry x="120" y="60" width="60" height="30" as="geometry" />
        </mxCell>
        <mxCell id="VbCjW_sHDcV7VUZxViv9-13" value="GPIO" style="rounded=0;whiteSpace=wrap;html=1;" parent="VbCjW_sHDcV7VUZxViv9-117" vertex="1">
          <mxGeometry x="120" y="30" width="130" height="30" as="geometry" />
        </mxCell>
        <mxCell id="VbCjW_sHDcV7VUZxViv9-23" value="(PinMux)" style="rounded=0;whiteSpace=wrap;html=1;" parent="VbCjW_sHDcV7VUZxViv9-117" vertex="1">
          <mxGeometry x="190" y="60" width="60" height="30" as="geometry" />
        </mxCell>
        <mxCell id="VbCjW_sHDcV7VUZxViv9-24" value="LED" style="rounded=0;whiteSpace=wrap;html=1;" parent="VbCjW_sHDcV7VUZxViv9-117" vertex="1">
          <mxGeometry x="190" width="60" height="30" as="geometry" />
        </mxCell>
        <mxCell id="VbCjW_sHDcV7VUZxViv9-116" value="" style="group;fillColor=#fad7ac;strokeColor=#b46504;sketch=0;glass=0;" parent="VbCjW_sHDcV7VUZxViv9-2" vertex="1" connectable="0">
          <mxGeometry x="360" y="160" width="120" height="90" as="geometry" />
        </mxCell>
        <mxCell id="VbCjW_sHDcV7VUZxViv9-5" value="OMAP UART" style="rounded=0;whiteSpace=wrap;html=1;" parent="VbCjW_sHDcV7VUZxViv9-116" vertex="1">
          <mxGeometry y="30" width="60" height="60" as="geometry" />
        </mxCell>
        <mxCell id="VbCjW_sHDcV7VUZxViv9-6" value="mcSPI" style="rounded=0;whiteSpace=wrap;html=1;" parent="VbCjW_sHDcV7VUZxViv9-116" vertex="1">
          <mxGeometry x="60" y="60" width="60" height="30" as="geometry" />
        </mxCell>
        <mxCell id="VbCjW_sHDcV7VUZxViv9-7" value="TTY" style="rounded=0;whiteSpace=wrap;html=1;fillColor=#fad7ac;strokeColor=#b46504;" parent="VbCjW_sHDcV7VUZxViv9-116" vertex="1">
          <mxGeometry width="120" height="30" as="geometry" />
        </mxCell>
        <mxCell id="VbCjW_sHDcV7VUZxViv9-19" value="MAX310x" style="rounded=0;whiteSpace=wrap;html=1;" parent="VbCjW_sHDcV7VUZxViv9-116" vertex="1">
          <mxGeometry x="60" y="30" width="60" height="30" as="geometry" />
        </mxCell>
        <mxCell id="VbCjW_sHDcV7VUZxViv9-133" value="" style="shape=flexArrow;endArrow=classic;startArrow=classic;html=1;rounded=0;fillColor=#ffff88;strokeColor=#36393d;sketch=1;" parent="VbCjW_sHDcV7VUZxViv9-2" edge="1">
          <mxGeometry width="100" height="100" relative="1" as="geometry">
            <mxPoint x="130.01999999999998" y="160" as="sourcePoint" />
            <mxPoint x="130" y="-90" as="targetPoint" />
          </mxGeometry>
        </mxCell>
        <mxCell id="VbCjW_sHDcV7VUZxViv9-75" value="Application Layer" style="swimlane;fillColor=#d80073;fontColor=#ffffff;strokeColor=#A50040;sketch=0;gradientColor=#ffffff;startSize=23;container=0;" parent="VbCjW_sHDcV7VUZxViv9-1" vertex="1">
          <mxGeometry x="-100" y="-80" width="940" height="260" as="geometry" />
        </mxCell>
        <mxCell id="VbCjW_sHDcV7VUZxViv9-144" value="cgi-bin(s)" style="rounded=1;whiteSpace=wrap;html=1;fillColor=#FFFFFF;" parent="VbCjW_sHDcV7VUZxViv9-75" vertex="1">
          <mxGeometry x="10" y="80" width="120" height="27" as="geometry" />
        </mxCell>
        <mxCell id="VbCjW_sHDcV7VUZxViv9-139" value="lighttpd" style="rounded=1;whiteSpace=wrap;html=1;fillColor=#FFFFFF;" parent="VbCjW_sHDcV7VUZxViv9-75" vertex="1">
          <mxGeometry x="10" y="27" width="120" height="53" as="geometry" />
        </mxCell>
        <mxCell id="VbCjW_sHDcV7VUZxViv9-39" value="OP-TEE" style="swimlane;fillColor=#1ba1e2;fontColor=#3333FF;strokeColor=#006EAF;sketch=1;labelBackgroundColor=none;glass=1;fontSize=10;" parent="VbCjW_sHDcV7VUZxViv9-1" vertex="1">
          <mxGeometry x="710" y="300" width="130" height="250" as="geometry" />
        </mxCell>
        <mxCell id="VbCjW_sHDcV7VUZxViv9-71" value="TA" style="rounded=0;whiteSpace=wrap;html=1;" parent="VbCjW_sHDcV7VUZxViv9-39" vertex="1">
          <mxGeometry x="50" y="180" width="60" height="30" as="geometry" />
        </mxCell>
        <mxCell id="VbCjW_sHDcV7VUZxViv9-80" value="RNG" style="rounded=0;whiteSpace=wrap;html=1;" parent="VbCjW_sHDcV7VUZxViv9-39" vertex="1">
          <mxGeometry y="100" width="60" height="30" as="geometry" />
        </mxCell>
        <mxCell id="VbCjW_sHDcV7VUZxViv9-70" value="OPTEE-RPC" style="rounded=0;whiteSpace=wrap;html=1;fillColor=#FFFFFF;" parent="VbCjW_sHDcV7VUZxViv9-39" vertex="1">
          <mxGeometry x="-20" y="80" width="150" height="20" as="geometry" />
        </mxCell>
        <mxCell id="VbCjW_sHDcV7VUZxViv9-96" value="send/receive Eth0..1" style="text;html=1;strokeColor=none;fillColor=none;align=center;verticalAlign=middle;whiteSpace=wrap;rounded=0;" parent="VbCjW_sHDcV7VUZxViv9-1" vertex="1">
          <mxGeometry x="521" y="240" width="90" height="30" as="geometry" />
        </mxCell>
        <mxCell id="VbCjW_sHDcV7VUZxViv9-77" value="&lt;code&gt;tlgate_appIEC104Slave&lt;/code&gt;" style="rounded=1;whiteSpace=wrap;html=1;fillColor=#e1d5e7;sketch=1;strokeColor=#9673a6;" parent="VbCjW_sHDcV7VUZxViv9-1" vertex="1">
          <mxGeometry x="660" y="57" width="170" height="60" as="geometry" />
        </mxCell>
        <mxCell id="VbCjW_sHDcV7VUZxViv9-103" value="" style="shape=flexArrow;endArrow=classic;startArrow=classic;html=1;rounded=0;fillColor=#d5e8d4;sketch=1;strokeColor=#82b366;" parent="VbCjW_sHDcV7VUZxViv9-1" edge="1">
          <mxGeometry width="100" height="100" relative="1" as="geometry">
            <mxPoint x="425.02" y="237" as="sourcePoint" />
            <mxPoint x="425" y="17" as="targetPoint" />
          </mxGeometry>
        </mxCell>
        <mxCell id="VbCjW_sHDcV7VUZxViv9-101" value="" style="shape=flexArrow;endArrow=classic;startArrow=classic;html=1;rounded=0;fillColor=#d5e8d4;sketch=1;strokeColor=#82b366;" parent="VbCjW_sHDcV7VUZxViv9-1" edge="1">
          <mxGeometry width="100" height="100" relative="1" as="geometry">
            <mxPoint x="485.02" y="237" as="sourcePoint" />
            <mxPoint x="485" y="17" as="targetPoint" />
          </mxGeometry>
        </mxCell>
        <mxCell id="VbCjW_sHDcV7VUZxViv9-111" value="IEC101Slave" style="rounded=1;whiteSpace=wrap;html=1;fillColor=#d5e8d4;sketch=1;strokeColor=#82b366;" parent="VbCjW_sHDcV7VUZxViv9-1" vertex="1">
          <mxGeometry x="337" y="-46" width="110" height="60" as="geometry" />
        </mxCell>
        <mxCell id="VbCjW_sHDcV7VUZxViv9-112" value="&lt;code&gt;tlgate_appIEC101&lt;/code&gt;" style="rounded=1;whiteSpace=wrap;html=1;fillColor=#d5e8d4;sketch=1;strokeColor=#82b366;" parent="VbCjW_sHDcV7VUZxViv9-1" vertex="1">
          <mxGeometry x="459" y="-46" width="130" height="60" as="geometry" />
        </mxCell>
        <mxCell id="VbCjW_sHDcV7VUZxViv9-97" value="IEC104Slaver" style="rounded=1;whiteSpace=wrap;html=1;fillColor=#e1d5e7;sketch=1;strokeColor=#9673a6;" parent="VbCjW_sHDcV7VUZxViv9-1" vertex="1">
          <mxGeometry x="535" y="57" width="115" height="60" as="geometry" />
        </mxCell>
        <mxCell id="VbCjW_sHDcV7VUZxViv9-79" value="IEC101Master" style="rounded=1;whiteSpace=wrap;html=1;fillColor=#f8cecc;strokeColor=#b85450;sketch=1;" parent="VbCjW_sHDcV7VUZxViv9-1" vertex="1">
          <mxGeometry x="235" y="26" width="110" height="60" as="geometry" />
        </mxCell>
        <mxCell id="VbCjW_sHDcV7VUZxViv9-110" value="&lt;code&gt;tlgate_appIEC101Master&lt;/code&gt;" style="rounded=1;whiteSpace=wrap;html=1;fillColor=#f8cecc;strokeColor=#b85450;sketch=1;" parent="VbCjW_sHDcV7VUZxViv9-1" vertex="1">
          <mxGeometry x="47" y="27" width="175" height="60" as="geometry" />
        </mxCell>
        <mxCell id="VbCjW_sHDcV7VUZxViv9-128" value="&lt;b&gt;SISGateway&lt;/b&gt;" style="rounded=1;whiteSpace=wrap;html=1;sketch=1;fillColor=#dae8fc;strokeColor=#6c8ebf;" parent="VbCjW_sHDcV7VUZxViv9-1" vertex="1">
          <mxGeometry x="620" y="-46" width="120" height="60" as="geometry" />
        </mxCell>
        <mxCell id="VbCjW_sHDcV7VUZxViv9-130" value="tlgate-eeprom" style="rounded=1;whiteSpace=wrap;html=1;fillColor=#ffff88;strokeColor=#36393d;sketch=1;" parent="VbCjW_sHDcV7VUZxViv9-1" vertex="1">
          <mxGeometry x="-40" y="124" width="120" height="53" as="geometry" />
        </mxCell>
        <mxCell id="VbCjW_sHDcV7VUZxViv9-137" style="edgeStyle=orthogonalEdgeStyle;rounded=0;sketch=1;orthogonalLoop=1;jettySize=auto;html=1;exitX=1;exitY=0.75;exitDx=0;exitDy=0;entryX=0.991;entryY=0.867;entryDx=0;entryDy=0;entryPerimeter=0;fontSize=13;fontColor=#333333;fillColor=default;" parent="VbCjW_sHDcV7VUZxViv9-1" source="VbCjW_sHDcV7VUZxViv9-111" target="VbCjW_sHDcV7VUZxViv9-111" edge="1">
          <mxGeometry relative="1" as="geometry" />
        </mxCell>
        <mxCell id="VbCjW_sHDcV7VUZxViv9-163" value="" style="shape=flexArrow;endArrow=classic;startArrow=classic;html=1;rounded=0;fillColor=#ffff88;strokeColor=#36393d;sketch=1;" parent="VbCjW_sHDcV7VUZxViv9-1" edge="1">
          <mxGeometry width="100" height="100" relative="1" as="geometry">
            <mxPoint x="-59.98000000000002" y="177" as="sourcePoint" />
            <mxPoint x="-60" y="30" as="targetPoint" />
          </mxGeometry>
        </mxCell>
      </root>
    </mxGraphModel>
  </diagram>
</mxfile>
